<?xml version="1.0" encoding="utf-8" standalone="no"?>
<!DOCTYPE svg PUBLIC "-//W3C//DTD SVG 1.1//EN"
  "http://www.w3.org/Graphics/SVG/1.1/DTD/svg11.dtd">
<svg height="216pt" version="1.1" viewBox="0 0 432 216" width="432pt" xmlns="http://www.w3.org/2000/svg" xmlns:xlink="http://www.w3.org/1999/xlink">
 <metadata>
  <rdf:RDF xmlns:cc="http://creativecommons.org/ns#" xmlns:dc="http://purl.org/dc/elements/1.1/" xmlns:rdf="http://www.w3.org/1999/02/22-rdf-syntax-ns#">
   <cc:Work>
    <dc:type rdf:resource="http://purl.org/dc/dcmitype/StillImage"/>
    <dc:date>2022-08-24T16:36:55.271569</dc:date>
    <dc:format>image/svg+xml</dc:format>
    <dc:creator>
     <cc:Agent>
      <dc:title>Matplotlib v3.4.2, https://matplotlib.org/</dc:title>
     </cc:Agent>
    </dc:creator>
   </cc:Work>
  </rdf:RDF>
 </metadata>
 <defs>
  <style type="text/css">*{stroke-linecap:butt;stroke-linejoin:round;}</style>
 </defs>
 <g id="figure_1">
  <g id="patch_1">
   <path d="M 0 216 
L 432 216 
L 432 0 
L 0 0 
z
" style="fill:#ffffff;"/>
  </g>
  <g id="axes_1">
   <g id="patch_2">
    <path d="M 51.32 131.938266 
L 398.398155 131.938266 
L 398.398155 10.8 
L 51.32 10.8 
z
" style="fill:#ffffff;"/>
   </g>
   <g id="matplotlib.axis_1">
    <g id="xtick_1">
     <g id="line2d_1">
      <defs>
       <path d="M 0 0 
L 0 3.5 
" id="ma840430c0d" style="stroke:#000000;stroke-width:0.8;"/>
      </defs>
      <g>
       <use style="stroke:#000000;stroke-width:0.8;" x="51.32" xlink:href="#ma840430c0d" y="131.938266"/>
      </g>
     </g>
     <g id="text_1">
      <!-- 2020/02/25 -->
      <g transform="translate(36.896377 203.395976)rotate(-60)scale(0.12 -0.12)">
       <defs>
        <path d="M 1228 531 
L 3431 531 
L 3431 0 
L 469 0 
L 469 531 
Q 828 903 1448 1529 
Q 2069 2156 2228 2338 
Q 2531 2678 2651 2914 
Q 2772 3150 2772 3378 
Q 2772 3750 2511 3984 
Q 2250 4219 1831 4219 
Q 1534 4219 1204 4116 
Q 875 4013 500 3803 
L 500 4441 
Q 881 4594 1212 4672 
Q 1544 4750 1819 4750 
Q 2544 4750 2975 4387 
Q 3406 4025 3406 3419 
Q 3406 3131 3298 2873 
Q 3191 2616 2906 2266 
Q 2828 2175 2409 1742 
Q 1991 1309 1228 531 
z
" id="DejaVuSans-32" transform="scale(0.015625)"/>
        <path d="M 2034 4250 
Q 1547 4250 1301 3770 
Q 1056 3291 1056 2328 
Q 1056 1369 1301 889 
Q 1547 409 2034 409 
Q 2525 409 2770 889 
Q 3016 1369 3016 2328 
Q 3016 3291 2770 3770 
Q 2525 4250 2034 4250 
z
M 2034 4750 
Q 2819 4750 3233 4129 
Q 3647 3509 3647 2328 
Q 3647 1150 3233 529 
Q 2819 -91 2034 -91 
Q 1250 -91 836 529 
Q 422 1150 422 2328 
Q 422 3509 836 4129 
Q 1250 4750 2034 4750 
z
" id="DejaVuSans-30" transform="scale(0.015625)"/>
        <path d="M 1625 4666 
L 2156 4666 
L 531 -594 
L 0 -594 
L 1625 4666 
z
" id="DejaVuSans-2f" transform="scale(0.015625)"/>
        <path d="M 691 4666 
L 3169 4666 
L 3169 4134 
L 1269 4134 
L 1269 2991 
Q 1406 3038 1543 3061 
Q 1681 3084 1819 3084 
Q 2600 3084 3056 2656 
Q 3513 2228 3513 1497 
Q 3513 744 3044 326 
Q 2575 -91 1722 -91 
Q 1428 -91 1123 -41 
Q 819 9 494 109 
L 494 744 
Q 775 591 1075 516 
Q 1375 441 1709 441 
Q 2250 441 2565 725 
Q 2881 1009 2881 1497 
Q 2881 1984 2565 2268 
Q 2250 2553 1709 2553 
Q 1456 2553 1204 2497 
Q 953 2441 691 2322 
L 691 4666 
z
" id="DejaVuSans-35" transform="scale(0.015625)"/>
       </defs>
       <use xlink:href="#DejaVuSans-32"/>
       <use x="63.623047" xlink:href="#DejaVuSans-30"/>
       <use x="127.246094" xlink:href="#DejaVuSans-32"/>
       <use x="190.869141" xlink:href="#DejaVuSans-30"/>
       <use x="254.492188" xlink:href="#DejaVuSans-2f"/>
       <use x="288.183594" xlink:href="#DejaVuSans-30"/>
       <use x="351.806641" xlink:href="#DejaVuSans-32"/>
       <use x="415.429688" xlink:href="#DejaVuSans-2f"/>
       <use x="449.121094" xlink:href="#DejaVuSans-32"/>
       <use x="512.744141" xlink:href="#DejaVuSans-35"/>
      </g>
     </g>
    </g>
    <g id="xtick_2">
     <g id="line2d_2">
      <g>
       <use style="stroke:#000000;stroke-width:0.8;" x="59.391585" xlink:href="#ma840430c0d" y="131.938266"/>
      </g>
     </g>
     <g id="text_2">
      <!-- 2020/03/06 -->
      <g transform="translate(44.967962 203.395976)rotate(-60)scale(0.12 -0.12)">
       <defs>
        <path d="M 2597 2516 
Q 3050 2419 3304 2112 
Q 3559 1806 3559 1356 
Q 3559 666 3084 287 
Q 2609 -91 1734 -91 
Q 1441 -91 1130 -33 
Q 819 25 488 141 
L 488 750 
Q 750 597 1062 519 
Q 1375 441 1716 441 
Q 2309 441 2620 675 
Q 2931 909 2931 1356 
Q 2931 1769 2642 2001 
Q 2353 2234 1838 2234 
L 1294 2234 
L 1294 2753 
L 1863 2753 
Q 2328 2753 2575 2939 
Q 2822 3125 2822 3475 
Q 2822 3834 2567 4026 
Q 2313 4219 1838 4219 
Q 1578 4219 1281 4162 
Q 984 4106 628 3988 
L 628 4550 
Q 988 4650 1302 4700 
Q 1616 4750 1894 4750 
Q 2613 4750 3031 4423 
Q 3450 4097 3450 3541 
Q 3450 3153 3228 2886 
Q 3006 2619 2597 2516 
z
" id="DejaVuSans-33" transform="scale(0.015625)"/>
        <path d="M 2113 2584 
Q 1688 2584 1439 2293 
Q 1191 2003 1191 1497 
Q 1191 994 1439 701 
Q 1688 409 2113 409 
Q 2538 409 2786 701 
Q 3034 994 3034 1497 
Q 3034 2003 2786 2293 
Q 2538 2584 2113 2584 
z
M 3366 4563 
L 3366 3988 
Q 3128 4100 2886 4159 
Q 2644 4219 2406 4219 
Q 1781 4219 1451 3797 
Q 1122 3375 1075 2522 
Q 1259 2794 1537 2939 
Q 1816 3084 2150 3084 
Q 2853 3084 3261 2657 
Q 3669 2231 3669 1497 
Q 3669 778 3244 343 
Q 2819 -91 2113 -91 
Q 1303 -91 875 529 
Q 447 1150 447 2328 
Q 447 3434 972 4092 
Q 1497 4750 2381 4750 
Q 2619 4750 2861 4703 
Q 3103 4656 3366 4563 
z
" id="DejaVuSans-36" transform="scale(0.015625)"/>
       </defs>
       <use xlink:href="#DejaVuSans-32"/>
       <use x="63.623047" xlink:href="#DejaVuSans-30"/>
       <use x="127.246094" xlink:href="#DejaVuSans-32"/>
       <use x="190.869141" xlink:href="#DejaVuSans-30"/>
       <use x="254.492188" xlink:href="#DejaVuSans-2f"/>
       <use x="288.183594" xlink:href="#DejaVuSans-30"/>
       <use x="351.806641" xlink:href="#DejaVuSans-33"/>
       <use x="415.429688" xlink:href="#DejaVuSans-2f"/>
       <use x="449.121094" xlink:href="#DejaVuSans-30"/>
       <use x="512.744141" xlink:href="#DejaVuSans-36"/>
      </g>
     </g>
    </g>
    <g id="xtick_3">
     <g id="line2d_3">
      <g>
       <use style="stroke:#000000;stroke-width:0.8;" x="67.46317" xlink:href="#ma840430c0d" y="131.938266"/>
      </g>
     </g>
     <g id="text_3">
      <!-- 2020/03/07 -->
      <g transform="translate(53.039547 203.395976)rotate(-60)scale(0.12 -0.12)">
       <defs>
        <path d="M 525 4666 
L 3525 4666 
L 3525 4397 
L 1831 0 
L 1172 0 
L 2766 4134 
L 525 4134 
L 525 4666 
z
" id="DejaVuSans-37" transform="scale(0.015625)"/>
       </defs>
       <use xlink:href="#DejaVuSans-32"/>
       <use x="63.623047" xlink:href="#DejaVuSans-30"/>
       <use x="127.246094" xlink:href="#DejaVuSans-32"/>
       <use x="190.869141" xlink:href="#DejaVuSans-30"/>
       <use x="254.492188" xlink:href="#DejaVuSans-2f"/>
       <use x="288.183594" xlink:href="#DejaVuSans-30"/>
       <use x="351.806641" xlink:href="#DejaVuSans-33"/>
       <use x="415.429688" xlink:href="#DejaVuSans-2f"/>
       <use x="449.121094" xlink:href="#DejaVuSans-30"/>
       <use x="512.744141" xlink:href="#DejaVuSans-37"/>
      </g>
     </g>
    </g>
    <g id="xtick_4">
     <g id="line2d_4">
      <g>
       <use style="stroke:#000000;stroke-width:0.8;" x="75.534755" xlink:href="#ma840430c0d" y="131.938266"/>
      </g>
     </g>
     <g id="text_4">
      <!-- 2020/03/08 -->
      <g transform="translate(61.111132 203.395976)rotate(-60)scale(0.12 -0.12)">
       <defs>
        <path d="M 2034 2216 
Q 1584 2216 1326 1975 
Q 1069 1734 1069 1313 
Q 1069 891 1326 650 
Q 1584 409 2034 409 
Q 2484 409 2743 651 
Q 3003 894 3003 1313 
Q 3003 1734 2745 1975 
Q 2488 2216 2034 2216 
z
M 1403 2484 
Q 997 2584 770 2862 
Q 544 3141 544 3541 
Q 544 4100 942 4425 
Q 1341 4750 2034 4750 
Q 2731 4750 3128 4425 
Q 3525 4100 3525 3541 
Q 3525 3141 3298 2862 
Q 3072 2584 2669 2484 
Q 3125 2378 3379 2068 
Q 3634 1759 3634 1313 
Q 3634 634 3220 271 
Q 2806 -91 2034 -91 
Q 1263 -91 848 271 
Q 434 634 434 1313 
Q 434 1759 690 2068 
Q 947 2378 1403 2484 
z
M 1172 3481 
Q 1172 3119 1398 2916 
Q 1625 2713 2034 2713 
Q 2441 2713 2670 2916 
Q 2900 3119 2900 3481 
Q 2900 3844 2670 4047 
Q 2441 4250 2034 4250 
Q 1625 4250 1398 4047 
Q 1172 3844 1172 3481 
z
" id="DejaVuSans-38" transform="scale(0.015625)"/>
       </defs>
       <use xlink:href="#DejaVuSans-32"/>
       <use x="63.623047" xlink:href="#DejaVuSans-30"/>
       <use x="127.246094" xlink:href="#DejaVuSans-32"/>
       <use x="190.869141" xlink:href="#DejaVuSans-30"/>
       <use x="254.492188" xlink:href="#DejaVuSans-2f"/>
       <use x="288.183594" xlink:href="#DejaVuSans-30"/>
       <use x="351.806641" xlink:href="#DejaVuSans-33"/>
       <use x="415.429688" xlink:href="#DejaVuSans-2f"/>
       <use x="449.121094" xlink:href="#DejaVuSans-30"/>
       <use x="512.744141" xlink:href="#DejaVuSans-38"/>
      </g>
     </g>
    </g>
    <g id="xtick_5">
     <g id="line2d_5">
      <g>
       <use style="stroke:#000000;stroke-width:0.8;" x="83.60634" xlink:href="#ma840430c0d" y="131.938266"/>
      </g>
     </g>
     <g id="text_5">
      <!-- 2020/03/11 -->
      <g transform="translate(69.182717 203.395976)rotate(-60)scale(0.12 -0.12)">
       <defs>
        <path d="M 794 531 
L 1825 531 
L 1825 4091 
L 703 3866 
L 703 4441 
L 1819 4666 
L 2450 4666 
L 2450 531 
L 3481 531 
L 3481 0 
L 794 0 
L 794 531 
z
" id="DejaVuSans-31" transform="scale(0.015625)"/>
       </defs>
       <use xlink:href="#DejaVuSans-32"/>
       <use x="63.623047" xlink:href="#DejaVuSans-30"/>
       <use x="127.246094" xlink:href="#DejaVuSans-32"/>
       <use x="190.869141" xlink:href="#DejaVuSans-30"/>
       <use x="254.492188" xlink:href="#DejaVuSans-2f"/>
       <use x="288.183594" xlink:href="#DejaVuSans-30"/>
       <use x="351.806641" xlink:href="#DejaVuSans-33"/>
       <use x="415.429688" xlink:href="#DejaVuSans-2f"/>
       <use x="449.121094" xlink:href="#DejaVuSans-31"/>
       <use x="512.744141" xlink:href="#DejaVuSans-31"/>
      </g>
     </g>
    </g>
    <g id="xtick_6">
     <g id="line2d_6">
      <g>
       <use style="stroke:#000000;stroke-width:0.8;" x="91.677925" xlink:href="#ma840430c0d" y="131.938266"/>
      </g>
     </g>
     <g id="text_6">
      <!-- 2020/03/12 -->
      <g transform="translate(77.254302 203.395976)rotate(-60)scale(0.12 -0.12)">
       <use xlink:href="#DejaVuSans-32"/>
       <use x="63.623047" xlink:href="#DejaVuSans-30"/>
       <use x="127.246094" xlink:href="#DejaVuSans-32"/>
       <use x="190.869141" xlink:href="#DejaVuSans-30"/>
       <use x="254.492188" xlink:href="#DejaVuSans-2f"/>
       <use x="288.183594" xlink:href="#DejaVuSans-30"/>
       <use x="351.806641" xlink:href="#DejaVuSans-33"/>
       <use x="415.429688" xlink:href="#DejaVuSans-2f"/>
       <use x="449.121094" xlink:href="#DejaVuSans-31"/>
       <use x="512.744141" xlink:href="#DejaVuSans-32"/>
      </g>
     </g>
    </g>
    <g id="xtick_7">
     <g id="line2d_7">
      <g>
       <use style="stroke:#000000;stroke-width:0.8;" x="99.74951" xlink:href="#ma840430c0d" y="131.938266"/>
      </g>
     </g>
     <g id="text_7">
      <!-- 2020/03/13 -->
      <g transform="translate(85.325887 203.395976)rotate(-60)scale(0.12 -0.12)">
       <use xlink:href="#DejaVuSans-32"/>
       <use x="63.623047" xlink:href="#DejaVuSans-30"/>
       <use x="127.246094" xlink:href="#DejaVuSans-32"/>
       <use x="190.869141" xlink:href="#DejaVuSans-30"/>
       <use x="254.492188" xlink:href="#DejaVuSans-2f"/>
       <use x="288.183594" xlink:href="#DejaVuSans-30"/>
       <use x="351.806641" xlink:href="#DejaVuSans-33"/>
       <use x="415.429688" xlink:href="#DejaVuSans-2f"/>
       <use x="449.121094" xlink:href="#DejaVuSans-31"/>
       <use x="512.744141" xlink:href="#DejaVuSans-33"/>
      </g>
     </g>
    </g>
    <g id="xtick_8">
     <g id="line2d_8">
      <g>
       <use style="stroke:#000000;stroke-width:0.8;" x="107.821095" xlink:href="#ma840430c0d" y="131.938266"/>
      </g>
     </g>
     <g id="text_8">
      <!-- 2020/03/14 -->
      <g transform="translate(93.397472 203.395976)rotate(-60)scale(0.12 -0.12)">
       <defs>
        <path d="M 2419 4116 
L 825 1625 
L 2419 1625 
L 2419 4116 
z
M 2253 4666 
L 3047 4666 
L 3047 1625 
L 3713 1625 
L 3713 1100 
L 3047 1100 
L 3047 0 
L 2419 0 
L 2419 1100 
L 313 1100 
L 313 1709 
L 2253 4666 
z
" id="DejaVuSans-34" transform="scale(0.015625)"/>
       </defs>
       <use xlink:href="#DejaVuSans-32"/>
       <use x="63.623047" xlink:href="#DejaVuSans-30"/>
       <use x="127.246094" xlink:href="#DejaVuSans-32"/>
       <use x="190.869141" xlink:href="#DejaVuSans-30"/>
       <use x="254.492188" xlink:href="#DejaVuSans-2f"/>
       <use x="288.183594" xlink:href="#DejaVuSans-30"/>
       <use x="351.806641" xlink:href="#DejaVuSans-33"/>
       <use x="415.429688" xlink:href="#DejaVuSans-2f"/>
       <use x="449.121094" xlink:href="#DejaVuSans-31"/>
       <use x="512.744141" xlink:href="#DejaVuSans-34"/>
      </g>
     </g>
    </g>
    <g id="xtick_9">
     <g id="line2d_9">
      <g>
       <use style="stroke:#000000;stroke-width:0.8;" x="115.89268" xlink:href="#ma840430c0d" y="131.938266"/>
      </g>
     </g>
     <g id="text_9">
      <!-- 2020/03/16 -->
      <g transform="translate(101.469057 203.395976)rotate(-60)scale(0.12 -0.12)">
       <use xlink:href="#DejaVuSans-32"/>
       <use x="63.623047" xlink:href="#DejaVuSans-30"/>
       <use x="127.246094" xlink:href="#DejaVuSans-32"/>
       <use x="190.869141" xlink:href="#DejaVuSans-30"/>
       <use x="254.492188" xlink:href="#DejaVuSans-2f"/>
       <use x="288.183594" xlink:href="#DejaVuSans-30"/>
       <use x="351.806641" xlink:href="#DejaVuSans-33"/>
       <use x="415.429688" xlink:href="#DejaVuSans-2f"/>
       <use x="449.121094" xlink:href="#DejaVuSans-31"/>
       <use x="512.744141" xlink:href="#DejaVuSans-36"/>
      </g>
     </g>
    </g>
    <g id="xtick_10">
     <g id="line2d_10">
      <g>
       <use style="stroke:#000000;stroke-width:0.8;" x="123.964265" xlink:href="#ma840430c0d" y="131.938266"/>
      </g>
     </g>
     <g id="text_10">
      <!-- 2020/03/17 -->
      <g transform="translate(109.540642 203.395976)rotate(-60)scale(0.12 -0.12)">
       <use xlink:href="#DejaVuSans-32"/>
       <use x="63.623047" xlink:href="#DejaVuSans-30"/>
       <use x="127.246094" xlink:href="#DejaVuSans-32"/>
       <use x="190.869141" xlink:href="#DejaVuSans-30"/>
       <use x="254.492188" xlink:href="#DejaVuSans-2f"/>
       <use x="288.183594" xlink:href="#DejaVuSans-30"/>
       <use x="351.806641" xlink:href="#DejaVuSans-33"/>
       <use x="415.429688" xlink:href="#DejaVuSans-2f"/>
       <use x="449.121094" xlink:href="#DejaVuSans-31"/>
       <use x="512.744141" xlink:href="#DejaVuSans-37"/>
      </g>
     </g>
    </g>
    <g id="xtick_11">
     <g id="line2d_11">
      <g>
       <use style="stroke:#000000;stroke-width:0.8;" x="132.03585" xlink:href="#ma840430c0d" y="131.938266"/>
      </g>
     </g>
     <g id="text_11">
      <!-- 2020/03/18 -->
      <g transform="translate(117.612227 203.395976)rotate(-60)scale(0.12 -0.12)">
       <use xlink:href="#DejaVuSans-32"/>
       <use x="63.623047" xlink:href="#DejaVuSans-30"/>
       <use x="127.246094" xlink:href="#DejaVuSans-32"/>
       <use x="190.869141" xlink:href="#DejaVuSans-30"/>
       <use x="254.492188" xlink:href="#DejaVuSans-2f"/>
       <use x="288.183594" xlink:href="#DejaVuSans-30"/>
       <use x="351.806641" xlink:href="#DejaVuSans-33"/>
       <use x="415.429688" xlink:href="#DejaVuSans-2f"/>
       <use x="449.121094" xlink:href="#DejaVuSans-31"/>
       <use x="512.744141" xlink:href="#DejaVuSans-38"/>
      </g>
     </g>
    </g>
    <g id="xtick_12">
     <g id="line2d_12">
      <g>
       <use style="stroke:#000000;stroke-width:0.8;" x="140.107435" xlink:href="#ma840430c0d" y="131.938266"/>
      </g>
     </g>
     <g id="text_12">
      <!-- 2020/03/19 -->
      <g transform="translate(125.683812 203.395976)rotate(-60)scale(0.12 -0.12)">
       <defs>
        <path d="M 703 97 
L 703 672 
Q 941 559 1184 500 
Q 1428 441 1663 441 
Q 2288 441 2617 861 
Q 2947 1281 2994 2138 
Q 2813 1869 2534 1725 
Q 2256 1581 1919 1581 
Q 1219 1581 811 2004 
Q 403 2428 403 3163 
Q 403 3881 828 4315 
Q 1253 4750 1959 4750 
Q 2769 4750 3195 4129 
Q 3622 3509 3622 2328 
Q 3622 1225 3098 567 
Q 2575 -91 1691 -91 
Q 1453 -91 1209 -44 
Q 966 3 703 97 
z
M 1959 2075 
Q 2384 2075 2632 2365 
Q 2881 2656 2881 3163 
Q 2881 3666 2632 3958 
Q 2384 4250 1959 4250 
Q 1534 4250 1286 3958 
Q 1038 3666 1038 3163 
Q 1038 2656 1286 2365 
Q 1534 2075 1959 2075 
z
" id="DejaVuSans-39" transform="scale(0.015625)"/>
       </defs>
       <use xlink:href="#DejaVuSans-32"/>
       <use x="63.623047" xlink:href="#DejaVuSans-30"/>
       <use x="127.246094" xlink:href="#DejaVuSans-32"/>
       <use x="190.869141" xlink:href="#DejaVuSans-30"/>
       <use x="254.492188" xlink:href="#DejaVuSans-2f"/>
       <use x="288.183594" xlink:href="#DejaVuSans-30"/>
       <use x="351.806641" xlink:href="#DejaVuSans-33"/>
       <use x="415.429688" xlink:href="#DejaVuSans-2f"/>
       <use x="449.121094" xlink:href="#DejaVuSans-31"/>
       <use x="512.744141" xlink:href="#DejaVuSans-39"/>
      </g>
     </g>
    </g>
    <g id="xtick_13">
     <g id="line2d_13">
      <g>
       <use style="stroke:#000000;stroke-width:0.8;" x="148.17902" xlink:href="#ma840430c0d" y="131.938266"/>
      </g>
     </g>
     <g id="text_13">
      <!-- 2020/03/20 -->
      <g transform="translate(133.755397 203.395976)rotate(-60)scale(0.12 -0.12)">
       <use xlink:href="#DejaVuSans-32"/>
       <use x="63.623047" xlink:href="#DejaVuSans-30"/>
       <use x="127.246094" xlink:href="#DejaVuSans-32"/>
       <use x="190.869141" xlink:href="#DejaVuSans-30"/>
       <use x="254.492188" xlink:href="#DejaVuSans-2f"/>
       <use x="288.183594" xlink:href="#DejaVuSans-30"/>
       <use x="351.806641" xlink:href="#DejaVuSans-33"/>
       <use x="415.429688" xlink:href="#DejaVuSans-2f"/>
       <use x="449.121094" xlink:href="#DejaVuSans-32"/>
       <use x="512.744141" xlink:href="#DejaVuSans-30"/>
      </g>
     </g>
    </g>
    <g id="xtick_14">
     <g id="line2d_14">
      <g>
       <use style="stroke:#000000;stroke-width:0.8;" x="156.250605" xlink:href="#ma840430c0d" y="131.938266"/>
      </g>
     </g>
     <g id="text_14">
      <!-- 2020/03/21 -->
      <g transform="translate(141.826982 203.395976)rotate(-60)scale(0.12 -0.12)">
       <use xlink:href="#DejaVuSans-32"/>
       <use x="63.623047" xlink:href="#DejaVuSans-30"/>
       <use x="127.246094" xlink:href="#DejaVuSans-32"/>
       <use x="190.869141" xlink:href="#DejaVuSans-30"/>
       <use x="254.492188" xlink:href="#DejaVuSans-2f"/>
       <use x="288.183594" xlink:href="#DejaVuSans-30"/>
       <use x="351.806641" xlink:href="#DejaVuSans-33"/>
       <use x="415.429688" xlink:href="#DejaVuSans-2f"/>
       <use x="449.121094" xlink:href="#DejaVuSans-32"/>
       <use x="512.744141" xlink:href="#DejaVuSans-31"/>
      </g>
     </g>
    </g>
    <g id="xtick_15">
     <g id="line2d_15">
      <g>
       <use style="stroke:#000000;stroke-width:0.8;" x="164.32219" xlink:href="#ma840430c0d" y="131.938266"/>
      </g>
     </g>
     <g id="text_15">
      <!-- 2020/03/22 -->
      <g transform="translate(149.898567 203.395976)rotate(-60)scale(0.12 -0.12)">
       <use xlink:href="#DejaVuSans-32"/>
       <use x="63.623047" xlink:href="#DejaVuSans-30"/>
       <use x="127.246094" xlink:href="#DejaVuSans-32"/>
       <use x="190.869141" xlink:href="#DejaVuSans-30"/>
       <use x="254.492188" xlink:href="#DejaVuSans-2f"/>
       <use x="288.183594" xlink:href="#DejaVuSans-30"/>
       <use x="351.806641" xlink:href="#DejaVuSans-33"/>
       <use x="415.429688" xlink:href="#DejaVuSans-2f"/>
       <use x="449.121094" xlink:href="#DejaVuSans-32"/>
       <use x="512.744141" xlink:href="#DejaVuSans-32"/>
      </g>
     </g>
    </g>
    <g id="xtick_16">
     <g id="line2d_16">
      <g>
       <use style="stroke:#000000;stroke-width:0.8;" x="172.393775" xlink:href="#ma840430c0d" y="131.938266"/>
      </g>
     </g>
     <g id="text_16">
      <!-- 2020/03/23 -->
      <g transform="translate(157.970152 203.395976)rotate(-60)scale(0.12 -0.12)">
       <use xlink:href="#DejaVuSans-32"/>
       <use x="63.623047" xlink:href="#DejaVuSans-30"/>
       <use x="127.246094" xlink:href="#DejaVuSans-32"/>
       <use x="190.869141" xlink:href="#DejaVuSans-30"/>
       <use x="254.492188" xlink:href="#DejaVuSans-2f"/>
       <use x="288.183594" xlink:href="#DejaVuSans-30"/>
       <use x="351.806641" xlink:href="#DejaVuSans-33"/>
       <use x="415.429688" xlink:href="#DejaVuSans-2f"/>
       <use x="449.121094" xlink:href="#DejaVuSans-32"/>
       <use x="512.744141" xlink:href="#DejaVuSans-33"/>
      </g>
     </g>
    </g>
    <g id="xtick_17">
     <g id="line2d_17">
      <g>
       <use style="stroke:#000000;stroke-width:0.8;" x="180.46536" xlink:href="#ma840430c0d" y="131.938266"/>
      </g>
     </g>
     <g id="text_17">
      <!-- 2020/03/24 -->
      <g transform="translate(166.041737 203.395976)rotate(-60)scale(0.12 -0.12)">
       <use xlink:href="#DejaVuSans-32"/>
       <use x="63.623047" xlink:href="#DejaVuSans-30"/>
       <use x="127.246094" xlink:href="#DejaVuSans-32"/>
       <use x="190.869141" xlink:href="#DejaVuSans-30"/>
       <use x="254.492188" xlink:href="#DejaVuSans-2f"/>
       <use x="288.183594" xlink:href="#DejaVuSans-30"/>
       <use x="351.806641" xlink:href="#DejaVuSans-33"/>
       <use x="415.429688" xlink:href="#DejaVuSans-2f"/>
       <use x="449.121094" xlink:href="#DejaVuSans-32"/>
       <use x="512.744141" xlink:href="#DejaVuSans-34"/>
      </g>
     </g>
    </g>
    <g id="xtick_18">
     <g id="line2d_18">
      <g>
       <use style="stroke:#000000;stroke-width:0.8;" x="188.536945" xlink:href="#ma840430c0d" y="131.938266"/>
      </g>
     </g>
     <g id="text_18">
      <!-- 2020/03/25 -->
      <g transform="translate(174.113322 203.395976)rotate(-60)scale(0.12 -0.12)">
       <use xlink:href="#DejaVuSans-32"/>
       <use x="63.623047" xlink:href="#DejaVuSans-30"/>
       <use x="127.246094" xlink:href="#DejaVuSans-32"/>
       <use x="190.869141" xlink:href="#DejaVuSans-30"/>
       <use x="254.492188" xlink:href="#DejaVuSans-2f"/>
       <use x="288.183594" xlink:href="#DejaVuSans-30"/>
       <use x="351.806641" xlink:href="#DejaVuSans-33"/>
       <use x="415.429688" xlink:href="#DejaVuSans-2f"/>
       <use x="449.121094" xlink:href="#DejaVuSans-32"/>
       <use x="512.744141" xlink:href="#DejaVuSans-35"/>
      </g>
     </g>
    </g>
    <g id="xtick_19">
     <g id="line2d_19">
      <g>
       <use style="stroke:#000000;stroke-width:0.8;" x="196.60853" xlink:href="#ma840430c0d" y="131.938266"/>
      </g>
     </g>
     <g id="text_19">
      <!-- 2020/03/26 -->
      <g transform="translate(182.184907 203.395976)rotate(-60)scale(0.12 -0.12)">
       <use xlink:href="#DejaVuSans-32"/>
       <use x="63.623047" xlink:href="#DejaVuSans-30"/>
       <use x="127.246094" xlink:href="#DejaVuSans-32"/>
       <use x="190.869141" xlink:href="#DejaVuSans-30"/>
       <use x="254.492188" xlink:href="#DejaVuSans-2f"/>
       <use x="288.183594" xlink:href="#DejaVuSans-30"/>
       <use x="351.806641" xlink:href="#DejaVuSans-33"/>
       <use x="415.429688" xlink:href="#DejaVuSans-2f"/>
       <use x="449.121094" xlink:href="#DejaVuSans-32"/>
       <use x="512.744141" xlink:href="#DejaVuSans-36"/>
      </g>
     </g>
    </g>
    <g id="xtick_20">
     <g id="line2d_20">
      <g>
       <use style="stroke:#000000;stroke-width:0.8;" x="204.680115" xlink:href="#ma840430c0d" y="131.938266"/>
      </g>
     </g>
     <g id="text_20">
      <!-- 2020/03/27 -->
      <g transform="translate(190.256492 203.395976)rotate(-60)scale(0.12 -0.12)">
       <use xlink:href="#DejaVuSans-32"/>
       <use x="63.623047" xlink:href="#DejaVuSans-30"/>
       <use x="127.246094" xlink:href="#DejaVuSans-32"/>
       <use x="190.869141" xlink:href="#DejaVuSans-30"/>
       <use x="254.492188" xlink:href="#DejaVuSans-2f"/>
       <use x="288.183594" xlink:href="#DejaVuSans-30"/>
       <use x="351.806641" xlink:href="#DejaVuSans-33"/>
       <use x="415.429688" xlink:href="#DejaVuSans-2f"/>
       <use x="449.121094" xlink:href="#DejaVuSans-32"/>
       <use x="512.744141" xlink:href="#DejaVuSans-37"/>
      </g>
     </g>
    </g>
    <g id="xtick_21">
     <g id="line2d_21">
      <g>
       <use style="stroke:#000000;stroke-width:0.8;" x="212.7517" xlink:href="#ma840430c0d" y="131.938266"/>
      </g>
     </g>
     <g id="text_21">
      <!-- 2020/03/28 -->
      <g transform="translate(198.328077 203.395976)rotate(-60)scale(0.12 -0.12)">
       <use xlink:href="#DejaVuSans-32"/>
       <use x="63.623047" xlink:href="#DejaVuSans-30"/>
       <use x="127.246094" xlink:href="#DejaVuSans-32"/>
       <use x="190.869141" xlink:href="#DejaVuSans-30"/>
       <use x="254.492188" xlink:href="#DejaVuSans-2f"/>
       <use x="288.183594" xlink:href="#DejaVuSans-30"/>
       <use x="351.806641" xlink:href="#DejaVuSans-33"/>
       <use x="415.429688" xlink:href="#DejaVuSans-2f"/>
       <use x="449.121094" xlink:href="#DejaVuSans-32"/>
       <use x="512.744141" xlink:href="#DejaVuSans-38"/>
      </g>
     </g>
    </g>
    <g id="xtick_22">
     <g id="line2d_22">
      <g>
       <use style="stroke:#000000;stroke-width:0.8;" x="220.823285" xlink:href="#ma840430c0d" y="131.938266"/>
      </g>
     </g>
     <g id="text_22">
      <!-- 2020/03/30 -->
      <g transform="translate(206.399662 203.395976)rotate(-60)scale(0.12 -0.12)">
       <use xlink:href="#DejaVuSans-32"/>
       <use x="63.623047" xlink:href="#DejaVuSans-30"/>
       <use x="127.246094" xlink:href="#DejaVuSans-32"/>
       <use x="190.869141" xlink:href="#DejaVuSans-30"/>
       <use x="254.492188" xlink:href="#DejaVuSans-2f"/>
       <use x="288.183594" xlink:href="#DejaVuSans-30"/>
       <use x="351.806641" xlink:href="#DejaVuSans-33"/>
       <use x="415.429688" xlink:href="#DejaVuSans-2f"/>
       <use x="449.121094" xlink:href="#DejaVuSans-33"/>
       <use x="512.744141" xlink:href="#DejaVuSans-30"/>
      </g>
     </g>
    </g>
    <g id="xtick_23">
     <g id="line2d_23">
      <g>
       <use style="stroke:#000000;stroke-width:0.8;" x="228.89487" xlink:href="#ma840430c0d" y="131.938266"/>
      </g>
     </g>
     <g id="text_23">
      <!-- 2020/03/31 -->
      <g transform="translate(214.471247 203.395976)rotate(-60)scale(0.12 -0.12)">
       <use xlink:href="#DejaVuSans-32"/>
       <use x="63.623047" xlink:href="#DejaVuSans-30"/>
       <use x="127.246094" xlink:href="#DejaVuSans-32"/>
       <use x="190.869141" xlink:href="#DejaVuSans-30"/>
       <use x="254.492188" xlink:href="#DejaVuSans-2f"/>
       <use x="288.183594" xlink:href="#DejaVuSans-30"/>
       <use x="351.806641" xlink:href="#DejaVuSans-33"/>
       <use x="415.429688" xlink:href="#DejaVuSans-2f"/>
       <use x="449.121094" xlink:href="#DejaVuSans-33"/>
       <use x="512.744141" xlink:href="#DejaVuSans-31"/>
      </g>
     </g>
    </g>
    <g id="xtick_24">
     <g id="line2d_24">
      <g>
       <use style="stroke:#000000;stroke-width:0.8;" x="236.966455" xlink:href="#ma840430c0d" y="131.938266"/>
      </g>
     </g>
     <g id="text_24">
      <!-- 2020/04/01 -->
      <g transform="translate(222.542832 203.395976)rotate(-60)scale(0.12 -0.12)">
       <use xlink:href="#DejaVuSans-32"/>
       <use x="63.623047" xlink:href="#DejaVuSans-30"/>
       <use x="127.246094" xlink:href="#DejaVuSans-32"/>
       <use x="190.869141" xlink:href="#DejaVuSans-30"/>
       <use x="254.492188" xlink:href="#DejaVuSans-2f"/>
       <use x="288.183594" xlink:href="#DejaVuSans-30"/>
       <use x="351.806641" xlink:href="#DejaVuSans-34"/>
       <use x="415.429688" xlink:href="#DejaVuSans-2f"/>
       <use x="449.121094" xlink:href="#DejaVuSans-30"/>
       <use x="512.744141" xlink:href="#DejaVuSans-31"/>
      </g>
     </g>
    </g>
    <g id="xtick_25">
     <g id="line2d_25">
      <g>
       <use style="stroke:#000000;stroke-width:0.8;" x="245.03804" xlink:href="#ma840430c0d" y="131.938266"/>
      </g>
     </g>
     <g id="text_25">
      <!-- 2020/04/02 -->
      <g transform="translate(230.614417 203.395976)rotate(-60)scale(0.12 -0.12)">
       <use xlink:href="#DejaVuSans-32"/>
       <use x="63.623047" xlink:href="#DejaVuSans-30"/>
       <use x="127.246094" xlink:href="#DejaVuSans-32"/>
       <use x="190.869141" xlink:href="#DejaVuSans-30"/>
       <use x="254.492188" xlink:href="#DejaVuSans-2f"/>
       <use x="288.183594" xlink:href="#DejaVuSans-30"/>
       <use x="351.806641" xlink:href="#DejaVuSans-34"/>
       <use x="415.429688" xlink:href="#DejaVuSans-2f"/>
       <use x="449.121094" xlink:href="#DejaVuSans-30"/>
       <use x="512.744141" xlink:href="#DejaVuSans-32"/>
      </g>
     </g>
    </g>
    <g id="xtick_26">
     <g id="line2d_26">
      <g>
       <use style="stroke:#000000;stroke-width:0.8;" x="253.109625" xlink:href="#ma840430c0d" y="131.938266"/>
      </g>
     </g>
     <g id="text_26">
      <!-- 2020/04/03 -->
      <g transform="translate(238.686002 203.395976)rotate(-60)scale(0.12 -0.12)">
       <use xlink:href="#DejaVuSans-32"/>
       <use x="63.623047" xlink:href="#DejaVuSans-30"/>
       <use x="127.246094" xlink:href="#DejaVuSans-32"/>
       <use x="190.869141" xlink:href="#DejaVuSans-30"/>
       <use x="254.492188" xlink:href="#DejaVuSans-2f"/>
       <use x="288.183594" xlink:href="#DejaVuSans-30"/>
       <use x="351.806641" xlink:href="#DejaVuSans-34"/>
       <use x="415.429688" xlink:href="#DejaVuSans-2f"/>
       <use x="449.121094" xlink:href="#DejaVuSans-30"/>
       <use x="512.744141" xlink:href="#DejaVuSans-33"/>
      </g>
     </g>
    </g>
    <g id="xtick_27">
     <g id="line2d_27">
      <g>
       <use style="stroke:#000000;stroke-width:0.8;" x="261.18121" xlink:href="#ma840430c0d" y="131.938266"/>
      </g>
     </g>
     <g id="text_27">
      <!-- 2020/04/04 -->
      <g transform="translate(246.757587 203.395976)rotate(-60)scale(0.12 -0.12)">
       <use xlink:href="#DejaVuSans-32"/>
       <use x="63.623047" xlink:href="#DejaVuSans-30"/>
       <use x="127.246094" xlink:href="#DejaVuSans-32"/>
       <use x="190.869141" xlink:href="#DejaVuSans-30"/>
       <use x="254.492188" xlink:href="#DejaVuSans-2f"/>
       <use x="288.183594" xlink:href="#DejaVuSans-30"/>
       <use x="351.806641" xlink:href="#DejaVuSans-34"/>
       <use x="415.429688" xlink:href="#DejaVuSans-2f"/>
       <use x="449.121094" xlink:href="#DejaVuSans-30"/>
       <use x="512.744141" xlink:href="#DejaVuSans-34"/>
      </g>
     </g>
    </g>
    <g id="xtick_28">
     <g id="line2d_28">
      <g>
       <use style="stroke:#000000;stroke-width:0.8;" x="269.252795" xlink:href="#ma840430c0d" y="131.938266"/>
      </g>
     </g>
     <g id="text_28">
      <!-- 2020/04/05 -->
      <g transform="translate(254.829172 203.395976)rotate(-60)scale(0.12 -0.12)">
       <use xlink:href="#DejaVuSans-32"/>
       <use x="63.623047" xlink:href="#DejaVuSans-30"/>
       <use x="127.246094" xlink:href="#DejaVuSans-32"/>
       <use x="190.869141" xlink:href="#DejaVuSans-30"/>
       <use x="254.492188" xlink:href="#DejaVuSans-2f"/>
       <use x="288.183594" xlink:href="#DejaVuSans-30"/>
       <use x="351.806641" xlink:href="#DejaVuSans-34"/>
       <use x="415.429688" xlink:href="#DejaVuSans-2f"/>
       <use x="449.121094" xlink:href="#DejaVuSans-30"/>
       <use x="512.744141" xlink:href="#DejaVuSans-35"/>
      </g>
     </g>
    </g>
    <g id="xtick_29">
     <g id="line2d_29">
      <g>
       <use style="stroke:#000000;stroke-width:0.8;" x="277.32438" xlink:href="#ma840430c0d" y="131.938266"/>
      </g>
     </g>
     <g id="text_29">
      <!-- 2020/04/06 -->
      <g transform="translate(262.900757 203.395976)rotate(-60)scale(0.12 -0.12)">
       <use xlink:href="#DejaVuSans-32"/>
       <use x="63.623047" xlink:href="#DejaVuSans-30"/>
       <use x="127.246094" xlink:href="#DejaVuSans-32"/>
       <use x="190.869141" xlink:href="#DejaVuSans-30"/>
       <use x="254.492188" xlink:href="#DejaVuSans-2f"/>
       <use x="288.183594" xlink:href="#DejaVuSans-30"/>
       <use x="351.806641" xlink:href="#DejaVuSans-34"/>
       <use x="415.429688" xlink:href="#DejaVuSans-2f"/>
       <use x="449.121094" xlink:href="#DejaVuSans-30"/>
       <use x="512.744141" xlink:href="#DejaVuSans-36"/>
      </g>
     </g>
    </g>
    <g id="xtick_30">
     <g id="line2d_30">
      <g>
       <use style="stroke:#000000;stroke-width:0.8;" x="285.395965" xlink:href="#ma840430c0d" y="131.938266"/>
      </g>
     </g>
     <g id="text_30">
      <!-- 2020/04/07 -->
      <g transform="translate(270.972342 203.395976)rotate(-60)scale(0.12 -0.12)">
       <use xlink:href="#DejaVuSans-32"/>
       <use x="63.623047" xlink:href="#DejaVuSans-30"/>
       <use x="127.246094" xlink:href="#DejaVuSans-32"/>
       <use x="190.869141" xlink:href="#DejaVuSans-30"/>
       <use x="254.492188" xlink:href="#DejaVuSans-2f"/>
       <use x="288.183594" xlink:href="#DejaVuSans-30"/>
       <use x="351.806641" xlink:href="#DejaVuSans-34"/>
       <use x="415.429688" xlink:href="#DejaVuSans-2f"/>
       <use x="449.121094" xlink:href="#DejaVuSans-30"/>
       <use x="512.744141" xlink:href="#DejaVuSans-37"/>
      </g>
     </g>
    </g>
    <g id="xtick_31">
     <g id="line2d_31">
      <g>
       <use style="stroke:#000000;stroke-width:0.8;" x="293.46755" xlink:href="#ma840430c0d" y="131.938266"/>
      </g>
     </g>
     <g id="text_31">
      <!-- 2020/04/08 -->
      <g transform="translate(279.043927 203.395976)rotate(-60)scale(0.12 -0.12)">
       <use xlink:href="#DejaVuSans-32"/>
       <use x="63.623047" xlink:href="#DejaVuSans-30"/>
       <use x="127.246094" xlink:href="#DejaVuSans-32"/>
       <use x="190.869141" xlink:href="#DejaVuSans-30"/>
       <use x="254.492188" xlink:href="#DejaVuSans-2f"/>
       <use x="288.183594" xlink:href="#DejaVuSans-30"/>
       <use x="351.806641" xlink:href="#DejaVuSans-34"/>
       <use x="415.429688" xlink:href="#DejaVuSans-2f"/>
       <use x="449.121094" xlink:href="#DejaVuSans-30"/>
       <use x="512.744141" xlink:href="#DejaVuSans-38"/>
      </g>
     </g>
    </g>
    <g id="xtick_32">
     <g id="line2d_32">
      <g>
       <use style="stroke:#000000;stroke-width:0.8;" x="301.539135" xlink:href="#ma840430c0d" y="131.938266"/>
      </g>
     </g>
     <g id="text_32">
      <!-- 2020/04/10 -->
      <g transform="translate(287.115512 203.395976)rotate(-60)scale(0.12 -0.12)">
       <use xlink:href="#DejaVuSans-32"/>
       <use x="63.623047" xlink:href="#DejaVuSans-30"/>
       <use x="127.246094" xlink:href="#DejaVuSans-32"/>
       <use x="190.869141" xlink:href="#DejaVuSans-30"/>
       <use x="254.492188" xlink:href="#DejaVuSans-2f"/>
       <use x="288.183594" xlink:href="#DejaVuSans-30"/>
       <use x="351.806641" xlink:href="#DejaVuSans-34"/>
       <use x="415.429688" xlink:href="#DejaVuSans-2f"/>
       <use x="449.121094" xlink:href="#DejaVuSans-31"/>
       <use x="512.744141" xlink:href="#DejaVuSans-30"/>
      </g>
     </g>
    </g>
    <g id="xtick_33">
     <g id="line2d_33">
      <g>
       <use style="stroke:#000000;stroke-width:0.8;" x="309.61072" xlink:href="#ma840430c0d" y="131.938266"/>
      </g>
     </g>
     <g id="text_33">
      <!-- 2020/04/13 -->
      <g transform="translate(295.187097 203.395976)rotate(-60)scale(0.12 -0.12)">
       <use xlink:href="#DejaVuSans-32"/>
       <use x="63.623047" xlink:href="#DejaVuSans-30"/>
       <use x="127.246094" xlink:href="#DejaVuSans-32"/>
       <use x="190.869141" xlink:href="#DejaVuSans-30"/>
       <use x="254.492188" xlink:href="#DejaVuSans-2f"/>
       <use x="288.183594" xlink:href="#DejaVuSans-30"/>
       <use x="351.806641" xlink:href="#DejaVuSans-34"/>
       <use x="415.429688" xlink:href="#DejaVuSans-2f"/>
       <use x="449.121094" xlink:href="#DejaVuSans-31"/>
       <use x="512.744141" xlink:href="#DejaVuSans-33"/>
      </g>
     </g>
    </g>
    <g id="xtick_34">
     <g id="line2d_34">
      <g>
       <use style="stroke:#000000;stroke-width:0.8;" x="317.682305" xlink:href="#ma840430c0d" y="131.938266"/>
      </g>
     </g>
     <g id="text_34">
      <!-- 2020/04/14 -->
      <g transform="translate(303.258682 203.395976)rotate(-60)scale(0.12 -0.12)">
       <use xlink:href="#DejaVuSans-32"/>
       <use x="63.623047" xlink:href="#DejaVuSans-30"/>
       <use x="127.246094" xlink:href="#DejaVuSans-32"/>
       <use x="190.869141" xlink:href="#DejaVuSans-30"/>
       <use x="254.492188" xlink:href="#DejaVuSans-2f"/>
       <use x="288.183594" xlink:href="#DejaVuSans-30"/>
       <use x="351.806641" xlink:href="#DejaVuSans-34"/>
       <use x="415.429688" xlink:href="#DejaVuSans-2f"/>
       <use x="449.121094" xlink:href="#DejaVuSans-31"/>
       <use x="512.744141" xlink:href="#DejaVuSans-34"/>
      </g>
     </g>
    </g>
    <g id="xtick_35">
     <g id="line2d_35">
      <g>
       <use style="stroke:#000000;stroke-width:0.8;" x="325.75389" xlink:href="#ma840430c0d" y="131.938266"/>
      </g>
     </g>
     <g id="text_35">
      <!-- 2020/04/18 -->
      <g transform="translate(311.330267 203.395976)rotate(-60)scale(0.12 -0.12)">
       <use xlink:href="#DejaVuSans-32"/>
       <use x="63.623047" xlink:href="#DejaVuSans-30"/>
       <use x="127.246094" xlink:href="#DejaVuSans-32"/>
       <use x="190.869141" xlink:href="#DejaVuSans-30"/>
       <use x="254.492188" xlink:href="#DejaVuSans-2f"/>
       <use x="288.183594" xlink:href="#DejaVuSans-30"/>
       <use x="351.806641" xlink:href="#DejaVuSans-34"/>
       <use x="415.429688" xlink:href="#DejaVuSans-2f"/>
       <use x="449.121094" xlink:href="#DejaVuSans-31"/>
       <use x="512.744141" xlink:href="#DejaVuSans-38"/>
      </g>
     </g>
    </g>
    <g id="xtick_36">
     <g id="line2d_36">
      <g>
       <use style="stroke:#000000;stroke-width:0.8;" x="333.825475" xlink:href="#ma840430c0d" y="131.938266"/>
      </g>
     </g>
     <g id="text_36">
      <!-- 2020/04/20 -->
      <g transform="translate(319.401852 203.395976)rotate(-60)scale(0.12 -0.12)">
       <use xlink:href="#DejaVuSans-32"/>
       <use x="63.623047" xlink:href="#DejaVuSans-30"/>
       <use x="127.246094" xlink:href="#DejaVuSans-32"/>
       <use x="190.869141" xlink:href="#DejaVuSans-30"/>
       <use x="254.492188" xlink:href="#DejaVuSans-2f"/>
       <use x="288.183594" xlink:href="#DejaVuSans-30"/>
       <use x="351.806641" xlink:href="#DejaVuSans-34"/>
       <use x="415.429688" xlink:href="#DejaVuSans-2f"/>
       <use x="449.121094" xlink:href="#DejaVuSans-32"/>
       <use x="512.744141" xlink:href="#DejaVuSans-30"/>
      </g>
     </g>
    </g>
    <g id="xtick_37">
     <g id="line2d_37">
      <g>
       <use style="stroke:#000000;stroke-width:0.8;" x="341.89706" xlink:href="#ma840430c0d" y="131.938266"/>
      </g>
     </g>
     <g id="text_37">
      <!-- 2020/04/21 -->
      <g transform="translate(327.473437 203.395976)rotate(-60)scale(0.12 -0.12)">
       <use xlink:href="#DejaVuSans-32"/>
       <use x="63.623047" xlink:href="#DejaVuSans-30"/>
       <use x="127.246094" xlink:href="#DejaVuSans-32"/>
       <use x="190.869141" xlink:href="#DejaVuSans-30"/>
       <use x="254.492188" xlink:href="#DejaVuSans-2f"/>
       <use x="288.183594" xlink:href="#DejaVuSans-30"/>
       <use x="351.806641" xlink:href="#DejaVuSans-34"/>
       <use x="415.429688" xlink:href="#DejaVuSans-2f"/>
       <use x="449.121094" xlink:href="#DejaVuSans-32"/>
       <use x="512.744141" xlink:href="#DejaVuSans-31"/>
      </g>
     </g>
    </g>
    <g id="xtick_38">
     <g id="line2d_38">
      <g>
       <use style="stroke:#000000;stroke-width:0.8;" x="349.968645" xlink:href="#ma840430c0d" y="131.938266"/>
      </g>
     </g>
     <g id="text_38">
      <!-- 2020/04/27 -->
      <g transform="translate(335.545022 203.395976)rotate(-60)scale(0.12 -0.12)">
       <use xlink:href="#DejaVuSans-32"/>
       <use x="63.623047" xlink:href="#DejaVuSans-30"/>
       <use x="127.246094" xlink:href="#DejaVuSans-32"/>
       <use x="190.869141" xlink:href="#DejaVuSans-30"/>
       <use x="254.492188" xlink:href="#DejaVuSans-2f"/>
       <use x="288.183594" xlink:href="#DejaVuSans-30"/>
       <use x="351.806641" xlink:href="#DejaVuSans-34"/>
       <use x="415.429688" xlink:href="#DejaVuSans-2f"/>
       <use x="449.121094" xlink:href="#DejaVuSans-32"/>
       <use x="512.744141" xlink:href="#DejaVuSans-37"/>
      </g>
     </g>
    </g>
    <g id="xtick_39">
     <g id="line2d_39">
      <g>
       <use style="stroke:#000000;stroke-width:0.8;" x="358.04023" xlink:href="#ma840430c0d" y="131.938266"/>
      </g>
     </g>
     <g id="text_39">
      <!-- 2020/04/30 -->
      <g transform="translate(343.616607 203.395976)rotate(-60)scale(0.12 -0.12)">
       <use xlink:href="#DejaVuSans-32"/>
       <use x="63.623047" xlink:href="#DejaVuSans-30"/>
       <use x="127.246094" xlink:href="#DejaVuSans-32"/>
       <use x="190.869141" xlink:href="#DejaVuSans-30"/>
       <use x="254.492188" xlink:href="#DejaVuSans-2f"/>
       <use x="288.183594" xlink:href="#DejaVuSans-30"/>
       <use x="351.806641" xlink:href="#DejaVuSans-34"/>
       <use x="415.429688" xlink:href="#DejaVuSans-2f"/>
       <use x="449.121094" xlink:href="#DejaVuSans-33"/>
       <use x="512.744141" xlink:href="#DejaVuSans-30"/>
      </g>
     </g>
    </g>
    <g id="xtick_40">
     <g id="line2d_40">
      <g>
       <use style="stroke:#000000;stroke-width:0.8;" x="366.111815" xlink:href="#ma840430c0d" y="131.938266"/>
      </g>
     </g>
     <g id="text_40">
      <!-- 2020/05/05 -->
      <g transform="translate(351.688192 203.395976)rotate(-60)scale(0.12 -0.12)">
       <use xlink:href="#DejaVuSans-32"/>
       <use x="63.623047" xlink:href="#DejaVuSans-30"/>
       <use x="127.246094" xlink:href="#DejaVuSans-32"/>
       <use x="190.869141" xlink:href="#DejaVuSans-30"/>
       <use x="254.492188" xlink:href="#DejaVuSans-2f"/>
       <use x="288.183594" xlink:href="#DejaVuSans-30"/>
       <use x="351.806641" xlink:href="#DejaVuSans-35"/>
       <use x="415.429688" xlink:href="#DejaVuSans-2f"/>
       <use x="449.121094" xlink:href="#DejaVuSans-30"/>
       <use x="512.744141" xlink:href="#DejaVuSans-35"/>
      </g>
     </g>
    </g>
    <g id="xtick_41">
     <g id="line2d_41">
      <g>
       <use style="stroke:#000000;stroke-width:0.8;" x="374.1834" xlink:href="#ma840430c0d" y="131.938266"/>
      </g>
     </g>
     <g id="text_41">
      <!-- 2020/05/06 -->
      <g transform="translate(359.759777 203.395976)rotate(-60)scale(0.12 -0.12)">
       <use xlink:href="#DejaVuSans-32"/>
       <use x="63.623047" xlink:href="#DejaVuSans-30"/>
       <use x="127.246094" xlink:href="#DejaVuSans-32"/>
       <use x="190.869141" xlink:href="#DejaVuSans-30"/>
       <use x="254.492188" xlink:href="#DejaVuSans-2f"/>
       <use x="288.183594" xlink:href="#DejaVuSans-30"/>
       <use x="351.806641" xlink:href="#DejaVuSans-35"/>
       <use x="415.429688" xlink:href="#DejaVuSans-2f"/>
       <use x="449.121094" xlink:href="#DejaVuSans-30"/>
       <use x="512.744141" xlink:href="#DejaVuSans-36"/>
      </g>
     </g>
    </g>
    <g id="xtick_42">
     <g id="line2d_42">
      <g>
       <use style="stroke:#000000;stroke-width:0.8;" x="382.254985" xlink:href="#ma840430c0d" y="131.938266"/>
      </g>
     </g>
     <g id="text_42">
      <!-- 2020/05/07 -->
      <g transform="translate(367.831362 203.395976)rotate(-60)scale(0.12 -0.12)">
       <use xlink:href="#DejaVuSans-32"/>
       <use x="63.623047" xlink:href="#DejaVuSans-30"/>
       <use x="127.246094" xlink:href="#DejaVuSans-32"/>
       <use x="190.869141" xlink:href="#DejaVuSans-30"/>
       <use x="254.492188" xlink:href="#DejaVuSans-2f"/>
       <use x="288.183594" xlink:href="#DejaVuSans-30"/>
       <use x="351.806641" xlink:href="#DejaVuSans-35"/>
       <use x="415.429688" xlink:href="#DejaVuSans-2f"/>
       <use x="449.121094" xlink:href="#DejaVuSans-30"/>
       <use x="512.744141" xlink:href="#DejaVuSans-37"/>
      </g>
     </g>
    </g>
    <g id="xtick_43">
     <g id="line2d_43">
      <g>
       <use style="stroke:#000000;stroke-width:0.8;" x="390.32657" xlink:href="#ma840430c0d" y="131.938266"/>
      </g>
     </g>
     <g id="text_43">
      <!-- 2020/05/15 -->
      <g transform="translate(375.902947 203.395976)rotate(-60)scale(0.12 -0.12)">
       <use xlink:href="#DejaVuSans-32"/>
       <use x="63.623047" xlink:href="#DejaVuSans-30"/>
       <use x="127.246094" xlink:href="#DejaVuSans-32"/>
       <use x="190.869141" xlink:href="#DejaVuSans-30"/>
       <use x="254.492188" xlink:href="#DejaVuSans-2f"/>
       <use x="288.183594" xlink:href="#DejaVuSans-30"/>
       <use x="351.806641" xlink:href="#DejaVuSans-35"/>
       <use x="415.429688" xlink:href="#DejaVuSans-2f"/>
       <use x="449.121094" xlink:href="#DejaVuSans-31"/>
       <use x="512.744141" xlink:href="#DejaVuSans-35"/>
      </g>
     </g>
    </g>
    <g id="xtick_44">
     <g id="line2d_44">
      <g>
       <use style="stroke:#000000;stroke-width:0.8;" x="398.398155" xlink:href="#ma840430c0d" y="131.938266"/>
      </g>
     </g>
     <g id="text_44">
      <!-- 2020/06/08 -->
      <g transform="translate(383.974532 203.395976)rotate(-60)scale(0.12 -0.12)">
       <use xlink:href="#DejaVuSans-32"/>
       <use x="63.623047" xlink:href="#DejaVuSans-30"/>
       <use x="127.246094" xlink:href="#DejaVuSans-32"/>
       <use x="190.869141" xlink:href="#DejaVuSans-30"/>
       <use x="254.492188" xlink:href="#DejaVuSans-2f"/>
       <use x="288.183594" xlink:href="#DejaVuSans-30"/>
       <use x="351.806641" xlink:href="#DejaVuSans-36"/>
       <use x="415.429688" xlink:href="#DejaVuSans-2f"/>
       <use x="449.121094" xlink:href="#DejaVuSans-30"/>
       <use x="512.744141" xlink:href="#DejaVuSans-38"/>
      </g>
     </g>
    </g>
   </g>
   <g id="matplotlib.axis_2">
    <g id="ytick_1">
     <g id="line2d_45">
      <defs>
       <path d="M 0 0 
L -3.5 0 
" id="m0de73a8bde" style="stroke:#000000;stroke-width:0.8;"/>
      </defs>
      <g>
       <use style="stroke:#000000;stroke-width:0.8;" x="51.32" xlink:href="#m0de73a8bde" y="126.431982"/>
      </g>
     </g>
     <g id="text_45">
      <!-- 0.0 -->
      <g transform="translate(28.416875 130.2312)scale(0.1 -0.1)">
       <defs>
        <path d="M 684 794 
L 1344 794 
L 1344 0 
L 684 0 
L 684 794 
z
" id="DejaVuSans-2e" transform="scale(0.015625)"/>
       </defs>
       <use xlink:href="#DejaVuSans-30"/>
       <use x="63.623047" xlink:href="#DejaVuSans-2e"/>
       <use x="95.410156" xlink:href="#DejaVuSans-30"/>
      </g>
     </g>
    </g>
    <g id="ytick_2">
     <g id="line2d_46">
      <g>
       <use style="stroke:#000000;stroke-width:0.8;" x="51.32" xlink:href="#m0de73a8bde" y="71.369133"/>
      </g>
     </g>
     <g id="text_46">
      <!-- 0.5 -->
      <g transform="translate(28.416875 75.168352)scale(0.1 -0.1)">
       <use xlink:href="#DejaVuSans-30"/>
       <use x="63.623047" xlink:href="#DejaVuSans-2e"/>
       <use x="95.410156" xlink:href="#DejaVuSans-35"/>
      </g>
     </g>
    </g>
    <g id="ytick_3">
     <g id="line2d_47">
      <g>
       <use style="stroke:#000000;stroke-width:0.8;" x="51.32" xlink:href="#m0de73a8bde" y="16.306285"/>
      </g>
     </g>
     <g id="text_47">
      <!-- 1.0 -->
      <g transform="translate(28.416875 20.105504)scale(0.1 -0.1)">
       <use xlink:href="#DejaVuSans-31"/>
       <use x="63.623047" xlink:href="#DejaVuSans-2e"/>
       <use x="95.410156" xlink:href="#DejaVuSans-30"/>
      </g>
     </g>
    </g>
    <g id="text_48">
     <!-- Intersection rate -->
     <g transform="translate(21.505313 129.453821)rotate(-90)scale(0.14 -0.14)">
      <defs>
       <path d="M 628 4666 
L 1259 4666 
L 1259 0 
L 628 0 
L 628 4666 
z
" id="DejaVuSans-49" transform="scale(0.015625)"/>
       <path d="M 3513 2113 
L 3513 0 
L 2938 0 
L 2938 2094 
Q 2938 2591 2744 2837 
Q 2550 3084 2163 3084 
Q 1697 3084 1428 2787 
Q 1159 2491 1159 1978 
L 1159 0 
L 581 0 
L 581 3500 
L 1159 3500 
L 1159 2956 
Q 1366 3272 1645 3428 
Q 1925 3584 2291 3584 
Q 2894 3584 3203 3211 
Q 3513 2838 3513 2113 
z
" id="DejaVuSans-6e" transform="scale(0.015625)"/>
       <path d="M 1172 4494 
L 1172 3500 
L 2356 3500 
L 2356 3053 
L 1172 3053 
L 1172 1153 
Q 1172 725 1289 603 
Q 1406 481 1766 481 
L 2356 481 
L 2356 0 
L 1766 0 
Q 1100 0 847 248 
Q 594 497 594 1153 
L 594 3053 
L 172 3053 
L 172 3500 
L 594 3500 
L 594 4494 
L 1172 4494 
z
" id="DejaVuSans-74" transform="scale(0.015625)"/>
       <path d="M 3597 1894 
L 3597 1613 
L 953 1613 
Q 991 1019 1311 708 
Q 1631 397 2203 397 
Q 2534 397 2845 478 
Q 3156 559 3463 722 
L 3463 178 
Q 3153 47 2828 -22 
Q 2503 -91 2169 -91 
Q 1331 -91 842 396 
Q 353 884 353 1716 
Q 353 2575 817 3079 
Q 1281 3584 2069 3584 
Q 2775 3584 3186 3129 
Q 3597 2675 3597 1894 
z
M 3022 2063 
Q 3016 2534 2758 2815 
Q 2500 3097 2075 3097 
Q 1594 3097 1305 2825 
Q 1016 2553 972 2059 
L 3022 2063 
z
" id="DejaVuSans-65" transform="scale(0.015625)"/>
       <path d="M 2631 2963 
Q 2534 3019 2420 3045 
Q 2306 3072 2169 3072 
Q 1681 3072 1420 2755 
Q 1159 2438 1159 1844 
L 1159 0 
L 581 0 
L 581 3500 
L 1159 3500 
L 1159 2956 
Q 1341 3275 1631 3429 
Q 1922 3584 2338 3584 
Q 2397 3584 2469 3576 
Q 2541 3569 2628 3553 
L 2631 2963 
z
" id="DejaVuSans-72" transform="scale(0.015625)"/>
       <path d="M 2834 3397 
L 2834 2853 
Q 2591 2978 2328 3040 
Q 2066 3103 1784 3103 
Q 1356 3103 1142 2972 
Q 928 2841 928 2578 
Q 928 2378 1081 2264 
Q 1234 2150 1697 2047 
L 1894 2003 
Q 2506 1872 2764 1633 
Q 3022 1394 3022 966 
Q 3022 478 2636 193 
Q 2250 -91 1575 -91 
Q 1294 -91 989 -36 
Q 684 19 347 128 
L 347 722 
Q 666 556 975 473 
Q 1284 391 1588 391 
Q 1994 391 2212 530 
Q 2431 669 2431 922 
Q 2431 1156 2273 1281 
Q 2116 1406 1581 1522 
L 1381 1569 
Q 847 1681 609 1914 
Q 372 2147 372 2553 
Q 372 3047 722 3315 
Q 1072 3584 1716 3584 
Q 2034 3584 2315 3537 
Q 2597 3491 2834 3397 
z
" id="DejaVuSans-73" transform="scale(0.015625)"/>
       <path d="M 3122 3366 
L 3122 2828 
Q 2878 2963 2633 3030 
Q 2388 3097 2138 3097 
Q 1578 3097 1268 2742 
Q 959 2388 959 1747 
Q 959 1106 1268 751 
Q 1578 397 2138 397 
Q 2388 397 2633 464 
Q 2878 531 3122 666 
L 3122 134 
Q 2881 22 2623 -34 
Q 2366 -91 2075 -91 
Q 1284 -91 818 406 
Q 353 903 353 1747 
Q 353 2603 823 3093 
Q 1294 3584 2113 3584 
Q 2378 3584 2631 3529 
Q 2884 3475 3122 3366 
z
" id="DejaVuSans-63" transform="scale(0.015625)"/>
       <path d="M 603 3500 
L 1178 3500 
L 1178 0 
L 603 0 
L 603 3500 
z
M 603 4863 
L 1178 4863 
L 1178 4134 
L 603 4134 
L 603 4863 
z
" id="DejaVuSans-69" transform="scale(0.015625)"/>
       <path d="M 1959 3097 
Q 1497 3097 1228 2736 
Q 959 2375 959 1747 
Q 959 1119 1226 758 
Q 1494 397 1959 397 
Q 2419 397 2687 759 
Q 2956 1122 2956 1747 
Q 2956 2369 2687 2733 
Q 2419 3097 1959 3097 
z
M 1959 3584 
Q 2709 3584 3137 3096 
Q 3566 2609 3566 1747 
Q 3566 888 3137 398 
Q 2709 -91 1959 -91 
Q 1206 -91 779 398 
Q 353 888 353 1747 
Q 353 2609 779 3096 
Q 1206 3584 1959 3584 
z
" id="DejaVuSans-6f" transform="scale(0.015625)"/>
       <path id="DejaVuSans-20" transform="scale(0.015625)"/>
       <path d="M 2194 1759 
Q 1497 1759 1228 1600 
Q 959 1441 959 1056 
Q 959 750 1161 570 
Q 1363 391 1709 391 
Q 2188 391 2477 730 
Q 2766 1069 2766 1631 
L 2766 1759 
L 2194 1759 
z
M 3341 1997 
L 3341 0 
L 2766 0 
L 2766 531 
Q 2569 213 2275 61 
Q 1981 -91 1556 -91 
Q 1019 -91 701 211 
Q 384 513 384 1019 
Q 384 1609 779 1909 
Q 1175 2209 1959 2209 
L 2766 2209 
L 2766 2266 
Q 2766 2663 2505 2880 
Q 2244 3097 1772 3097 
Q 1472 3097 1187 3025 
Q 903 2953 641 2809 
L 641 3341 
Q 956 3463 1253 3523 
Q 1550 3584 1831 3584 
Q 2591 3584 2966 3190 
Q 3341 2797 3341 1997 
z
" id="DejaVuSans-61" transform="scale(0.015625)"/>
      </defs>
      <use xlink:href="#DejaVuSans-49"/>
      <use x="29.492188" xlink:href="#DejaVuSans-6e"/>
      <use x="92.871094" xlink:href="#DejaVuSans-74"/>
      <use x="132.080078" xlink:href="#DejaVuSans-65"/>
      <use x="193.603516" xlink:href="#DejaVuSans-72"/>
      <use x="234.716797" xlink:href="#DejaVuSans-73"/>
      <use x="286.816406" xlink:href="#DejaVuSans-65"/>
      <use x="348.339844" xlink:href="#DejaVuSans-63"/>
      <use x="403.320312" xlink:href="#DejaVuSans-74"/>
      <use x="442.529297" xlink:href="#DejaVuSans-69"/>
      <use x="470.3125" xlink:href="#DejaVuSans-6f"/>
      <use x="531.494141" xlink:href="#DejaVuSans-6e"/>
      <use x="594.873047" xlink:href="#DejaVuSans-20"/>
      <use x="626.660156" xlink:href="#DejaVuSans-72"/>
      <use x="667.773438" xlink:href="#DejaVuSans-61"/>
      <use x="729.052734" xlink:href="#DejaVuSans-74"/>
      <use x="768.261719" xlink:href="#DejaVuSans-65"/>
     </g>
    </g>
   </g>
   <g id="line2d_48">
    <path clip-path="url(#pd65996f52c)" d="M 51.32 16.306285 
L 59.391585 89.723416 
L 67.46317 71.369133 
L 75.534755 60.356564 
L 83.60634 71.369133 
L 91.677925 67.133529 
L 99.74951 50.720565 
L 107.821095 53.01485 
L 115.89268 47.77077 
L 123.964265 48.42628 
L 132.03585 48.278261 
L 140.107435 47.279137 
L 148.17902 47.367379 
L 156.250605 45.673137 
L 164.32219 46.131994 
L 172.393775 42.218213 
L 180.46536 41.719907 
L 188.536945 39.162562 
L 196.60853 39.904648 
L 204.680115 42.002281 
L 212.7517 37.282608 
L 220.823285 41.334852 
L 228.89487 38.979222 
L 236.966455 37.426281 
L 245.03804 37.140876 
L 253.109625 36.863082 
L 261.18121 36.592597 
L 269.252795 34.660568 
L 277.32438 33.034239 
L 285.395965 29.736248 
L 293.46755 28.247625 
L 301.539135 28.105467 
L 309.61072 26.671056 
L 317.682305 26.550536 
L 325.75389 26.432786 
L 333.825475 25.066283 
L 341.89706 23.730489 
L 349.968645 22.424379 
L 358.04023 21.146975 
L 366.111815 19.89734 
L 374.1834 19.858727 
L 382.254985 18.649385 
L 390.32657 17.465503 
L 398.398155 16.306285 
" style="fill:none;stroke:#000000;stroke-dasharray:7.4,3.2;stroke-dashoffset:0;stroke-width:2;"/>
   </g>
   <g id="line2d_49">
    <path clip-path="url(#pd65996f52c)" d="M 51.32 16.306285 
L 59.391585 89.723416 
L 67.46317 71.369133 
L 75.534755 60.356564 
L 83.60634 71.369133 
L 91.677925 67.133529 
L 99.74951 50.720565 
L 107.821095 53.01485 
L 115.89268 47.77077 
L 123.964265 48.42628 
L 132.03585 48.278261 
L 140.107435 47.279137 
L 148.17902 47.367379 
L 156.250605 45.673137 
L 164.32219 46.131994 
L 172.393775 42.218213 
L 180.46536 41.719907 
L 188.536945 39.162562 
L 196.60853 39.904648 
L 204.680115 42.002281 
L 212.7517 37.282608 
L 220.823285 41.334852 
L 228.89487 38.979222 
L 236.966455 37.426281 
L 245.03804 37.140876 
L 253.109625 36.863082 
L 261.18121 36.592597 
L 269.252795 34.660568 
L 277.32438 33.034239 
L 285.395965 29.736248 
L 293.46755 28.247625 
L 301.539135 28.105467 
L 309.61072 26.671056 
L 317.682305 26.550536 
L 325.75389 26.432786 
L 333.825475 25.066283 
L 341.89706 23.730489 
L 349.968645 22.424379 
L 358.04023 21.146975 
L 366.111815 19.89734 
L 374.1834 19.858727 
L 382.254985 18.649385 
L 390.32657 17.465503 
L 398.398155 16.306285 
" style="fill:none;stroke:#db7093;stroke-dasharray:7.4,3.2;stroke-dashoffset:0;stroke-width:2;"/>
   </g>
   <g id="line2d_50">
    <path clip-path="url(#pd65996f52c)" d="M 51.32 16.306285 
L 59.391585 89.723416 
L 67.46317 71.369133 
L 75.534755 60.356564 
L 83.60634 71.369133 
L 91.677925 67.133529 
L 99.74951 50.720565 
L 107.821095 53.01485 
L 115.89268 47.77077 
L 123.964265 48.42628 
L 132.03585 48.278261 
L 140.107435 47.279137 
L 148.17902 47.367379 
L 156.250605 45.673137 
L 164.32219 46.131994 
L 172.393775 42.218213 
L 180.46536 41.719907 
L 188.536945 39.162562 
L 196.60853 39.904648 
L 204.680115 42.002281 
L 212.7517 37.282608 
L 220.823285 41.334852 
L 228.89487 38.979222 
L 236.966455 37.426281 
L 245.03804 37.140876 
L 253.109625 36.863082 
L 261.18121 36.592597 
L 269.252795 34.660568 
L 277.32438 33.034239 
L 285.395965 29.736248 
L 293.46755 28.247625 
L 301.539135 28.105467 
L 309.61072 26.671056 
L 317.682305 26.550536 
L 325.75389 26.432786 
L 333.825475 25.066283 
L 341.89706 23.730489 
L 349.968645 22.424379 
L 358.04023 21.146975 
L 366.111815 19.89734 
L 374.1834 19.858727 
L 382.254985 18.649385 
L 390.32657 17.465503 
L 398.398155 16.306285 
" style="fill:none;stroke:#a52a2a;stroke-dasharray:7.4,3.2;stroke-dashoffset:0;stroke-width:2;"/>
   </g>
   <g id="line2d_51">
    <path clip-path="url(#pd65996f52c)" d="M 51.32 16.306285 
L 59.391585 89.723416 
L 67.46317 71.369133 
L 75.534755 60.356564 
L 83.60634 71.369133 
L 91.677925 67.133529 
L 99.74951 50.720565 
L 107.821095 53.01485 
L 115.89268 47.77077 
L 123.964265 48.42628 
L 132.03585 48.278261 
L 140.107435 47.279137 
L 148.17902 47.367379 
L 156.250605 45.673137 
L 164.32219 46.131994 
L 172.393775 42.218213 
L 180.46536 41.719907 
L 188.536945 39.162562 
L 196.60853 39.904648 
L 204.680115 42.002281 
L 212.7517 37.282608 
L 220.823285 41.334852 
L 228.89487 38.979222 
L 236.966455 37.426281 
L 245.03804 37.140876 
L 253.109625 36.863082 
L 261.18121 36.592597 
L 269.252795 34.660568 
L 277.32438 33.034239 
L 285.395965 29.736248 
L 293.46755 28.247625 
L 301.539135 28.105467 
L 309.61072 26.671056 
L 317.682305 26.550536 
L 325.75389 26.432786 
L 333.825475 25.066283 
L 341.89706 23.730489 
L 349.968645 22.424379 
L 358.04023 21.146975 
L 366.111815 19.89734 
L 374.1834 19.858727 
L 382.254985 18.649385 
L 390.32657 17.465503 
L 398.398155 16.306285 
" style="fill:none;stroke:#006400;stroke-dasharray:7.4,3.2;stroke-dashoffset:0;stroke-width:2;"/>
   </g>
   <g id="line2d_52">
    <path clip-path="url(#pd65996f52c)" d="M 51.32 16.306285 
L 59.391585 89.723416 
L 67.46317 71.369133 
L 75.534755 60.356564 
L 83.60634 71.369133 
L 91.677925 67.133529 
L 99.74951 50.720565 
L 107.821095 53.01485 
L 115.89268 47.77077 
L 123.964265 48.42628 
L 132.03585 48.278261 
L 140.107435 47.279137 
L 148.17902 47.367379 
L 156.250605 45.673137 
L 164.32219 46.131994 
L 172.393775 42.218213 
L 180.46536 41.719907 
L 188.536945 39.162562 
L 196.60853 39.904648 
L 204.680115 42.002281 
L 212.7517 37.282608 
L 220.823285 41.334852 
L 228.89487 38.979222 
L 236.966455 37.426281 
L 245.03804 37.140876 
L 253.109625 36.863082 
L 261.18121 36.592597 
L 269.252795 34.660568 
L 277.32438 33.034239 
L 285.395965 29.736248 
L 293.46755 28.247625 
L 301.539135 28.105467 
L 309.61072 26.671056 
L 317.682305 26.550536 
L 325.75389 26.432786 
L 333.825475 25.066283 
L 341.89706 23.730489 
L 349.968645 22.424379 
L 358.04023 21.146975 
L 366.111815 19.89734 
L 374.1834 19.858727 
L 382.254985 18.649385 
L 390.32657 17.465503 
L 398.398155 16.306285 
" style="fill:none;stroke:#808080;stroke-linecap:square;stroke-width:2;"/>
   </g>
   <g id="line2d_53">
    <path clip-path="url(#pd65996f52c)" d="M 51.32 16.306285 
L 59.391585 89.723416 
L 67.46317 71.369133 
L 75.534755 60.356564 
L 83.60634 71.369133 
L 91.677925 67.133529 
L 99.74951 50.720565 
L 107.821095 53.01485 
L 115.89268 47.77077 
L 123.964265 48.42628 
L 132.03585 48.278261 
L 140.107435 47.279137 
L 148.17902 47.367379 
L 156.250605 45.673137 
L 164.32219 46.131994 
L 172.393775 42.218213 
L 180.46536 41.719907 
L 188.536945 39.162562 
L 196.60853 39.904648 
L 204.680115 42.002281 
L 212.7517 37.282608 
L 220.823285 41.334852 
L 228.89487 38.979222 
L 236.966455 37.426281 
L 245.03804 37.140876 
L 253.109625 36.863082 
L 261.18121 36.592597 
L 269.252795 34.660568 
L 277.32438 33.034239 
L 285.395965 29.736248 
L 293.46755 28.247625 
L 301.539135 28.105467 
L 309.61072 26.671056 
L 317.682305 26.550536 
L 325.75389 26.432786 
L 333.825475 25.066283 
L 341.89706 23.730489 
L 349.968645 22.424379 
L 358.04023 21.146975 
L 366.111815 19.89734 
L 374.1834 19.858727 
L 382.254985 18.649385 
L 390.32657 17.465503 
L 398.398155 16.306285 
" style="fill:none;stroke:#ffc0cb;stroke-linecap:square;stroke-width:2;"/>
   </g>
   <g id="line2d_54">
    <path clip-path="url(#pd65996f52c)" d="M 51.32 16.306285 
L 59.391585 89.723416 
L 67.46317 71.369133 
L 75.534755 60.356564 
L 83.60634 71.369133 
L 91.677925 67.133529 
L 99.74951 50.720565 
L 107.821095 53.01485 
L 115.89268 47.77077 
L 123.964265 48.42628 
L 132.03585 48.278261 
L 140.107435 47.279137 
L 148.17902 47.367379 
L 156.250605 45.673137 
L 164.32219 46.131994 
L 172.393775 42.218213 
L 180.46536 41.719907 
L 188.536945 39.162562 
L 196.60853 39.904648 
L 204.680115 42.002281 
L 212.7517 37.282608 
L 220.823285 41.334852 
L 228.89487 38.979222 
L 236.966455 37.426281 
L 245.03804 37.140876 
L 253.109625 36.863082 
L 261.18121 36.592597 
L 269.252795 34.660568 
L 277.32438 33.034239 
L 285.395965 29.736248 
L 293.46755 28.247625 
L 301.539135 28.105467 
L 309.61072 26.671056 
L 317.682305 26.550536 
L 325.75389 26.432786 
L 333.825475 25.066283 
L 341.89706 23.730489 
L 349.968645 22.424379 
L 358.04023 21.146975 
L 366.111815 19.89734 
L 374.1834 19.858727 
L 382.254985 18.649385 
L 390.32657 17.465503 
L 398.398155 16.306285 
" style="fill:none;stroke:#ff0000;stroke-linecap:square;stroke-width:2;"/>
   </g>
   <g id="line2d_55">
    <path clip-path="url(#pd65996f52c)" d="M 51.32 16.306285 
L 59.391585 89.723416 
L 67.46317 71.369133 
L 75.534755 60.356564 
L 83.60634 71.369133 
L 91.677925 67.133529 
L 99.74951 50.720565 
L 107.821095 53.01485 
L 115.89268 47.77077 
L 123.964265 48.42628 
L 132.03585 48.278261 
L 140.107435 47.279137 
L 148.17902 47.367379 
L 156.250605 45.673137 
L 164.32219 46.131994 
L 172.393775 42.218213 
L 180.46536 41.719907 
L 188.536945 39.162562 
L 196.60853 39.904648 
L 204.680115 42.002281 
L 212.7517 37.282608 
L 220.823285 41.334852 
L 228.89487 38.979222 
L 236.966455 37.426281 
L 245.03804 37.140876 
L 253.109625 36.863082 
L 261.18121 36.592597 
L 269.252795 34.660568 
L 277.32438 33.034239 
L 285.395965 29.736248 
L 293.46755 28.247625 
L 301.539135 28.105467 
L 309.61072 26.671056 
L 317.682305 26.550536 
L 325.75389 26.432786 
L 333.825475 25.066283 
L 341.89706 23.730489 
L 349.968645 22.424379 
L 358.04023 21.146975 
L 366.111815 19.89734 
L 374.1834 19.858727 
L 382.254985 18.649385 
L 390.32657 17.465503 
L 398.398155 16.306285 
" style="fill:none;stroke:#3cb371;stroke-linecap:square;stroke-width:2;"/>
   </g>
   <g id="patch_3">
    <path d="M 51.32 131.938266 
L 51.32 10.8 
" style="fill:none;stroke:#000000;stroke-linecap:square;stroke-linejoin:miter;stroke-width:0.8;"/>
   </g>
   <g id="patch_4">
    <path d="M 398.398155 131.938266 
L 398.398155 10.8 
" style="fill:none;stroke:#000000;stroke-linecap:square;stroke-linejoin:miter;stroke-width:0.8;"/>
   </g>
   <g id="patch_5">
    <path d="M 51.32 131.938266 
L 398.398155 131.938266 
" style="fill:none;stroke:#000000;stroke-linecap:square;stroke-linejoin:miter;stroke-width:0.8;"/>
   </g>
   <g id="patch_6">
    <path d="M 51.32 10.8 
L 398.398155 10.8 
" style="fill:none;stroke:#000000;stroke-linecap:square;stroke-linejoin:miter;stroke-width:0.8;"/>
   </g>
   <g id="legend_1">
    <g id="patch_7">
     <path d="M 243.778155 127.438266 
L 392.098155 127.438266 
Q 393.898155 127.438266 393.898155 125.638266 
L 393.898155 73.697016 
Q 393.898155 71.897016 392.098155 71.897016 
L 243.778155 71.897016 
Q 241.978155 71.897016 241.978155 73.697016 
L 241.978155 125.638266 
Q 241.978155 127.438266 243.778155 127.438266 
z
" style="fill:#ffffff;opacity:0.8;stroke:#cccccc;stroke-linejoin:miter;"/>
    </g>
    <g id="line2d_56">
     <path d="M 245.578155 79.18561 
L 263.578155 79.18561 
" style="fill:none;stroke:#000000;stroke-dasharray:7.4,3.2;stroke-dashoffset:0;stroke-width:2;"/>
    </g>
    <g id="line2d_57"/>
    <g id="text_49">
     <!-- $k$ (0.80) -->
     <g transform="translate(270.778155 82.33561)scale(0.09 -0.09)">
      <defs>
       <path d="M 1172 4863 
L 1747 4863 
L 1197 2028 
L 3169 3500 
L 3916 3500 
L 1716 1825 
L 3322 0 
L 2625 0 
L 1131 1709 
L 800 0 
L 225 0 
L 1172 4863 
z
" id="DejaVuSans-Oblique-6b" transform="scale(0.015625)"/>
       <path d="M 1984 4856 
Q 1566 4138 1362 3434 
Q 1159 2731 1159 2009 
Q 1159 1288 1364 580 
Q 1569 -128 1984 -844 
L 1484 -844 
Q 1016 -109 783 600 
Q 550 1309 550 2009 
Q 550 2706 781 3412 
Q 1013 4119 1484 4856 
L 1984 4856 
z
" id="DejaVuSans-28" transform="scale(0.015625)"/>
       <path d="M 513 4856 
L 1013 4856 
Q 1481 4119 1714 3412 
Q 1947 2706 1947 2009 
Q 1947 1309 1714 600 
Q 1481 -109 1013 -844 
L 513 -844 
Q 928 -128 1133 580 
Q 1338 1288 1338 2009 
Q 1338 2731 1133 3434 
Q 928 4138 513 4856 
z
" id="DejaVuSans-29" transform="scale(0.015625)"/>
      </defs>
      <use transform="translate(0 0.015625)" xlink:href="#DejaVuSans-Oblique-6b"/>
      <use transform="translate(57.910156 0.015625)" xlink:href="#DejaVuSans-20"/>
      <use transform="translate(89.697266 0.015625)" xlink:href="#DejaVuSans-28"/>
      <use transform="translate(128.710938 0.015625)" xlink:href="#DejaVuSans-30"/>
      <use transform="translate(192.333984 0.015625)" xlink:href="#DejaVuSans-2e"/>
      <use transform="translate(221.496094 0.015625)" xlink:href="#DejaVuSans-38"/>
      <use transform="translate(285.119141 0.015625)" xlink:href="#DejaVuSans-30"/>
      <use transform="translate(348.742188 0.015625)" xlink:href="#DejaVuSans-29"/>
     </g>
    </g>
    <g id="line2d_58">
     <path d="M 245.578155 92.395923 
L 263.578155 92.395923 
" style="fill:none;stroke:#db7093;stroke-dasharray:7.4,3.2;stroke-dashoffset:0;stroke-width:2;"/>
    </g>
    <g id="line2d_59"/>
    <g id="text_50">
     <!-- $b$ (0.80) -->
     <g transform="translate(270.778155 95.545923)scale(0.09 -0.09)">
      <defs>
       <path d="M 3169 2138 
Q 3169 2591 2961 2847 
Q 2753 3103 2388 3103 
Q 2122 3103 1889 2973 
Q 1656 2844 1484 2597 
Q 1303 2338 1198 1995 
Q 1094 1653 1094 1313 
Q 1094 881 1298 636 
Q 1503 391 1863 391 
Q 2134 391 2365 517 
Q 2597 644 2772 891 
Q 2950 1147 3059 1487 
Q 3169 1828 3169 2138 
z
M 1381 2969 
Q 1594 3256 1914 3420 
Q 2234 3584 2584 3584 
Q 3122 3584 3439 3221 
Q 3756 2859 3756 2241 
Q 3756 1734 3570 1259 
Q 3384 784 3041 416 
Q 2816 172 2522 40 
Q 2228 -91 1906 -91 
Q 1566 -91 1316 65 
Q 1066 222 909 531 
L 806 0 
L 231 0 
L 1178 4863 
L 1753 4863 
L 1381 2969 
z
" id="DejaVuSans-Oblique-62" transform="scale(0.015625)"/>
      </defs>
      <use transform="translate(0 0.015625)" xlink:href="#DejaVuSans-Oblique-62"/>
      <use transform="translate(63.476562 0.015625)" xlink:href="#DejaVuSans-20"/>
      <use transform="translate(95.263672 0.015625)" xlink:href="#DejaVuSans-28"/>
      <use transform="translate(134.277344 0.015625)" xlink:href="#DejaVuSans-30"/>
      <use transform="translate(197.900391 0.015625)" xlink:href="#DejaVuSans-2e"/>
      <use transform="translate(227.0625 0.015625)" xlink:href="#DejaVuSans-38"/>
      <use transform="translate(290.685547 0.015625)" xlink:href="#DejaVuSans-30"/>
      <use transform="translate(354.308594 0.015625)" xlink:href="#DejaVuSans-29"/>
     </g>
    </g>
    <g id="line2d_60">
     <path d="M 245.578155 105.606235 
L 263.578155 105.606235 
" style="fill:none;stroke:#a52a2a;stroke-dasharray:7.4,3.2;stroke-dashoffset:0;stroke-width:2;"/>
    </g>
    <g id="line2d_61"/>
    <g id="text_51">
     <!-- $c$ (0.80) -->
     <g transform="translate(270.778155 108.756235)scale(0.09 -0.09)">
      <defs>
       <path d="M 3431 3366 
L 3316 2797 
Q 3109 2947 2876 3022 
Q 2644 3097 2394 3097 
Q 2119 3097 1870 3000 
Q 1622 2903 1453 2725 
Q 1184 2453 1037 2087 
Q 891 1722 891 1331 
Q 891 859 1127 628 
Q 1363 397 1844 397 
Q 2081 397 2348 469 
Q 2616 541 2906 684 
L 2797 116 
Q 2547 13 2283 -39 
Q 2019 -91 1741 -91 
Q 1044 -91 669 257 
Q 294 606 294 1253 
Q 294 1797 489 2255 
Q 684 2713 1069 3078 
Q 1331 3328 1684 3456 
Q 2038 3584 2456 3584 
Q 2700 3584 2940 3529 
Q 3181 3475 3431 3366 
z
" id="DejaVuSans-Oblique-63" transform="scale(0.015625)"/>
      </defs>
      <use transform="translate(0 0.125)" xlink:href="#DejaVuSans-Oblique-63"/>
      <use transform="translate(54.980469 0.125)" xlink:href="#DejaVuSans-20"/>
      <use transform="translate(86.767578 0.125)" xlink:href="#DejaVuSans-28"/>
      <use transform="translate(125.78125 0.125)" xlink:href="#DejaVuSans-30"/>
      <use transform="translate(189.404297 0.125)" xlink:href="#DejaVuSans-2e"/>
      <use transform="translate(218.566406 0.125)" xlink:href="#DejaVuSans-38"/>
      <use transform="translate(282.189453 0.125)" xlink:href="#DejaVuSans-30"/>
      <use transform="translate(345.8125 0.125)" xlink:href="#DejaVuSans-29"/>
     </g>
    </g>
    <g id="line2d_62">
     <path d="M 245.578155 118.816548 
L 263.578155 118.816548 
" style="fill:none;stroke:#006400;stroke-dasharray:7.4,3.2;stroke-dashoffset:0;stroke-width:2;"/>
    </g>
    <g id="line2d_63"/>
    <g id="text_52">
     <!-- $v$ (0.80) -->
     <g transform="translate(270.778155 121.966548)scale(0.09 -0.09)">
      <defs>
       <path d="M 459 3500 
L 1069 3500 
L 1581 525 
L 3256 3500 
L 3866 3500 
L 1875 0 
L 1100 0 
L 459 3500 
z
" id="DejaVuSans-Oblique-76" transform="scale(0.015625)"/>
      </defs>
      <use transform="translate(0 0.125)" xlink:href="#DejaVuSans-Oblique-76"/>
      <use transform="translate(59.179688 0.125)" xlink:href="#DejaVuSans-20"/>
      <use transform="translate(90.966797 0.125)" xlink:href="#DejaVuSans-28"/>
      <use transform="translate(129.980469 0.125)" xlink:href="#DejaVuSans-30"/>
      <use transform="translate(193.603516 0.125)" xlink:href="#DejaVuSans-2e"/>
      <use transform="translate(222.765625 0.125)" xlink:href="#DejaVuSans-38"/>
      <use transform="translate(286.388672 0.125)" xlink:href="#DejaVuSans-30"/>
      <use transform="translate(350.011719 0.125)" xlink:href="#DejaVuSans-29"/>
     </g>
    </g>
    <g id="line2d_64">
     <path d="M 324.238155 79.18561 
L 342.238155 79.18561 
" style="fill:none;stroke:#808080;stroke-linecap:square;stroke-width:2;"/>
    </g>
    <g id="line2d_65"/>
    <g id="text_53">
     <!-- $s$ (0.80) -->
     <g transform="translate(349.438155 82.33561)scale(0.09 -0.09)">
      <defs>
       <path d="M 3200 3397 
L 3091 2853 
Q 2863 2978 2609 3040 
Q 2356 3103 2088 3103 
Q 1634 3103 1373 2948 
Q 1113 2794 1113 2528 
Q 1113 2219 1719 2053 
Q 1766 2041 1788 2034 
L 1972 1978 
Q 2547 1819 2739 1644 
Q 2931 1469 2931 1166 
Q 2931 609 2489 259 
Q 2047 -91 1331 -91 
Q 1053 -91 747 -37 
Q 441 16 72 128 
L 184 722 
Q 500 559 806 475 
Q 1113 391 1394 391 
Q 1816 391 2080 572 
Q 2344 753 2344 1031 
Q 2344 1331 1650 1516 
L 1591 1531 
L 1394 1581 
Q 956 1697 753 1886 
Q 550 2075 550 2369 
Q 550 2928 970 3256 
Q 1391 3584 2113 3584 
Q 2397 3584 2667 3537 
Q 2938 3491 3200 3397 
z
" id="DejaVuSans-Oblique-73" transform="scale(0.015625)"/>
      </defs>
      <use transform="translate(0 0.125)" xlink:href="#DejaVuSans-Oblique-73"/>
      <use transform="translate(52.099609 0.125)" xlink:href="#DejaVuSans-20"/>
      <use transform="translate(83.886719 0.125)" xlink:href="#DejaVuSans-28"/>
      <use transform="translate(122.900391 0.125)" xlink:href="#DejaVuSans-30"/>
      <use transform="translate(186.523438 0.125)" xlink:href="#DejaVuSans-2e"/>
      <use transform="translate(215.685547 0.125)" xlink:href="#DejaVuSans-38"/>
      <use transform="translate(279.308594 0.125)" xlink:href="#DejaVuSans-30"/>
      <use transform="translate(342.931641 0.125)" xlink:href="#DejaVuSans-29"/>
     </g>
    </g>
    <g id="line2d_66">
     <path d="M 324.238155 92.395923 
L 342.238155 92.395923 
" style="fill:none;stroke:#ffc0cb;stroke-linecap:square;stroke-width:2;"/>
    </g>
    <g id="line2d_67"/>
    <g id="text_54">
     <!-- $b_w$ (0.80) -->
     <g transform="translate(349.438155 95.545923)scale(0.09 -0.09)">
      <defs>
       <path d="M 544 3500 
L 1113 3500 
L 1259 684 
L 2566 3500 
L 3231 3500 
L 3425 684 
L 4666 3500 
L 5241 3500 
L 3641 0 
L 2969 0 
L 2797 2900 
L 1459 0 
L 781 0 
L 544 3500 
z
" id="DejaVuSans-Oblique-77" transform="scale(0.015625)"/>
      </defs>
      <use transform="translate(0 0.015625)" xlink:href="#DejaVuSans-Oblique-62"/>
      <use transform="translate(63.476562 -16.390625)scale(0.7)" xlink:href="#DejaVuSans-Oblique-77"/>
      <use transform="translate(123.461914 0.015625)" xlink:href="#DejaVuSans-20"/>
      <use transform="translate(155.249023 0.015625)" xlink:href="#DejaVuSans-28"/>
      <use transform="translate(194.262695 0.015625)" xlink:href="#DejaVuSans-30"/>
      <use transform="translate(257.885742 0.015625)" xlink:href="#DejaVuSans-2e"/>
      <use transform="translate(287.047852 0.015625)" xlink:href="#DejaVuSans-38"/>
      <use transform="translate(350.670898 0.015625)" xlink:href="#DejaVuSans-30"/>
      <use transform="translate(414.293945 0.015625)" xlink:href="#DejaVuSans-29"/>
     </g>
    </g>
    <g id="line2d_68">
     <path d="M 324.238155 105.606235 
L 342.238155 105.606235 
" style="fill:none;stroke:#ff0000;stroke-linecap:square;stroke-width:2;"/>
    </g>
    <g id="line2d_69"/>
    <g id="text_55">
     <!-- $c_w$ (0.80) -->
     <g transform="translate(349.438155 108.756235)scale(0.09 -0.09)">
      <use transform="translate(0 0.125)" xlink:href="#DejaVuSans-Oblique-63"/>
      <use transform="translate(54.980469 -16.28125)scale(0.7)" xlink:href="#DejaVuSans-Oblique-77"/>
      <use transform="translate(114.96582 0.125)" xlink:href="#DejaVuSans-20"/>
      <use transform="translate(146.75293 0.125)" xlink:href="#DejaVuSans-28"/>
      <use transform="translate(185.766602 0.125)" xlink:href="#DejaVuSans-30"/>
      <use transform="translate(249.389648 0.125)" xlink:href="#DejaVuSans-2e"/>
      <use transform="translate(278.551758 0.125)" xlink:href="#DejaVuSans-38"/>
      <use transform="translate(342.174805 0.125)" xlink:href="#DejaVuSans-30"/>
      <use transform="translate(405.797852 0.125)" xlink:href="#DejaVuSans-29"/>
     </g>
    </g>
    <g id="line2d_70">
     <path d="M 324.238155 118.816548 
L 342.238155 118.816548 
" style="fill:none;stroke:#3cb371;stroke-linecap:square;stroke-width:2;"/>
    </g>
    <g id="line2d_71"/>
    <g id="text_56">
     <!-- $v_w$ (0.80) -->
     <g transform="translate(349.438155 121.966548)scale(0.09 -0.09)">
      <use transform="translate(0 0.125)" xlink:href="#DejaVuSans-Oblique-76"/>
      <use transform="translate(59.179688 -16.28125)scale(0.7)" xlink:href="#DejaVuSans-Oblique-77"/>
      <use transform="translate(119.165039 0.125)" xlink:href="#DejaVuSans-20"/>
      <use transform="translate(150.952148 0.125)" xlink:href="#DejaVuSans-28"/>
      <use transform="translate(189.96582 0.125)" xlink:href="#DejaVuSans-30"/>
      <use transform="translate(253.588867 0.125)" xlink:href="#DejaVuSans-2e"/>
      <use transform="translate(282.750977 0.125)" xlink:href="#DejaVuSans-38"/>
      <use transform="translate(346.374023 0.125)" xlink:href="#DejaVuSans-30"/>
      <use transform="translate(409.99707 0.125)" xlink:href="#DejaVuSans-29"/>
     </g>
    </g>
   </g>
  </g>
 </g>
 <defs>
  <clipPath id="pd65996f52c">
   <rect height="121.138266" width="347.078155" x="51.32" y="10.8"/>
  </clipPath>
 </defs>
</svg>
