<?xml version="1.0" encoding="utf-8" standalone="no"?>
<!DOCTYPE svg PUBLIC "-//W3C//DTD SVG 1.1//EN"
  "http://www.w3.org/Graphics/SVG/1.1/DTD/svg11.dtd">
<svg height="216pt" version="1.1" viewBox="0 0 432 216" width="432pt" xmlns="http://www.w3.org/2000/svg" xmlns:xlink="http://www.w3.org/1999/xlink">
 <metadata>
  <rdf:RDF xmlns:cc="http://creativecommons.org/ns#" xmlns:dc="http://purl.org/dc/elements/1.1/" xmlns:rdf="http://www.w3.org/1999/02/22-rdf-syntax-ns#">
   <cc:Work>
    <dc:type rdf:resource="http://purl.org/dc/dcmitype/StillImage"/>
    <dc:date>2022-08-25T16:57:39.425246</dc:date>
    <dc:format>image/svg+xml</dc:format>
    <dc:creator>
     <cc:Agent>
      <dc:title>Matplotlib v3.4.2, https://matplotlib.org/</dc:title>
     </cc:Agent>
    </dc:creator>
   </cc:Work>
  </rdf:RDF>
 </metadata>
 <defs>
  <style type="text/css">*{stroke-linecap:butt;stroke-linejoin:round;}</style>
 </defs>
 <g id="figure_1">
  <g id="patch_1">
   <path d="M 0 216 
L 432 216 
L 432 0 
L 0 0 
z
" style="fill:#ffffff;"/>
  </g>
  <g id="axes_1">
   <g id="patch_2">
    <path d="M 47.773318 147.919051 
L 402.272712 147.919051 
L 402.272712 12.96 
L 47.773318 12.96 
z
" style="fill:#ffffff;"/>
   </g>
   <g id="matplotlib.axis_1">
    <g id="xtick_1">
     <g id="line2d_1">
      <defs>
       <path d="M 0 0 
L 0 3.5 
" id="mcaa99d6396" style="stroke:#000000;stroke-width:0.8;"/>
      </defs>
      <g>
       <use style="stroke:#000000;stroke-width:0.8;" x="47.773318" xlink:href="#mcaa99d6396" y="147.919051"/>
      </g>
     </g>
     <g id="text_1">
      <!-- 2020/02/25 -->
      <g transform="translate(37.476955 201.79467)rotate(-60)scale(0.1 -0.1)">
       <defs>
        <path d="M 2669 989 
L 2554 989 
C 2490 536 2438 459 2413 420 
C 2381 369 1920 369 1830 369 
L 602 369 
C 832 619 1280 1072 1824 1597 
C 2214 1967 2669 2402 2669 3035 
C 2669 3790 2067 4224 1395 4224 
C 691 4224 262 3604 262 3030 
C 262 2780 448 2748 525 2748 
C 589 2748 781 2787 781 3010 
C 781 3207 614 3264 525 3264 
C 486 3264 448 3258 422 3245 
C 544 3790 915 4058 1306 4058 
C 1862 4058 2227 3617 2227 3035 
C 2227 2479 1901 2000 1536 1584 
L 262 146 
L 262 0 
L 2515 0 
L 2669 989 
z
" id="CMR17-32" transform="scale(0.015625)"/>
        <path d="M 2688 2025 
C 2688 2416 2682 3080 2413 3591 
C 2176 4039 1798 4198 1466 4198 
C 1158 4198 768 4058 525 3597 
C 269 3118 243 2524 243 2025 
C 243 1661 250 1106 448 619 
C 723 -39 1216 -128 1466 -128 
C 1760 -128 2208 -7 2470 600 
C 2662 1042 2688 1559 2688 2025 
z
M 1466 -26 
C 1056 -26 813 325 723 812 
C 653 1188 653 1738 653 2096 
C 653 2588 653 2997 736 3387 
C 858 3929 1216 4096 1466 4096 
C 1728 4096 2067 3923 2189 3400 
C 2272 3036 2278 2607 2278 2096 
C 2278 1680 2278 1169 2202 792 
C 2067 95 1690 -26 1466 -26 
z
" id="CMR17-30" transform="scale(0.015625)"/>
        <path d="M 2605 4545 
C 2637 4627 2637 4640 2637 4653 
C 2637 4729 2579 4768 2528 4768 
C 2451 4768 2426 4717 2400 4640 
L 326 -1377 
C 294 -1460 294 -1473 294 -1486 
C 294 -1562 352 -1600 403 -1600 
C 480 -1600 506 -1549 531 -1473 
L 2605 4545 
z
" id="CMR17-2f" transform="scale(0.015625)"/>
        <path d="M 730 3692 
C 794 3666 1056 3584 1325 3584 
C 1920 3584 2246 3911 2432 4100 
C 2432 4157 2432 4192 2394 4192 
C 2387 4192 2374 4192 2323 4163 
C 2099 4058 1837 3973 1517 3973 
C 1325 3973 1037 3999 723 4139 
C 653 4171 640 4171 634 4171 
C 602 4171 595 4164 595 4037 
L 595 2203 
C 595 2089 595 2057 659 2057 
C 691 2057 704 2070 736 2114 
C 941 2401 1222 2522 1542 2522 
C 1766 2522 2246 2382 2246 1289 
C 2246 1085 2246 715 2054 421 
C 1894 159 1645 25 1370 25 
C 947 25 518 320 403 814 
C 429 807 480 795 506 795 
C 589 795 749 840 749 1038 
C 749 1210 627 1280 506 1280 
C 358 1280 262 1190 262 1011 
C 262 454 704 -128 1382 -128 
C 2042 -128 2669 440 2669 1264 
C 2669 2030 2170 2624 1549 2624 
C 1222 2624 947 2503 730 2274 
L 730 3692 
z
" id="CMR17-35" transform="scale(0.015625)"/>
       </defs>
       <use transform="scale(0.996264)" xlink:href="#CMR17-32"/>
       <use transform="translate(45.690477 0)scale(0.996264)" xlink:href="#CMR17-30"/>
       <use transform="translate(91.380954 0)scale(0.996264)" xlink:href="#CMR17-32"/>
       <use transform="translate(137.071431 0)scale(0.996264)" xlink:href="#CMR17-30"/>
       <use transform="translate(182.761908 0)scale(0.996264)" xlink:href="#CMR17-2f"/>
       <use transform="translate(228.452386 0)scale(0.996264)" xlink:href="#CMR17-30"/>
       <use transform="translate(274.142863 0)scale(0.996264)" xlink:href="#CMR17-32"/>
       <use transform="translate(319.83334 0)scale(0.996264)" xlink:href="#CMR17-2f"/>
       <use transform="translate(365.523817 0)scale(0.996264)" xlink:href="#CMR17-32"/>
       <use transform="translate(411.214294 0)scale(0.996264)" xlink:href="#CMR17-35"/>
      </g>
     </g>
    </g>
    <g id="xtick_2">
     <g id="line2d_2">
      <g>
       <use style="stroke:#000000;stroke-width:0.8;" x="56.01749" xlink:href="#mcaa99d6396" y="147.919051"/>
      </g>
     </g>
     <g id="text_2">
      <!-- 2020/03/06 -->
      <g transform="translate(45.721127 201.79467)rotate(-60)scale(0.1 -0.1)">
       <defs>
        <path d="M 1414 2157 
C 1984 2157 2234 1662 2234 1090 
C 2234 320 1824 25 1453 25 
C 1114 25 563 194 390 693 
C 422 680 454 680 486 680 
C 640 680 755 782 755 948 
C 755 1133 614 1216 486 1216 
C 378 1216 211 1165 211 926 
C 211 335 787 -128 1466 -128 
C 2176 -128 2720 430 2720 1085 
C 2720 1707 2208 2157 1600 2227 
C 2086 2328 2554 2756 2554 3329 
C 2554 3820 2048 4179 1472 4179 
C 890 4179 378 3829 378 3329 
C 378 3110 544 3072 627 3072 
C 762 3072 877 3155 877 3321 
C 877 3486 762 3569 627 3569 
C 602 3569 570 3569 544 3557 
C 730 3959 1235 4032 1459 4032 
C 1683 4032 2106 3925 2106 3320 
C 2106 3143 2080 2828 1862 2550 
C 1670 2304 1453 2304 1242 2284 
C 1210 2284 1062 2269 1037 2269 
C 992 2263 966 2257 966 2208 
C 966 2163 973 2157 1101 2157 
L 1414 2157 
z
" id="CMR17-33" transform="scale(0.015625)"/>
        <path d="M 678 2176 
C 678 3690 1395 4032 1811 4032 
C 1946 4032 2272 4009 2400 3776 
C 2298 3776 2106 3776 2106 3553 
C 2106 3381 2246 3323 2336 3323 
C 2394 3323 2566 3348 2566 3560 
C 2566 3954 2246 4179 1805 4179 
C 1043 4179 243 3390 243 1984 
C 243 253 966 -128 1478 -128 
C 2099 -128 2688 427 2688 1283 
C 2688 2081 2170 2662 1517 2662 
C 1126 2662 838 2407 678 1960 
L 678 2176 
z
M 1478 25 
C 691 25 691 1200 691 1436 
C 691 1896 909 2560 1504 2560 
C 1613 2560 1926 2560 2138 2120 
C 2253 1870 2253 1609 2253 1289 
C 2253 944 2253 690 2118 434 
C 1978 171 1773 25 1478 25 
z
" id="CMR17-36" transform="scale(0.015625)"/>
       </defs>
       <use transform="scale(0.996264)" xlink:href="#CMR17-32"/>
       <use transform="translate(45.690477 0)scale(0.996264)" xlink:href="#CMR17-30"/>
       <use transform="translate(91.380954 0)scale(0.996264)" xlink:href="#CMR17-32"/>
       <use transform="translate(137.071431 0)scale(0.996264)" xlink:href="#CMR17-30"/>
       <use transform="translate(182.761908 0)scale(0.996264)" xlink:href="#CMR17-2f"/>
       <use transform="translate(228.452386 0)scale(0.996264)" xlink:href="#CMR17-30"/>
       <use transform="translate(274.142863 0)scale(0.996264)" xlink:href="#CMR17-33"/>
       <use transform="translate(319.83334 0)scale(0.996264)" xlink:href="#CMR17-2f"/>
       <use transform="translate(365.523817 0)scale(0.996264)" xlink:href="#CMR17-30"/>
       <use transform="translate(411.214294 0)scale(0.996264)" xlink:href="#CMR17-36"/>
      </g>
     </g>
    </g>
    <g id="xtick_3">
     <g id="line2d_3">
      <g>
       <use style="stroke:#000000;stroke-width:0.8;" x="64.261662" xlink:href="#mcaa99d6396" y="147.919051"/>
      </g>
     </g>
     <g id="text_3">
      <!-- 2020/03/07 -->
      <g transform="translate(53.965299 201.79467)rotate(-60)scale(0.1 -0.1)">
       <defs>
        <path d="M 2886 3941 
L 2886 4081 
L 1382 4081 
C 634 4081 621 4165 595 4288 
L 480 4288 
L 294 3094 
L 410 3094 
C 429 3215 474 3540 550 3661 
C 589 3712 1062 3712 1171 3712 
L 2579 3712 
L 1869 2661 
C 1395 1954 1069 999 1069 165 
C 1069 89 1069 -128 1299 -128 
C 1530 -128 1530 89 1530 171 
L 1530 465 
C 1530 1508 1709 2196 2003 2636 
L 2886 3941 
z
" id="CMR17-37" transform="scale(0.015625)"/>
       </defs>
       <use transform="scale(0.996264)" xlink:href="#CMR17-32"/>
       <use transform="translate(45.690477 0)scale(0.996264)" xlink:href="#CMR17-30"/>
       <use transform="translate(91.380954 0)scale(0.996264)" xlink:href="#CMR17-32"/>
       <use transform="translate(137.071431 0)scale(0.996264)" xlink:href="#CMR17-30"/>
       <use transform="translate(182.761908 0)scale(0.996264)" xlink:href="#CMR17-2f"/>
       <use transform="translate(228.452386 0)scale(0.996264)" xlink:href="#CMR17-30"/>
       <use transform="translate(274.142863 0)scale(0.996264)" xlink:href="#CMR17-33"/>
       <use transform="translate(319.83334 0)scale(0.996264)" xlink:href="#CMR17-2f"/>
       <use transform="translate(365.523817 0)scale(0.996264)" xlink:href="#CMR17-30"/>
       <use transform="translate(411.214294 0)scale(0.996264)" xlink:href="#CMR17-37"/>
      </g>
     </g>
    </g>
    <g id="xtick_4">
     <g id="line2d_4">
      <g>
       <use style="stroke:#000000;stroke-width:0.8;" x="72.505834" xlink:href="#mcaa99d6396" y="147.919051"/>
      </g>
     </g>
     <g id="text_4">
      <!-- 2020/03/08 -->
      <g transform="translate(62.209471 201.79467)rotate(-60)scale(0.1 -0.1)">
       <defs>
        <path d="M 1741 2264 
C 2144 2467 2554 2773 2554 3263 
C 2554 3841 1990 4179 1472 4179 
C 890 4179 378 3759 378 3180 
C 378 3021 416 2747 666 2505 
C 730 2442 998 2251 1171 2130 
C 883 1983 211 1634 211 934 
C 211 279 838 -128 1459 -128 
C 2144 -128 2720 362 2720 1010 
C 2720 1590 2330 1857 2074 2029 
L 1741 2264 
z
M 902 2822 
C 851 2854 595 3051 595 3351 
C 595 3739 998 4032 1459 4032 
C 1965 4032 2336 3676 2336 3262 
C 2336 2669 1670 2331 1638 2331 
C 1632 2331 1626 2331 1574 2370 
L 902 2822 
z
M 2080 1519 
C 2176 1449 2483 1240 2483 851 
C 2483 381 2010 25 1472 25 
C 890 25 448 438 448 940 
C 448 1443 838 1862 1280 2060 
L 2080 1519 
z
" id="CMR17-38" transform="scale(0.015625)"/>
       </defs>
       <use transform="scale(0.996264)" xlink:href="#CMR17-32"/>
       <use transform="translate(45.690477 0)scale(0.996264)" xlink:href="#CMR17-30"/>
       <use transform="translate(91.380954 0)scale(0.996264)" xlink:href="#CMR17-32"/>
       <use transform="translate(137.071431 0)scale(0.996264)" xlink:href="#CMR17-30"/>
       <use transform="translate(182.761908 0)scale(0.996264)" xlink:href="#CMR17-2f"/>
       <use transform="translate(228.452386 0)scale(0.996264)" xlink:href="#CMR17-30"/>
       <use transform="translate(274.142863 0)scale(0.996264)" xlink:href="#CMR17-33"/>
       <use transform="translate(319.83334 0)scale(0.996264)" xlink:href="#CMR17-2f"/>
       <use transform="translate(365.523817 0)scale(0.996264)" xlink:href="#CMR17-30"/>
       <use transform="translate(411.214294 0)scale(0.996264)" xlink:href="#CMR17-38"/>
      </g>
     </g>
    </g>
    <g id="xtick_5">
     <g id="line2d_5">
      <g>
       <use style="stroke:#000000;stroke-width:0.8;" x="80.750006" xlink:href="#mcaa99d6396" y="147.919051"/>
      </g>
     </g>
     <g id="text_5">
      <!-- 2020/03/11 -->
      <g transform="translate(70.453643 201.79467)rotate(-60)scale(0.1 -0.1)">
       <defs>
        <path d="M 1702 4058 
C 1702 4192 1696 4192 1606 4192 
C 1357 3916 979 3827 621 3827 
C 602 3827 570 3827 563 3808 
C 557 3795 557 3782 557 3648 
C 755 3648 1088 3686 1344 3839 
L 1344 461 
C 1344 236 1331 160 781 160 
L 589 160 
L 589 0 
C 896 0 1216 0 1523 0 
C 1830 0 2150 0 2458 0 
L 2458 160 
L 2266 160 
C 1715 160 1702 230 1702 458 
L 1702 4058 
z
" id="CMR17-31" transform="scale(0.015625)"/>
       </defs>
       <use transform="scale(0.996264)" xlink:href="#CMR17-32"/>
       <use transform="translate(45.690477 0)scale(0.996264)" xlink:href="#CMR17-30"/>
       <use transform="translate(91.380954 0)scale(0.996264)" xlink:href="#CMR17-32"/>
       <use transform="translate(137.071431 0)scale(0.996264)" xlink:href="#CMR17-30"/>
       <use transform="translate(182.761908 0)scale(0.996264)" xlink:href="#CMR17-2f"/>
       <use transform="translate(228.452386 0)scale(0.996264)" xlink:href="#CMR17-30"/>
       <use transform="translate(274.142863 0)scale(0.996264)" xlink:href="#CMR17-33"/>
       <use transform="translate(319.83334 0)scale(0.996264)" xlink:href="#CMR17-2f"/>
       <use transform="translate(365.523817 0)scale(0.996264)" xlink:href="#CMR17-31"/>
       <use transform="translate(411.214294 0)scale(0.996264)" xlink:href="#CMR17-31"/>
      </g>
     </g>
    </g>
    <g id="xtick_6">
     <g id="line2d_6">
      <g>
       <use style="stroke:#000000;stroke-width:0.8;" x="88.994178" xlink:href="#mcaa99d6396" y="147.919051"/>
      </g>
     </g>
     <g id="text_6">
      <!-- 2020/03/12 -->
      <g transform="translate(78.697815 201.79467)rotate(-60)scale(0.1 -0.1)">
       <use transform="scale(0.996264)" xlink:href="#CMR17-32"/>
       <use transform="translate(45.690477 0)scale(0.996264)" xlink:href="#CMR17-30"/>
       <use transform="translate(91.380954 0)scale(0.996264)" xlink:href="#CMR17-32"/>
       <use transform="translate(137.071431 0)scale(0.996264)" xlink:href="#CMR17-30"/>
       <use transform="translate(182.761908 0)scale(0.996264)" xlink:href="#CMR17-2f"/>
       <use transform="translate(228.452386 0)scale(0.996264)" xlink:href="#CMR17-30"/>
       <use transform="translate(274.142863 0)scale(0.996264)" xlink:href="#CMR17-33"/>
       <use transform="translate(319.83334 0)scale(0.996264)" xlink:href="#CMR17-2f"/>
       <use transform="translate(365.523817 0)scale(0.996264)" xlink:href="#CMR17-31"/>
       <use transform="translate(411.214294 0)scale(0.996264)" xlink:href="#CMR17-32"/>
      </g>
     </g>
    </g>
    <g id="xtick_7">
     <g id="line2d_7">
      <g>
       <use style="stroke:#000000;stroke-width:0.8;" x="97.23835" xlink:href="#mcaa99d6396" y="147.919051"/>
      </g>
     </g>
     <g id="text_7">
      <!-- 2020/03/13 -->
      <g transform="translate(86.941987 201.79467)rotate(-60)scale(0.1 -0.1)">
       <use transform="scale(0.996264)" xlink:href="#CMR17-32"/>
       <use transform="translate(45.690477 0)scale(0.996264)" xlink:href="#CMR17-30"/>
       <use transform="translate(91.380954 0)scale(0.996264)" xlink:href="#CMR17-32"/>
       <use transform="translate(137.071431 0)scale(0.996264)" xlink:href="#CMR17-30"/>
       <use transform="translate(182.761908 0)scale(0.996264)" xlink:href="#CMR17-2f"/>
       <use transform="translate(228.452386 0)scale(0.996264)" xlink:href="#CMR17-30"/>
       <use transform="translate(274.142863 0)scale(0.996264)" xlink:href="#CMR17-33"/>
       <use transform="translate(319.83334 0)scale(0.996264)" xlink:href="#CMR17-2f"/>
       <use transform="translate(365.523817 0)scale(0.996264)" xlink:href="#CMR17-31"/>
       <use transform="translate(411.214294 0)scale(0.996264)" xlink:href="#CMR17-33"/>
      </g>
     </g>
    </g>
    <g id="xtick_8">
     <g id="line2d_8">
      <g>
       <use style="stroke:#000000;stroke-width:0.8;" x="105.482522" xlink:href="#mcaa99d6396" y="147.919051"/>
      </g>
     </g>
     <g id="text_8">
      <!-- 2020/03/14 -->
      <g transform="translate(95.186159 201.79467)rotate(-60)scale(0.1 -0.1)">
       <defs>
        <path d="M 2150 4122 
C 2150 4256 2144 4256 2029 4256 
L 128 1254 
L 128 1088 
L 1779 1088 
L 1779 457 
C 1779 224 1766 160 1318 160 
L 1197 160 
L 1197 0 
C 1402 0 1747 0 1965 0 
C 2182 0 2528 0 2733 0 
L 2733 160 
L 2611 160 
C 2163 160 2150 224 2150 457 
L 2150 1088 
L 2803 1088 
L 2803 1254 
L 2150 1254 
L 2150 4122 
z
M 1798 3703 
L 1798 1254 
L 256 1254 
L 1798 3703 
z
" id="CMR17-34" transform="scale(0.015625)"/>
       </defs>
       <use transform="scale(0.996264)" xlink:href="#CMR17-32"/>
       <use transform="translate(45.690477 0)scale(0.996264)" xlink:href="#CMR17-30"/>
       <use transform="translate(91.380954 0)scale(0.996264)" xlink:href="#CMR17-32"/>
       <use transform="translate(137.071431 0)scale(0.996264)" xlink:href="#CMR17-30"/>
       <use transform="translate(182.761908 0)scale(0.996264)" xlink:href="#CMR17-2f"/>
       <use transform="translate(228.452386 0)scale(0.996264)" xlink:href="#CMR17-30"/>
       <use transform="translate(274.142863 0)scale(0.996264)" xlink:href="#CMR17-33"/>
       <use transform="translate(319.83334 0)scale(0.996264)" xlink:href="#CMR17-2f"/>
       <use transform="translate(365.523817 0)scale(0.996264)" xlink:href="#CMR17-31"/>
       <use transform="translate(411.214294 0)scale(0.996264)" xlink:href="#CMR17-34"/>
      </g>
     </g>
    </g>
    <g id="xtick_9">
     <g id="line2d_9">
      <g>
       <use style="stroke:#000000;stroke-width:0.8;" x="113.726694" xlink:href="#mcaa99d6396" y="147.919051"/>
      </g>
     </g>
     <g id="text_9">
      <!-- 2020/03/16 -->
      <g transform="translate(103.430331 201.79467)rotate(-60)scale(0.1 -0.1)">
       <use transform="scale(0.996264)" xlink:href="#CMR17-32"/>
       <use transform="translate(45.690477 0)scale(0.996264)" xlink:href="#CMR17-30"/>
       <use transform="translate(91.380954 0)scale(0.996264)" xlink:href="#CMR17-32"/>
       <use transform="translate(137.071431 0)scale(0.996264)" xlink:href="#CMR17-30"/>
       <use transform="translate(182.761908 0)scale(0.996264)" xlink:href="#CMR17-2f"/>
       <use transform="translate(228.452386 0)scale(0.996264)" xlink:href="#CMR17-30"/>
       <use transform="translate(274.142863 0)scale(0.996264)" xlink:href="#CMR17-33"/>
       <use transform="translate(319.83334 0)scale(0.996264)" xlink:href="#CMR17-2f"/>
       <use transform="translate(365.523817 0)scale(0.996264)" xlink:href="#CMR17-31"/>
       <use transform="translate(411.214294 0)scale(0.996264)" xlink:href="#CMR17-36"/>
      </g>
     </g>
    </g>
    <g id="xtick_10">
     <g id="line2d_10">
      <g>
       <use style="stroke:#000000;stroke-width:0.8;" x="121.970866" xlink:href="#mcaa99d6396" y="147.919051"/>
      </g>
     </g>
     <g id="text_10">
      <!-- 2020/03/17 -->
      <g transform="translate(111.674503 201.79467)rotate(-60)scale(0.1 -0.1)">
       <use transform="scale(0.996264)" xlink:href="#CMR17-32"/>
       <use transform="translate(45.690477 0)scale(0.996264)" xlink:href="#CMR17-30"/>
       <use transform="translate(91.380954 0)scale(0.996264)" xlink:href="#CMR17-32"/>
       <use transform="translate(137.071431 0)scale(0.996264)" xlink:href="#CMR17-30"/>
       <use transform="translate(182.761908 0)scale(0.996264)" xlink:href="#CMR17-2f"/>
       <use transform="translate(228.452386 0)scale(0.996264)" xlink:href="#CMR17-30"/>
       <use transform="translate(274.142863 0)scale(0.996264)" xlink:href="#CMR17-33"/>
       <use transform="translate(319.83334 0)scale(0.996264)" xlink:href="#CMR17-2f"/>
       <use transform="translate(365.523817 0)scale(0.996264)" xlink:href="#CMR17-31"/>
       <use transform="translate(411.214294 0)scale(0.996264)" xlink:href="#CMR17-37"/>
      </g>
     </g>
    </g>
    <g id="xtick_11">
     <g id="line2d_11">
      <g>
       <use style="stroke:#000000;stroke-width:0.8;" x="130.215038" xlink:href="#mcaa99d6396" y="147.919051"/>
      </g>
     </g>
     <g id="text_11">
      <!-- 2020/03/18 -->
      <g transform="translate(119.918675 201.79467)rotate(-60)scale(0.1 -0.1)">
       <use transform="scale(0.996264)" xlink:href="#CMR17-32"/>
       <use transform="translate(45.690477 0)scale(0.996264)" xlink:href="#CMR17-30"/>
       <use transform="translate(91.380954 0)scale(0.996264)" xlink:href="#CMR17-32"/>
       <use transform="translate(137.071431 0)scale(0.996264)" xlink:href="#CMR17-30"/>
       <use transform="translate(182.761908 0)scale(0.996264)" xlink:href="#CMR17-2f"/>
       <use transform="translate(228.452386 0)scale(0.996264)" xlink:href="#CMR17-30"/>
       <use transform="translate(274.142863 0)scale(0.996264)" xlink:href="#CMR17-33"/>
       <use transform="translate(319.83334 0)scale(0.996264)" xlink:href="#CMR17-2f"/>
       <use transform="translate(365.523817 0)scale(0.996264)" xlink:href="#CMR17-31"/>
       <use transform="translate(411.214294 0)scale(0.996264)" xlink:href="#CMR17-38"/>
      </g>
     </g>
    </g>
    <g id="xtick_12">
     <g id="line2d_12">
      <g>
       <use style="stroke:#000000;stroke-width:0.8;" x="138.45921" xlink:href="#mcaa99d6396" y="147.919051"/>
      </g>
     </g>
     <g id="text_12">
      <!-- 2020/03/19 -->
      <g transform="translate(128.162847 201.79467)rotate(-60)scale(0.1 -0.1)">
       <defs>
        <path d="M 2253 1864 
C 2253 464 1670 31 1190 31 
C 1043 31 685 31 538 294 
C 704 268 826 357 826 518 
C 826 692 685 749 595 749 
C 538 749 365 723 365 506 
C 365 71 742 -128 1203 -128 
C 1939 -128 2688 674 2688 2073 
C 2688 3817 1971 4179 1485 4179 
C 851 4179 243 3628 243 2778 
C 243 1991 762 1408 1414 1408 
C 1952 1408 2189 1903 2253 2112 
L 2253 1864 
z
M 1427 1510 
C 1254 1510 1011 1542 813 1922 
C 678 2169 678 2461 678 2771 
C 678 3146 678 3405 858 3684 
C 947 3817 1114 4032 1485 4032 
C 2240 4032 2240 2885 2240 2632 
C 2240 2182 2035 1510 1427 1510 
z
" id="CMR17-39" transform="scale(0.015625)"/>
       </defs>
       <use transform="scale(0.996264)" xlink:href="#CMR17-32"/>
       <use transform="translate(45.690477 0)scale(0.996264)" xlink:href="#CMR17-30"/>
       <use transform="translate(91.380954 0)scale(0.996264)" xlink:href="#CMR17-32"/>
       <use transform="translate(137.071431 0)scale(0.996264)" xlink:href="#CMR17-30"/>
       <use transform="translate(182.761908 0)scale(0.996264)" xlink:href="#CMR17-2f"/>
       <use transform="translate(228.452386 0)scale(0.996264)" xlink:href="#CMR17-30"/>
       <use transform="translate(274.142863 0)scale(0.996264)" xlink:href="#CMR17-33"/>
       <use transform="translate(319.83334 0)scale(0.996264)" xlink:href="#CMR17-2f"/>
       <use transform="translate(365.523817 0)scale(0.996264)" xlink:href="#CMR17-31"/>
       <use transform="translate(411.214294 0)scale(0.996264)" xlink:href="#CMR17-39"/>
      </g>
     </g>
    </g>
    <g id="xtick_13">
     <g id="line2d_13">
      <g>
       <use style="stroke:#000000;stroke-width:0.8;" x="146.703382" xlink:href="#mcaa99d6396" y="147.919051"/>
      </g>
     </g>
     <g id="text_13">
      <!-- 2020/03/20 -->
      <g transform="translate(136.407019 201.79467)rotate(-60)scale(0.1 -0.1)">
       <use transform="scale(0.996264)" xlink:href="#CMR17-32"/>
       <use transform="translate(45.690477 0)scale(0.996264)" xlink:href="#CMR17-30"/>
       <use transform="translate(91.380954 0)scale(0.996264)" xlink:href="#CMR17-32"/>
       <use transform="translate(137.071431 0)scale(0.996264)" xlink:href="#CMR17-30"/>
       <use transform="translate(182.761908 0)scale(0.996264)" xlink:href="#CMR17-2f"/>
       <use transform="translate(228.452386 0)scale(0.996264)" xlink:href="#CMR17-30"/>
       <use transform="translate(274.142863 0)scale(0.996264)" xlink:href="#CMR17-33"/>
       <use transform="translate(319.83334 0)scale(0.996264)" xlink:href="#CMR17-2f"/>
       <use transform="translate(365.523817 0)scale(0.996264)" xlink:href="#CMR17-32"/>
       <use transform="translate(411.214294 0)scale(0.996264)" xlink:href="#CMR17-30"/>
      </g>
     </g>
    </g>
    <g id="xtick_14">
     <g id="line2d_14">
      <g>
       <use style="stroke:#000000;stroke-width:0.8;" x="154.947554" xlink:href="#mcaa99d6396" y="147.919051"/>
      </g>
     </g>
     <g id="text_14">
      <!-- 2020/03/21 -->
      <g transform="translate(144.65119 201.79467)rotate(-60)scale(0.1 -0.1)">
       <use transform="scale(0.996264)" xlink:href="#CMR17-32"/>
       <use transform="translate(45.690477 0)scale(0.996264)" xlink:href="#CMR17-30"/>
       <use transform="translate(91.380954 0)scale(0.996264)" xlink:href="#CMR17-32"/>
       <use transform="translate(137.071431 0)scale(0.996264)" xlink:href="#CMR17-30"/>
       <use transform="translate(182.761908 0)scale(0.996264)" xlink:href="#CMR17-2f"/>
       <use transform="translate(228.452386 0)scale(0.996264)" xlink:href="#CMR17-30"/>
       <use transform="translate(274.142863 0)scale(0.996264)" xlink:href="#CMR17-33"/>
       <use transform="translate(319.83334 0)scale(0.996264)" xlink:href="#CMR17-2f"/>
       <use transform="translate(365.523817 0)scale(0.996264)" xlink:href="#CMR17-32"/>
       <use transform="translate(411.214294 0)scale(0.996264)" xlink:href="#CMR17-31"/>
      </g>
     </g>
    </g>
    <g id="xtick_15">
     <g id="line2d_15">
      <g>
       <use style="stroke:#000000;stroke-width:0.8;" x="163.191726" xlink:href="#mcaa99d6396" y="147.919051"/>
      </g>
     </g>
     <g id="text_15">
      <!-- 2020/03/22 -->
      <g transform="translate(152.895362 201.79467)rotate(-60)scale(0.1 -0.1)">
       <use transform="scale(0.996264)" xlink:href="#CMR17-32"/>
       <use transform="translate(45.690477 0)scale(0.996264)" xlink:href="#CMR17-30"/>
       <use transform="translate(91.380954 0)scale(0.996264)" xlink:href="#CMR17-32"/>
       <use transform="translate(137.071431 0)scale(0.996264)" xlink:href="#CMR17-30"/>
       <use transform="translate(182.761908 0)scale(0.996264)" xlink:href="#CMR17-2f"/>
       <use transform="translate(228.452386 0)scale(0.996264)" xlink:href="#CMR17-30"/>
       <use transform="translate(274.142863 0)scale(0.996264)" xlink:href="#CMR17-33"/>
       <use transform="translate(319.83334 0)scale(0.996264)" xlink:href="#CMR17-2f"/>
       <use transform="translate(365.523817 0)scale(0.996264)" xlink:href="#CMR17-32"/>
       <use transform="translate(411.214294 0)scale(0.996264)" xlink:href="#CMR17-32"/>
      </g>
     </g>
    </g>
    <g id="xtick_16">
     <g id="line2d_16">
      <g>
       <use style="stroke:#000000;stroke-width:0.8;" x="171.435898" xlink:href="#mcaa99d6396" y="147.919051"/>
      </g>
     </g>
     <g id="text_16">
      <!-- 2020/03/23 -->
      <g transform="translate(161.139534 201.79467)rotate(-60)scale(0.1 -0.1)">
       <use transform="scale(0.996264)" xlink:href="#CMR17-32"/>
       <use transform="translate(45.690477 0)scale(0.996264)" xlink:href="#CMR17-30"/>
       <use transform="translate(91.380954 0)scale(0.996264)" xlink:href="#CMR17-32"/>
       <use transform="translate(137.071431 0)scale(0.996264)" xlink:href="#CMR17-30"/>
       <use transform="translate(182.761908 0)scale(0.996264)" xlink:href="#CMR17-2f"/>
       <use transform="translate(228.452386 0)scale(0.996264)" xlink:href="#CMR17-30"/>
       <use transform="translate(274.142863 0)scale(0.996264)" xlink:href="#CMR17-33"/>
       <use transform="translate(319.83334 0)scale(0.996264)" xlink:href="#CMR17-2f"/>
       <use transform="translate(365.523817 0)scale(0.996264)" xlink:href="#CMR17-32"/>
       <use transform="translate(411.214294 0)scale(0.996264)" xlink:href="#CMR17-33"/>
      </g>
     </g>
    </g>
    <g id="xtick_17">
     <g id="line2d_17">
      <g>
       <use style="stroke:#000000;stroke-width:0.8;" x="179.68007" xlink:href="#mcaa99d6396" y="147.919051"/>
      </g>
     </g>
     <g id="text_17">
      <!-- 2020/03/24 -->
      <g transform="translate(169.383706 201.79467)rotate(-60)scale(0.1 -0.1)">
       <use transform="scale(0.996264)" xlink:href="#CMR17-32"/>
       <use transform="translate(45.690477 0)scale(0.996264)" xlink:href="#CMR17-30"/>
       <use transform="translate(91.380954 0)scale(0.996264)" xlink:href="#CMR17-32"/>
       <use transform="translate(137.071431 0)scale(0.996264)" xlink:href="#CMR17-30"/>
       <use transform="translate(182.761908 0)scale(0.996264)" xlink:href="#CMR17-2f"/>
       <use transform="translate(228.452386 0)scale(0.996264)" xlink:href="#CMR17-30"/>
       <use transform="translate(274.142863 0)scale(0.996264)" xlink:href="#CMR17-33"/>
       <use transform="translate(319.83334 0)scale(0.996264)" xlink:href="#CMR17-2f"/>
       <use transform="translate(365.523817 0)scale(0.996264)" xlink:href="#CMR17-32"/>
       <use transform="translate(411.214294 0)scale(0.996264)" xlink:href="#CMR17-34"/>
      </g>
     </g>
    </g>
    <g id="xtick_18">
     <g id="line2d_18">
      <g>
       <use style="stroke:#000000;stroke-width:0.8;" x="187.924242" xlink:href="#mcaa99d6396" y="147.919051"/>
      </g>
     </g>
     <g id="text_18">
      <!-- 2020/03/25 -->
      <g transform="translate(177.627878 201.79467)rotate(-60)scale(0.1 -0.1)">
       <use transform="scale(0.996264)" xlink:href="#CMR17-32"/>
       <use transform="translate(45.690477 0)scale(0.996264)" xlink:href="#CMR17-30"/>
       <use transform="translate(91.380954 0)scale(0.996264)" xlink:href="#CMR17-32"/>
       <use transform="translate(137.071431 0)scale(0.996264)" xlink:href="#CMR17-30"/>
       <use transform="translate(182.761908 0)scale(0.996264)" xlink:href="#CMR17-2f"/>
       <use transform="translate(228.452386 0)scale(0.996264)" xlink:href="#CMR17-30"/>
       <use transform="translate(274.142863 0)scale(0.996264)" xlink:href="#CMR17-33"/>
       <use transform="translate(319.83334 0)scale(0.996264)" xlink:href="#CMR17-2f"/>
       <use transform="translate(365.523817 0)scale(0.996264)" xlink:href="#CMR17-32"/>
       <use transform="translate(411.214294 0)scale(0.996264)" xlink:href="#CMR17-35"/>
      </g>
     </g>
    </g>
    <g id="xtick_19">
     <g id="line2d_19">
      <g>
       <use style="stroke:#000000;stroke-width:0.8;" x="196.168414" xlink:href="#mcaa99d6396" y="147.919051"/>
      </g>
     </g>
     <g id="text_19">
      <!-- 2020/03/26 -->
      <g transform="translate(185.87205 201.79467)rotate(-60)scale(0.1 -0.1)">
       <use transform="scale(0.996264)" xlink:href="#CMR17-32"/>
       <use transform="translate(45.690477 0)scale(0.996264)" xlink:href="#CMR17-30"/>
       <use transform="translate(91.380954 0)scale(0.996264)" xlink:href="#CMR17-32"/>
       <use transform="translate(137.071431 0)scale(0.996264)" xlink:href="#CMR17-30"/>
       <use transform="translate(182.761908 0)scale(0.996264)" xlink:href="#CMR17-2f"/>
       <use transform="translate(228.452386 0)scale(0.996264)" xlink:href="#CMR17-30"/>
       <use transform="translate(274.142863 0)scale(0.996264)" xlink:href="#CMR17-33"/>
       <use transform="translate(319.83334 0)scale(0.996264)" xlink:href="#CMR17-2f"/>
       <use transform="translate(365.523817 0)scale(0.996264)" xlink:href="#CMR17-32"/>
       <use transform="translate(411.214294 0)scale(0.996264)" xlink:href="#CMR17-36"/>
      </g>
     </g>
    </g>
    <g id="xtick_20">
     <g id="line2d_20">
      <g>
       <use style="stroke:#000000;stroke-width:0.8;" x="204.412585" xlink:href="#mcaa99d6396" y="147.919051"/>
      </g>
     </g>
     <g id="text_20">
      <!-- 2020/03/27 -->
      <g transform="translate(194.116222 201.79467)rotate(-60)scale(0.1 -0.1)">
       <use transform="scale(0.996264)" xlink:href="#CMR17-32"/>
       <use transform="translate(45.690477 0)scale(0.996264)" xlink:href="#CMR17-30"/>
       <use transform="translate(91.380954 0)scale(0.996264)" xlink:href="#CMR17-32"/>
       <use transform="translate(137.071431 0)scale(0.996264)" xlink:href="#CMR17-30"/>
       <use transform="translate(182.761908 0)scale(0.996264)" xlink:href="#CMR17-2f"/>
       <use transform="translate(228.452386 0)scale(0.996264)" xlink:href="#CMR17-30"/>
       <use transform="translate(274.142863 0)scale(0.996264)" xlink:href="#CMR17-33"/>
       <use transform="translate(319.83334 0)scale(0.996264)" xlink:href="#CMR17-2f"/>
       <use transform="translate(365.523817 0)scale(0.996264)" xlink:href="#CMR17-32"/>
       <use transform="translate(411.214294 0)scale(0.996264)" xlink:href="#CMR17-37"/>
      </g>
     </g>
    </g>
    <g id="xtick_21">
     <g id="line2d_21">
      <g>
       <use style="stroke:#000000;stroke-width:0.8;" x="212.656757" xlink:href="#mcaa99d6396" y="147.919051"/>
      </g>
     </g>
     <g id="text_21">
      <!-- 2020/03/28 -->
      <g transform="translate(202.360394 201.79467)rotate(-60)scale(0.1 -0.1)">
       <use transform="scale(0.996264)" xlink:href="#CMR17-32"/>
       <use transform="translate(45.690477 0)scale(0.996264)" xlink:href="#CMR17-30"/>
       <use transform="translate(91.380954 0)scale(0.996264)" xlink:href="#CMR17-32"/>
       <use transform="translate(137.071431 0)scale(0.996264)" xlink:href="#CMR17-30"/>
       <use transform="translate(182.761908 0)scale(0.996264)" xlink:href="#CMR17-2f"/>
       <use transform="translate(228.452386 0)scale(0.996264)" xlink:href="#CMR17-30"/>
       <use transform="translate(274.142863 0)scale(0.996264)" xlink:href="#CMR17-33"/>
       <use transform="translate(319.83334 0)scale(0.996264)" xlink:href="#CMR17-2f"/>
       <use transform="translate(365.523817 0)scale(0.996264)" xlink:href="#CMR17-32"/>
       <use transform="translate(411.214294 0)scale(0.996264)" xlink:href="#CMR17-38"/>
      </g>
     </g>
    </g>
    <g id="xtick_22">
     <g id="line2d_22">
      <g>
       <use style="stroke:#000000;stroke-width:0.8;" x="220.900929" xlink:href="#mcaa99d6396" y="147.919051"/>
      </g>
     </g>
     <g id="text_22">
      <!-- 2020/03/30 -->
      <g transform="translate(210.604566 201.79467)rotate(-60)scale(0.1 -0.1)">
       <use transform="scale(0.996264)" xlink:href="#CMR17-32"/>
       <use transform="translate(45.690477 0)scale(0.996264)" xlink:href="#CMR17-30"/>
       <use transform="translate(91.380954 0)scale(0.996264)" xlink:href="#CMR17-32"/>
       <use transform="translate(137.071431 0)scale(0.996264)" xlink:href="#CMR17-30"/>
       <use transform="translate(182.761908 0)scale(0.996264)" xlink:href="#CMR17-2f"/>
       <use transform="translate(228.452386 0)scale(0.996264)" xlink:href="#CMR17-30"/>
       <use transform="translate(274.142863 0)scale(0.996264)" xlink:href="#CMR17-33"/>
       <use transform="translate(319.83334 0)scale(0.996264)" xlink:href="#CMR17-2f"/>
       <use transform="translate(365.523817 0)scale(0.996264)" xlink:href="#CMR17-33"/>
       <use transform="translate(411.214294 0)scale(0.996264)" xlink:href="#CMR17-30"/>
      </g>
     </g>
    </g>
    <g id="xtick_23">
     <g id="line2d_23">
      <g>
       <use style="stroke:#000000;stroke-width:0.8;" x="229.145101" xlink:href="#mcaa99d6396" y="147.919051"/>
      </g>
     </g>
     <g id="text_23">
      <!-- 2020/03/31 -->
      <g transform="translate(218.848738 201.79467)rotate(-60)scale(0.1 -0.1)">
       <use transform="scale(0.996264)" xlink:href="#CMR17-32"/>
       <use transform="translate(45.690477 0)scale(0.996264)" xlink:href="#CMR17-30"/>
       <use transform="translate(91.380954 0)scale(0.996264)" xlink:href="#CMR17-32"/>
       <use transform="translate(137.071431 0)scale(0.996264)" xlink:href="#CMR17-30"/>
       <use transform="translate(182.761908 0)scale(0.996264)" xlink:href="#CMR17-2f"/>
       <use transform="translate(228.452386 0)scale(0.996264)" xlink:href="#CMR17-30"/>
       <use transform="translate(274.142863 0)scale(0.996264)" xlink:href="#CMR17-33"/>
       <use transform="translate(319.83334 0)scale(0.996264)" xlink:href="#CMR17-2f"/>
       <use transform="translate(365.523817 0)scale(0.996264)" xlink:href="#CMR17-33"/>
       <use transform="translate(411.214294 0)scale(0.996264)" xlink:href="#CMR17-31"/>
      </g>
     </g>
    </g>
    <g id="xtick_24">
     <g id="line2d_24">
      <g>
       <use style="stroke:#000000;stroke-width:0.8;" x="237.389273" xlink:href="#mcaa99d6396" y="147.919051"/>
      </g>
     </g>
     <g id="text_24">
      <!-- 2020/04/01 -->
      <g transform="translate(227.09291 201.79467)rotate(-60)scale(0.1 -0.1)">
       <use transform="scale(0.996264)" xlink:href="#CMR17-32"/>
       <use transform="translate(45.690477 0)scale(0.996264)" xlink:href="#CMR17-30"/>
       <use transform="translate(91.380954 0)scale(0.996264)" xlink:href="#CMR17-32"/>
       <use transform="translate(137.071431 0)scale(0.996264)" xlink:href="#CMR17-30"/>
       <use transform="translate(182.761908 0)scale(0.996264)" xlink:href="#CMR17-2f"/>
       <use transform="translate(228.452386 0)scale(0.996264)" xlink:href="#CMR17-30"/>
       <use transform="translate(274.142863 0)scale(0.996264)" xlink:href="#CMR17-34"/>
       <use transform="translate(319.83334 0)scale(0.996264)" xlink:href="#CMR17-2f"/>
       <use transform="translate(365.523817 0)scale(0.996264)" xlink:href="#CMR17-30"/>
       <use transform="translate(411.214294 0)scale(0.996264)" xlink:href="#CMR17-31"/>
      </g>
     </g>
    </g>
    <g id="xtick_25">
     <g id="line2d_25">
      <g>
       <use style="stroke:#000000;stroke-width:0.8;" x="245.633445" xlink:href="#mcaa99d6396" y="147.919051"/>
      </g>
     </g>
     <g id="text_25">
      <!-- 2020/04/02 -->
      <g transform="translate(235.337082 201.79467)rotate(-60)scale(0.1 -0.1)">
       <use transform="scale(0.996264)" xlink:href="#CMR17-32"/>
       <use transform="translate(45.690477 0)scale(0.996264)" xlink:href="#CMR17-30"/>
       <use transform="translate(91.380954 0)scale(0.996264)" xlink:href="#CMR17-32"/>
       <use transform="translate(137.071431 0)scale(0.996264)" xlink:href="#CMR17-30"/>
       <use transform="translate(182.761908 0)scale(0.996264)" xlink:href="#CMR17-2f"/>
       <use transform="translate(228.452386 0)scale(0.996264)" xlink:href="#CMR17-30"/>
       <use transform="translate(274.142863 0)scale(0.996264)" xlink:href="#CMR17-34"/>
       <use transform="translate(319.83334 0)scale(0.996264)" xlink:href="#CMR17-2f"/>
       <use transform="translate(365.523817 0)scale(0.996264)" xlink:href="#CMR17-30"/>
       <use transform="translate(411.214294 0)scale(0.996264)" xlink:href="#CMR17-32"/>
      </g>
     </g>
    </g>
    <g id="xtick_26">
     <g id="line2d_26">
      <g>
       <use style="stroke:#000000;stroke-width:0.8;" x="253.877617" xlink:href="#mcaa99d6396" y="147.919051"/>
      </g>
     </g>
     <g id="text_26">
      <!-- 2020/04/03 -->
      <g transform="translate(243.581254 201.79467)rotate(-60)scale(0.1 -0.1)">
       <use transform="scale(0.996264)" xlink:href="#CMR17-32"/>
       <use transform="translate(45.690477 0)scale(0.996264)" xlink:href="#CMR17-30"/>
       <use transform="translate(91.380954 0)scale(0.996264)" xlink:href="#CMR17-32"/>
       <use transform="translate(137.071431 0)scale(0.996264)" xlink:href="#CMR17-30"/>
       <use transform="translate(182.761908 0)scale(0.996264)" xlink:href="#CMR17-2f"/>
       <use transform="translate(228.452386 0)scale(0.996264)" xlink:href="#CMR17-30"/>
       <use transform="translate(274.142863 0)scale(0.996264)" xlink:href="#CMR17-34"/>
       <use transform="translate(319.83334 0)scale(0.996264)" xlink:href="#CMR17-2f"/>
       <use transform="translate(365.523817 0)scale(0.996264)" xlink:href="#CMR17-30"/>
       <use transform="translate(411.214294 0)scale(0.996264)" xlink:href="#CMR17-33"/>
      </g>
     </g>
    </g>
    <g id="xtick_27">
     <g id="line2d_27">
      <g>
       <use style="stroke:#000000;stroke-width:0.8;" x="262.121789" xlink:href="#mcaa99d6396" y="147.919051"/>
      </g>
     </g>
     <g id="text_27">
      <!-- 2020/04/04 -->
      <g transform="translate(251.825426 201.79467)rotate(-60)scale(0.1 -0.1)">
       <use transform="scale(0.996264)" xlink:href="#CMR17-32"/>
       <use transform="translate(45.690477 0)scale(0.996264)" xlink:href="#CMR17-30"/>
       <use transform="translate(91.380954 0)scale(0.996264)" xlink:href="#CMR17-32"/>
       <use transform="translate(137.071431 0)scale(0.996264)" xlink:href="#CMR17-30"/>
       <use transform="translate(182.761908 0)scale(0.996264)" xlink:href="#CMR17-2f"/>
       <use transform="translate(228.452386 0)scale(0.996264)" xlink:href="#CMR17-30"/>
       <use transform="translate(274.142863 0)scale(0.996264)" xlink:href="#CMR17-34"/>
       <use transform="translate(319.83334 0)scale(0.996264)" xlink:href="#CMR17-2f"/>
       <use transform="translate(365.523817 0)scale(0.996264)" xlink:href="#CMR17-30"/>
       <use transform="translate(411.214294 0)scale(0.996264)" xlink:href="#CMR17-34"/>
      </g>
     </g>
    </g>
    <g id="xtick_28">
     <g id="line2d_28">
      <g>
       <use style="stroke:#000000;stroke-width:0.8;" x="270.365961" xlink:href="#mcaa99d6396" y="147.919051"/>
      </g>
     </g>
     <g id="text_28">
      <!-- 2020/04/05 -->
      <g transform="translate(260.069598 201.79467)rotate(-60)scale(0.1 -0.1)">
       <use transform="scale(0.996264)" xlink:href="#CMR17-32"/>
       <use transform="translate(45.690477 0)scale(0.996264)" xlink:href="#CMR17-30"/>
       <use transform="translate(91.380954 0)scale(0.996264)" xlink:href="#CMR17-32"/>
       <use transform="translate(137.071431 0)scale(0.996264)" xlink:href="#CMR17-30"/>
       <use transform="translate(182.761908 0)scale(0.996264)" xlink:href="#CMR17-2f"/>
       <use transform="translate(228.452386 0)scale(0.996264)" xlink:href="#CMR17-30"/>
       <use transform="translate(274.142863 0)scale(0.996264)" xlink:href="#CMR17-34"/>
       <use transform="translate(319.83334 0)scale(0.996264)" xlink:href="#CMR17-2f"/>
       <use transform="translate(365.523817 0)scale(0.996264)" xlink:href="#CMR17-30"/>
       <use transform="translate(411.214294 0)scale(0.996264)" xlink:href="#CMR17-35"/>
      </g>
     </g>
    </g>
    <g id="xtick_29">
     <g id="line2d_29">
      <g>
       <use style="stroke:#000000;stroke-width:0.8;" x="278.610133" xlink:href="#mcaa99d6396" y="147.919051"/>
      </g>
     </g>
     <g id="text_29">
      <!-- 2020/04/06 -->
      <g transform="translate(268.31377 201.79467)rotate(-60)scale(0.1 -0.1)">
       <use transform="scale(0.996264)" xlink:href="#CMR17-32"/>
       <use transform="translate(45.690477 0)scale(0.996264)" xlink:href="#CMR17-30"/>
       <use transform="translate(91.380954 0)scale(0.996264)" xlink:href="#CMR17-32"/>
       <use transform="translate(137.071431 0)scale(0.996264)" xlink:href="#CMR17-30"/>
       <use transform="translate(182.761908 0)scale(0.996264)" xlink:href="#CMR17-2f"/>
       <use transform="translate(228.452386 0)scale(0.996264)" xlink:href="#CMR17-30"/>
       <use transform="translate(274.142863 0)scale(0.996264)" xlink:href="#CMR17-34"/>
       <use transform="translate(319.83334 0)scale(0.996264)" xlink:href="#CMR17-2f"/>
       <use transform="translate(365.523817 0)scale(0.996264)" xlink:href="#CMR17-30"/>
       <use transform="translate(411.214294 0)scale(0.996264)" xlink:href="#CMR17-36"/>
      </g>
     </g>
    </g>
    <g id="xtick_30">
     <g id="line2d_30">
      <g>
       <use style="stroke:#000000;stroke-width:0.8;" x="286.854305" xlink:href="#mcaa99d6396" y="147.919051"/>
      </g>
     </g>
     <g id="text_30">
      <!-- 2020/04/07 -->
      <g transform="translate(276.557942 201.79467)rotate(-60)scale(0.1 -0.1)">
       <use transform="scale(0.996264)" xlink:href="#CMR17-32"/>
       <use transform="translate(45.690477 0)scale(0.996264)" xlink:href="#CMR17-30"/>
       <use transform="translate(91.380954 0)scale(0.996264)" xlink:href="#CMR17-32"/>
       <use transform="translate(137.071431 0)scale(0.996264)" xlink:href="#CMR17-30"/>
       <use transform="translate(182.761908 0)scale(0.996264)" xlink:href="#CMR17-2f"/>
       <use transform="translate(228.452386 0)scale(0.996264)" xlink:href="#CMR17-30"/>
       <use transform="translate(274.142863 0)scale(0.996264)" xlink:href="#CMR17-34"/>
       <use transform="translate(319.83334 0)scale(0.996264)" xlink:href="#CMR17-2f"/>
       <use transform="translate(365.523817 0)scale(0.996264)" xlink:href="#CMR17-30"/>
       <use transform="translate(411.214294 0)scale(0.996264)" xlink:href="#CMR17-37"/>
      </g>
     </g>
    </g>
    <g id="xtick_31">
     <g id="line2d_31">
      <g>
       <use style="stroke:#000000;stroke-width:0.8;" x="295.098477" xlink:href="#mcaa99d6396" y="147.919051"/>
      </g>
     </g>
     <g id="text_31">
      <!-- 2020/04/08 -->
      <g transform="translate(284.802114 201.79467)rotate(-60)scale(0.1 -0.1)">
       <use transform="scale(0.996264)" xlink:href="#CMR17-32"/>
       <use transform="translate(45.690477 0)scale(0.996264)" xlink:href="#CMR17-30"/>
       <use transform="translate(91.380954 0)scale(0.996264)" xlink:href="#CMR17-32"/>
       <use transform="translate(137.071431 0)scale(0.996264)" xlink:href="#CMR17-30"/>
       <use transform="translate(182.761908 0)scale(0.996264)" xlink:href="#CMR17-2f"/>
       <use transform="translate(228.452386 0)scale(0.996264)" xlink:href="#CMR17-30"/>
       <use transform="translate(274.142863 0)scale(0.996264)" xlink:href="#CMR17-34"/>
       <use transform="translate(319.83334 0)scale(0.996264)" xlink:href="#CMR17-2f"/>
       <use transform="translate(365.523817 0)scale(0.996264)" xlink:href="#CMR17-30"/>
       <use transform="translate(411.214294 0)scale(0.996264)" xlink:href="#CMR17-38"/>
      </g>
     </g>
    </g>
    <g id="xtick_32">
     <g id="line2d_32">
      <g>
       <use style="stroke:#000000;stroke-width:0.8;" x="303.342649" xlink:href="#mcaa99d6396" y="147.919051"/>
      </g>
     </g>
     <g id="text_32">
      <!-- 2020/04/10 -->
      <g transform="translate(293.046286 201.79467)rotate(-60)scale(0.1 -0.1)">
       <use transform="scale(0.996264)" xlink:href="#CMR17-32"/>
       <use transform="translate(45.690477 0)scale(0.996264)" xlink:href="#CMR17-30"/>
       <use transform="translate(91.380954 0)scale(0.996264)" xlink:href="#CMR17-32"/>
       <use transform="translate(137.071431 0)scale(0.996264)" xlink:href="#CMR17-30"/>
       <use transform="translate(182.761908 0)scale(0.996264)" xlink:href="#CMR17-2f"/>
       <use transform="translate(228.452386 0)scale(0.996264)" xlink:href="#CMR17-30"/>
       <use transform="translate(274.142863 0)scale(0.996264)" xlink:href="#CMR17-34"/>
       <use transform="translate(319.83334 0)scale(0.996264)" xlink:href="#CMR17-2f"/>
       <use transform="translate(365.523817 0)scale(0.996264)" xlink:href="#CMR17-31"/>
       <use transform="translate(411.214294 0)scale(0.996264)" xlink:href="#CMR17-30"/>
      </g>
     </g>
    </g>
    <g id="xtick_33">
     <g id="line2d_33">
      <g>
       <use style="stroke:#000000;stroke-width:0.8;" x="311.586821" xlink:href="#mcaa99d6396" y="147.919051"/>
      </g>
     </g>
     <g id="text_33">
      <!-- 2020/04/13 -->
      <g transform="translate(301.290457 201.79467)rotate(-60)scale(0.1 -0.1)">
       <use transform="scale(0.996264)" xlink:href="#CMR17-32"/>
       <use transform="translate(45.690477 0)scale(0.996264)" xlink:href="#CMR17-30"/>
       <use transform="translate(91.380954 0)scale(0.996264)" xlink:href="#CMR17-32"/>
       <use transform="translate(137.071431 0)scale(0.996264)" xlink:href="#CMR17-30"/>
       <use transform="translate(182.761908 0)scale(0.996264)" xlink:href="#CMR17-2f"/>
       <use transform="translate(228.452386 0)scale(0.996264)" xlink:href="#CMR17-30"/>
       <use transform="translate(274.142863 0)scale(0.996264)" xlink:href="#CMR17-34"/>
       <use transform="translate(319.83334 0)scale(0.996264)" xlink:href="#CMR17-2f"/>
       <use transform="translate(365.523817 0)scale(0.996264)" xlink:href="#CMR17-31"/>
       <use transform="translate(411.214294 0)scale(0.996264)" xlink:href="#CMR17-33"/>
      </g>
     </g>
    </g>
    <g id="xtick_34">
     <g id="line2d_34">
      <g>
       <use style="stroke:#000000;stroke-width:0.8;" x="319.830993" xlink:href="#mcaa99d6396" y="147.919051"/>
      </g>
     </g>
     <g id="text_34">
      <!-- 2020/04/14 -->
      <g transform="translate(309.534629 201.79467)rotate(-60)scale(0.1 -0.1)">
       <use transform="scale(0.996264)" xlink:href="#CMR17-32"/>
       <use transform="translate(45.690477 0)scale(0.996264)" xlink:href="#CMR17-30"/>
       <use transform="translate(91.380954 0)scale(0.996264)" xlink:href="#CMR17-32"/>
       <use transform="translate(137.071431 0)scale(0.996264)" xlink:href="#CMR17-30"/>
       <use transform="translate(182.761908 0)scale(0.996264)" xlink:href="#CMR17-2f"/>
       <use transform="translate(228.452386 0)scale(0.996264)" xlink:href="#CMR17-30"/>
       <use transform="translate(274.142863 0)scale(0.996264)" xlink:href="#CMR17-34"/>
       <use transform="translate(319.83334 0)scale(0.996264)" xlink:href="#CMR17-2f"/>
       <use transform="translate(365.523817 0)scale(0.996264)" xlink:href="#CMR17-31"/>
       <use transform="translate(411.214294 0)scale(0.996264)" xlink:href="#CMR17-34"/>
      </g>
     </g>
    </g>
    <g id="xtick_35">
     <g id="line2d_35">
      <g>
       <use style="stroke:#000000;stroke-width:0.8;" x="328.075165" xlink:href="#mcaa99d6396" y="147.919051"/>
      </g>
     </g>
     <g id="text_35">
      <!-- 2020/04/18 -->
      <g transform="translate(317.778801 201.79467)rotate(-60)scale(0.1 -0.1)">
       <use transform="scale(0.996264)" xlink:href="#CMR17-32"/>
       <use transform="translate(45.690477 0)scale(0.996264)" xlink:href="#CMR17-30"/>
       <use transform="translate(91.380954 0)scale(0.996264)" xlink:href="#CMR17-32"/>
       <use transform="translate(137.071431 0)scale(0.996264)" xlink:href="#CMR17-30"/>
       <use transform="translate(182.761908 0)scale(0.996264)" xlink:href="#CMR17-2f"/>
       <use transform="translate(228.452386 0)scale(0.996264)" xlink:href="#CMR17-30"/>
       <use transform="translate(274.142863 0)scale(0.996264)" xlink:href="#CMR17-34"/>
       <use transform="translate(319.83334 0)scale(0.996264)" xlink:href="#CMR17-2f"/>
       <use transform="translate(365.523817 0)scale(0.996264)" xlink:href="#CMR17-31"/>
       <use transform="translate(411.214294 0)scale(0.996264)" xlink:href="#CMR17-38"/>
      </g>
     </g>
    </g>
    <g id="xtick_36">
     <g id="line2d_36">
      <g>
       <use style="stroke:#000000;stroke-width:0.8;" x="336.319337" xlink:href="#mcaa99d6396" y="147.919051"/>
      </g>
     </g>
     <g id="text_36">
      <!-- 2020/04/20 -->
      <g transform="translate(326.022973 201.79467)rotate(-60)scale(0.1 -0.1)">
       <use transform="scale(0.996264)" xlink:href="#CMR17-32"/>
       <use transform="translate(45.690477 0)scale(0.996264)" xlink:href="#CMR17-30"/>
       <use transform="translate(91.380954 0)scale(0.996264)" xlink:href="#CMR17-32"/>
       <use transform="translate(137.071431 0)scale(0.996264)" xlink:href="#CMR17-30"/>
       <use transform="translate(182.761908 0)scale(0.996264)" xlink:href="#CMR17-2f"/>
       <use transform="translate(228.452386 0)scale(0.996264)" xlink:href="#CMR17-30"/>
       <use transform="translate(274.142863 0)scale(0.996264)" xlink:href="#CMR17-34"/>
       <use transform="translate(319.83334 0)scale(0.996264)" xlink:href="#CMR17-2f"/>
       <use transform="translate(365.523817 0)scale(0.996264)" xlink:href="#CMR17-32"/>
       <use transform="translate(411.214294 0)scale(0.996264)" xlink:href="#CMR17-30"/>
      </g>
     </g>
    </g>
    <g id="xtick_37">
     <g id="line2d_37">
      <g>
       <use style="stroke:#000000;stroke-width:0.8;" x="344.563509" xlink:href="#mcaa99d6396" y="147.919051"/>
      </g>
     </g>
     <g id="text_37">
      <!-- 2020/04/21 -->
      <g transform="translate(334.267145 201.79467)rotate(-60)scale(0.1 -0.1)">
       <use transform="scale(0.996264)" xlink:href="#CMR17-32"/>
       <use transform="translate(45.690477 0)scale(0.996264)" xlink:href="#CMR17-30"/>
       <use transform="translate(91.380954 0)scale(0.996264)" xlink:href="#CMR17-32"/>
       <use transform="translate(137.071431 0)scale(0.996264)" xlink:href="#CMR17-30"/>
       <use transform="translate(182.761908 0)scale(0.996264)" xlink:href="#CMR17-2f"/>
       <use transform="translate(228.452386 0)scale(0.996264)" xlink:href="#CMR17-30"/>
       <use transform="translate(274.142863 0)scale(0.996264)" xlink:href="#CMR17-34"/>
       <use transform="translate(319.83334 0)scale(0.996264)" xlink:href="#CMR17-2f"/>
       <use transform="translate(365.523817 0)scale(0.996264)" xlink:href="#CMR17-32"/>
       <use transform="translate(411.214294 0)scale(0.996264)" xlink:href="#CMR17-31"/>
      </g>
     </g>
    </g>
    <g id="xtick_38">
     <g id="line2d_38">
      <g>
       <use style="stroke:#000000;stroke-width:0.8;" x="352.80768" xlink:href="#mcaa99d6396" y="147.919051"/>
      </g>
     </g>
     <g id="text_38">
      <!-- 2020/04/27 -->
      <g transform="translate(342.511317 201.79467)rotate(-60)scale(0.1 -0.1)">
       <use transform="scale(0.996264)" xlink:href="#CMR17-32"/>
       <use transform="translate(45.690477 0)scale(0.996264)" xlink:href="#CMR17-30"/>
       <use transform="translate(91.380954 0)scale(0.996264)" xlink:href="#CMR17-32"/>
       <use transform="translate(137.071431 0)scale(0.996264)" xlink:href="#CMR17-30"/>
       <use transform="translate(182.761908 0)scale(0.996264)" xlink:href="#CMR17-2f"/>
       <use transform="translate(228.452386 0)scale(0.996264)" xlink:href="#CMR17-30"/>
       <use transform="translate(274.142863 0)scale(0.996264)" xlink:href="#CMR17-34"/>
       <use transform="translate(319.83334 0)scale(0.996264)" xlink:href="#CMR17-2f"/>
       <use transform="translate(365.523817 0)scale(0.996264)" xlink:href="#CMR17-32"/>
       <use transform="translate(411.214294 0)scale(0.996264)" xlink:href="#CMR17-37"/>
      </g>
     </g>
    </g>
    <g id="xtick_39">
     <g id="line2d_39">
      <g>
       <use style="stroke:#000000;stroke-width:0.8;" x="361.051852" xlink:href="#mcaa99d6396" y="147.919051"/>
      </g>
     </g>
     <g id="text_39">
      <!-- 2020/04/30 -->
      <g transform="translate(350.755489 201.79467)rotate(-60)scale(0.1 -0.1)">
       <use transform="scale(0.996264)" xlink:href="#CMR17-32"/>
       <use transform="translate(45.690477 0)scale(0.996264)" xlink:href="#CMR17-30"/>
       <use transform="translate(91.380954 0)scale(0.996264)" xlink:href="#CMR17-32"/>
       <use transform="translate(137.071431 0)scale(0.996264)" xlink:href="#CMR17-30"/>
       <use transform="translate(182.761908 0)scale(0.996264)" xlink:href="#CMR17-2f"/>
       <use transform="translate(228.452386 0)scale(0.996264)" xlink:href="#CMR17-30"/>
       <use transform="translate(274.142863 0)scale(0.996264)" xlink:href="#CMR17-34"/>
       <use transform="translate(319.83334 0)scale(0.996264)" xlink:href="#CMR17-2f"/>
       <use transform="translate(365.523817 0)scale(0.996264)" xlink:href="#CMR17-33"/>
       <use transform="translate(411.214294 0)scale(0.996264)" xlink:href="#CMR17-30"/>
      </g>
     </g>
    </g>
    <g id="xtick_40">
     <g id="line2d_40">
      <g>
       <use style="stroke:#000000;stroke-width:0.8;" x="369.296024" xlink:href="#mcaa99d6396" y="147.919051"/>
      </g>
     </g>
     <g id="text_40">
      <!-- 2020/05/05 -->
      <g transform="translate(358.999661 201.79467)rotate(-60)scale(0.1 -0.1)">
       <use transform="scale(0.996264)" xlink:href="#CMR17-32"/>
       <use transform="translate(45.690477 0)scale(0.996264)" xlink:href="#CMR17-30"/>
       <use transform="translate(91.380954 0)scale(0.996264)" xlink:href="#CMR17-32"/>
       <use transform="translate(137.071431 0)scale(0.996264)" xlink:href="#CMR17-30"/>
       <use transform="translate(182.761908 0)scale(0.996264)" xlink:href="#CMR17-2f"/>
       <use transform="translate(228.452386 0)scale(0.996264)" xlink:href="#CMR17-30"/>
       <use transform="translate(274.142863 0)scale(0.996264)" xlink:href="#CMR17-35"/>
       <use transform="translate(319.83334 0)scale(0.996264)" xlink:href="#CMR17-2f"/>
       <use transform="translate(365.523817 0)scale(0.996264)" xlink:href="#CMR17-30"/>
       <use transform="translate(411.214294 0)scale(0.996264)" xlink:href="#CMR17-35"/>
      </g>
     </g>
    </g>
    <g id="xtick_41">
     <g id="line2d_41">
      <g>
       <use style="stroke:#000000;stroke-width:0.8;" x="377.540196" xlink:href="#mcaa99d6396" y="147.919051"/>
      </g>
     </g>
     <g id="text_41">
      <!-- 2020/05/06 -->
      <g transform="translate(367.243833 201.79467)rotate(-60)scale(0.1 -0.1)">
       <use transform="scale(0.996264)" xlink:href="#CMR17-32"/>
       <use transform="translate(45.690477 0)scale(0.996264)" xlink:href="#CMR17-30"/>
       <use transform="translate(91.380954 0)scale(0.996264)" xlink:href="#CMR17-32"/>
       <use transform="translate(137.071431 0)scale(0.996264)" xlink:href="#CMR17-30"/>
       <use transform="translate(182.761908 0)scale(0.996264)" xlink:href="#CMR17-2f"/>
       <use transform="translate(228.452386 0)scale(0.996264)" xlink:href="#CMR17-30"/>
       <use transform="translate(274.142863 0)scale(0.996264)" xlink:href="#CMR17-35"/>
       <use transform="translate(319.83334 0)scale(0.996264)" xlink:href="#CMR17-2f"/>
       <use transform="translate(365.523817 0)scale(0.996264)" xlink:href="#CMR17-30"/>
       <use transform="translate(411.214294 0)scale(0.996264)" xlink:href="#CMR17-36"/>
      </g>
     </g>
    </g>
    <g id="xtick_42">
     <g id="line2d_42">
      <g>
       <use style="stroke:#000000;stroke-width:0.8;" x="385.784368" xlink:href="#mcaa99d6396" y="147.919051"/>
      </g>
     </g>
     <g id="text_42">
      <!-- 2020/05/07 -->
      <g transform="translate(375.488005 201.79467)rotate(-60)scale(0.1 -0.1)">
       <use transform="scale(0.996264)" xlink:href="#CMR17-32"/>
       <use transform="translate(45.690477 0)scale(0.996264)" xlink:href="#CMR17-30"/>
       <use transform="translate(91.380954 0)scale(0.996264)" xlink:href="#CMR17-32"/>
       <use transform="translate(137.071431 0)scale(0.996264)" xlink:href="#CMR17-30"/>
       <use transform="translate(182.761908 0)scale(0.996264)" xlink:href="#CMR17-2f"/>
       <use transform="translate(228.452386 0)scale(0.996264)" xlink:href="#CMR17-30"/>
       <use transform="translate(274.142863 0)scale(0.996264)" xlink:href="#CMR17-35"/>
       <use transform="translate(319.83334 0)scale(0.996264)" xlink:href="#CMR17-2f"/>
       <use transform="translate(365.523817 0)scale(0.996264)" xlink:href="#CMR17-30"/>
       <use transform="translate(411.214294 0)scale(0.996264)" xlink:href="#CMR17-37"/>
      </g>
     </g>
    </g>
    <g id="xtick_43">
     <g id="line2d_43">
      <g>
       <use style="stroke:#000000;stroke-width:0.8;" x="394.02854" xlink:href="#mcaa99d6396" y="147.919051"/>
      </g>
     </g>
     <g id="text_43">
      <!-- 2020/05/15 -->
      <g transform="translate(383.732177 201.79467)rotate(-60)scale(0.1 -0.1)">
       <use transform="scale(0.996264)" xlink:href="#CMR17-32"/>
       <use transform="translate(45.690477 0)scale(0.996264)" xlink:href="#CMR17-30"/>
       <use transform="translate(91.380954 0)scale(0.996264)" xlink:href="#CMR17-32"/>
       <use transform="translate(137.071431 0)scale(0.996264)" xlink:href="#CMR17-30"/>
       <use transform="translate(182.761908 0)scale(0.996264)" xlink:href="#CMR17-2f"/>
       <use transform="translate(228.452386 0)scale(0.996264)" xlink:href="#CMR17-30"/>
       <use transform="translate(274.142863 0)scale(0.996264)" xlink:href="#CMR17-35"/>
       <use transform="translate(319.83334 0)scale(0.996264)" xlink:href="#CMR17-2f"/>
       <use transform="translate(365.523817 0)scale(0.996264)" xlink:href="#CMR17-31"/>
       <use transform="translate(411.214294 0)scale(0.996264)" xlink:href="#CMR17-35"/>
      </g>
     </g>
    </g>
    <g id="xtick_44">
     <g id="line2d_44">
      <g>
       <use style="stroke:#000000;stroke-width:0.8;" x="402.272712" xlink:href="#mcaa99d6396" y="147.919051"/>
      </g>
     </g>
     <g id="text_44">
      <!-- 2020/06/08 -->
      <g transform="translate(391.976349 201.79467)rotate(-60)scale(0.1 -0.1)">
       <use transform="scale(0.996264)" xlink:href="#CMR17-32"/>
       <use transform="translate(45.690477 0)scale(0.996264)" xlink:href="#CMR17-30"/>
       <use transform="translate(91.380954 0)scale(0.996264)" xlink:href="#CMR17-32"/>
       <use transform="translate(137.071431 0)scale(0.996264)" xlink:href="#CMR17-30"/>
       <use transform="translate(182.761908 0)scale(0.996264)" xlink:href="#CMR17-2f"/>
       <use transform="translate(228.452386 0)scale(0.996264)" xlink:href="#CMR17-30"/>
       <use transform="translate(274.142863 0)scale(0.996264)" xlink:href="#CMR17-36"/>
       <use transform="translate(319.83334 0)scale(0.996264)" xlink:href="#CMR17-2f"/>
       <use transform="translate(365.523817 0)scale(0.996264)" xlink:href="#CMR17-30"/>
       <use transform="translate(411.214294 0)scale(0.996264)" xlink:href="#CMR17-38"/>
      </g>
     </g>
    </g>
   </g>
   <g id="matplotlib.axis_2">
    <g id="ytick_1">
     <g id="line2d_45">
      <defs>
       <path d="M 0 0 
L -3.5 0 
" id="m1ba5152b54" style="stroke:#000000;stroke-width:0.8;"/>
      </defs>
      <g>
       <use style="stroke:#000000;stroke-width:0.8;" x="47.773318" xlink:href="#m1ba5152b54" y="141.784549"/>
      </g>
     </g>
     <g id="text_45">
      <!-- $\mathdefault{0.0}$ -->
      <g transform="translate(25.815677 145.935639)scale(0.12 -0.12)">
       <defs>
        <path d="M 1178 307 
C 1178 492 1024 619 870 619 
C 685 619 557 466 557 313 
C 557 128 710 0 864 0 
C 1050 0 1178 153 1178 307 
z
" id="CMMI12-3a" transform="scale(0.015625)"/>
       </defs>
       <use transform="scale(0.996264)" xlink:href="#CMR17-30"/>
       <use transform="translate(45.690477 0)scale(0.996264)" xlink:href="#CMMI12-3a"/>
       <use transform="translate(72.787654 0)scale(0.996264)" xlink:href="#CMR17-30"/>
      </g>
     </g>
    </g>
    <g id="ytick_2">
     <g id="line2d_46">
      <g>
       <use style="stroke:#000000;stroke-width:0.8;" x="47.773318" xlink:href="#m1ba5152b54" y="80.439526"/>
      </g>
     </g>
     <g id="text_46">
      <!-- $\mathdefault{0.5}$ -->
      <g transform="translate(25.815677 84.590616)scale(0.12 -0.12)">
       <use transform="scale(0.996264)" xlink:href="#CMR17-30"/>
       <use transform="translate(45.690477 0)scale(0.996264)" xlink:href="#CMMI12-3a"/>
       <use transform="translate(72.787654 0)scale(0.996264)" xlink:href="#CMR17-35"/>
      </g>
     </g>
    </g>
    <g id="ytick_3">
     <g id="line2d_47">
      <g>
       <use style="stroke:#000000;stroke-width:0.8;" x="47.773318" xlink:href="#m1ba5152b54" y="19.094502"/>
      </g>
     </g>
     <g id="text_47">
      <!-- $\mathdefault{1.0}$ -->
      <g transform="translate(25.815677 23.245592)scale(0.12 -0.12)">
       <use transform="scale(0.996264)" xlink:href="#CMR17-31"/>
       <use transform="translate(45.690477 0)scale(0.996264)" xlink:href="#CMMI12-3a"/>
       <use transform="translate(72.787654 0)scale(0.996264)" xlink:href="#CMR17-30"/>
      </g>
     </g>
    </g>
    <g id="text_48">
     <!-- Intersection rate -->
     <g transform="translate(19.878498 116.194384)rotate(-90)scale(0.1 -0.1)">
      <defs>
       <path d="M 1261 3905 
C 1261 4192 1338 4192 1798 4192 
L 1798 4352 
C 1594 4352 1267 4352 1050 4352 
C 832 4352 506 4352 301 4352 
L 301 4192 
C 762 4192 838 4192 838 3905 
L 838 447 
C 838 160 762 160 301 160 
L 301 0 
C 506 0 832 0 1050 0 
C 1267 0 1594 0 1798 0 
L 1798 160 
C 1338 160 1261 160 1261 447 
L 1261 3905 
z
" id="CMR17-49" transform="scale(0.015625)"/>
       <path d="M 2656 1933 
C 2656 2259 2592 2790 1837 2790 
C 1331 2790 1069 2400 973 2144 
L 966 2144 
L 966 2790 
L 211 2720 
L 211 2554 
C 589 2554 646 2515 646 2208 
L 646 428 
C 646 184 621 153 211 153 
L 211 -13 
C 365 0 646 0 813 0 
C 979 0 1267 0 1421 -13 
L 1421 153 
C 1011 153 986 178 986 428 
L 986 1658 
C 986 2247 1344 2688 1792 2688 
C 2266 2688 2317 2266 2317 1958 
L 2317 428 
C 2317 184 2291 153 1882 153 
L 1882 -13 
C 2035 0 2317 0 2483 0 
C 2650 0 2938 0 3091 -13 
L 3091 153 
C 2682 153 2656 178 2656 428 
L 2656 1933 
z
" id="CMR17-6e" transform="scale(0.015625)"/>
       <path d="M 966 2560 
L 1862 2560 
L 1862 2725 
L 966 2725 
L 966 3904 
L 851 3904 
C 838 3245 614 2668 70 2668 
L 70 2560 
L 627 2560 
L 627 771 
C 627 650 627 -64 1370 -64 
C 1747 -64 1965 306 1965 777 
L 1965 1140 
L 1850 1140 
L 1850 783 
C 1850 344 1677 51 1408 51 
C 1222 51 966 178 966 758 
L 966 2560 
z
" id="CMR17-74" transform="scale(0.015625)"/>
       <path d="M 2438 1472 
C 2464 1498 2464 1511 2464 1576 
C 2464 2238 2118 2816 1389 2816 
C 710 2816 173 2169 173 1383 
C 173 551 781 -64 1459 -64 
C 2176 -64 2458 607 2458 740 
C 2458 784 2419 784 2406 784 
C 2362 784 2355 771 2330 696 
C 2189 265 1837 51 1504 51 
C 1229 51 954 203 781 480 
C 582 803 582 1176 582 1472 
L 2438 1472 
z
M 589 1568 
C 634 2505 1126 2714 1382 2714 
C 1818 2714 2112 2297 2118 1568 
L 589 1568 
z
" id="CMR17-65" transform="scale(0.015625)"/>
       <path d="M 960 1497 
C 960 2112 1222 2688 1702 2688 
C 1747 2688 1792 2682 1837 2662 
C 1837 2662 1696 2617 1696 2452 
C 1696 2298 1818 2234 1914 2234 
C 1990 2234 2131 2279 2131 2458 
C 2131 2663 1926 2790 1709 2790 
C 1222 2790 1011 2317 947 2093 
L 941 2093 
L 941 2790 
L 198 2720 
L 198 2554 
C 576 2554 634 2515 634 2208 
L 634 428 
C 634 184 608 153 198 153 
L 198 -13 
C 352 0 646 0 813 0 
C 998 0 1325 0 1498 -13 
L 1498 153 
C 1037 153 960 153 960 440 
L 960 1497 
z
" id="CMR17-72" transform="scale(0.015625)"/>
       <path d="M 1978 2697 
C 1978 2813 1971 2819 1933 2819 
C 1907 2819 1901 2813 1824 2717 
C 1805 2691 1747 2626 1728 2601 
C 1523 2819 1235 2819 1126 2819 
C 416 2819 160 2447 160 2076 
C 160 1498 813 1365 998 1325 
C 1402 1243 1542 1217 1677 1101 
C 1760 1025 1901 884 1901 654 
C 1901 384 1747 38 1158 38 
C 602 38 403 460 288 1021 
C 269 1110 269 1117 218 1117 
C 166 1117 160 1110 160 983 
L 160 63 
C 160 -51 166 -58 205 -58 
C 237 -58 243 -51 275 0 
C 314 57 410 211 448 276 
C 576 103 800 -64 1158 -64 
C 1792 -64 2131 283 2131 784 
C 2131 1112 1958 1285 1875 1362 
C 1683 1561 1459 1606 1190 1657 
C 838 1735 390 1825 390 2217 
C 390 2383 480 2737 1126 2737 
C 1811 2737 1850 2094 1862 1888 
C 1869 1856 1901 1849 1920 1849 
C 1978 1849 1978 1869 1978 1978 
L 1978 2697 
z
" id="CMR17-73" transform="scale(0.015625)"/>
       <path d="M 2234 2240 
C 2112 2240 1933 2240 1933 2017 
C 1933 1838 2080 1787 2163 1787 
C 2208 1787 2394 1807 2394 2024 
C 2394 2467 1958 2803 1466 2803 
C 787 2803 211 2178 211 1363 
C 211 516 813 -64 1466 -64 
C 2259 -64 2458 677 2458 748 
C 2458 774 2451 793 2406 793 
C 2362 793 2355 787 2330 703 
C 2163 180 1798 51 1523 51 
C 1114 51 621 427 621 1369 
C 621 2338 1094 2688 1472 2688 
C 1722 2688 2093 2573 2234 2240 
z
" id="CMR17-63" transform="scale(0.015625)"/>
       <path d="M 992 3909 
C 992 4049 877 4170 730 4170 
C 589 4170 467 4056 467 3909 
C 467 3769 582 3648 730 3648 
C 870 3648 992 3763 992 3909 
z
M 243 2706 
L 243 2541 
C 602 2541 653 2502 653 2197 
L 653 427 
C 653 184 627 153 218 153 
L 218 -13 
C 371 0 646 0 806 0 
C 960 0 1222 0 1370 -13 
L 1370 153 
C 992 153 979 191 979 420 
L 979 2776 
L 243 2706 
z
" id="CMR17-69" transform="scale(0.015625)"/>
       <path d="M 2758 1356 
C 2758 2176 2163 2816 1466 2816 
C 768 2816 173 2176 173 1356 
C 173 551 768 -64 1466 -64 
C 2163 -64 2758 551 2758 1356 
z
M 1466 51 
C 1165 51 909 230 762 480 
C 602 767 582 1126 582 1408 
C 582 1677 595 2010 762 2298 
C 890 2509 1139 2714 1466 2714 
C 1754 2714 1997 2554 2150 2330 
C 2349 2029 2349 1607 2349 1408 
C 2349 1158 2336 775 2163 467 
C 1984 173 1709 51 1466 51 
z
" id="CMR17-6f" transform="scale(0.015625)"/>
       <path d="M 2304 1653 
C 2304 2072 2304 2294 2035 2543 
C 1798 2752 1523 2816 1306 2816 
C 800 2816 435 2407 435 1971 
C 435 1728 627 1728 666 1728 
C 749 1728 896 1778 896 1954 
C 896 2112 774 2181 666 2181 
C 640 2181 608 2174 589 2168 
C 723 2592 1069 2714 1293 2714 
C 1613 2714 1965 2429 1965 1885 
L 1965 1600 
C 1587 1600 1133 1549 774 1357 
C 371 1133 256 813 256 570 
C 256 77 832 -64 1171 -64 
C 1523 -64 1850 139 1990 511 
C 2003 233 2182 -18 2464 -18 
C 2598 -18 2938 70 2938 567 
L 2938 920 
L 2822 920 
L 2822 562 
C 2822 178 2650 128 2566 128 
C 2304 128 2304 458 2304 738 
L 2304 1653 
z
M 1965 870 
C 1965 317 1568 38 1216 38 
C 896 38 646 275 646 570 
C 646 761 730 1100 1101 1305 
C 1408 1478 1760 1504 1965 1504 
L 1965 870 
z
" id="CMR17-61" transform="scale(0.015625)"/>
      </defs>
      <use transform="scale(0.996264)" xlink:href="#CMR17-49"/>
      <use transform="translate(32.638409 0)scale(0.996264)" xlink:href="#CMR17-6e"/>
      <use transform="translate(80.931325 0)scale(0.996264)" xlink:href="#CMR17-74"/>
      <use transform="translate(116.212093 0)scale(0.996264)" xlink:href="#CMR17-65"/>
      <use transform="translate(156.697753 0)scale(0.996264)" xlink:href="#CMR17-72"/>
      <use transform="translate(191.978521 0)scale(0.996264)" xlink:href="#CMR17-73"/>
      <use transform="translate(227.779859 0)scale(0.996264)" xlink:href="#CMR17-65"/>
      <use transform="translate(268.265519 0)scale(0.996264)" xlink:href="#CMR17-63"/>
      <use transform="translate(308.75118 0)scale(0.996264)" xlink:href="#CMR17-74"/>
      <use transform="translate(344.031947 0)scale(0.996264)" xlink:href="#CMR17-69"/>
      <use transform="translate(368.903006 0)scale(0.996264)" xlink:href="#CMR17-6f"/>
      <use transform="translate(414.593483 0)scale(0.996264)" xlink:href="#CMR17-6e"/>
      <use transform="translate(495.564819 0)scale(0.996264)" xlink:href="#CMR17-72"/>
      <use transform="translate(530.845587 0)scale(0.996264)" xlink:href="#CMR17-61"/>
      <use transform="translate(576.536064 0)scale(0.996264)" xlink:href="#CMR17-74"/>
      <use transform="translate(611.816832 0)scale(0.996264)" xlink:href="#CMR17-65"/>
     </g>
    </g>
   </g>
   <g id="line2d_48">
    <path clip-path="url(#p997edaf1ed)" d="M 47.773318 19.094502 
L 56.01749 100.887867 
L 64.261662 80.439526 
L 72.505834 68.170521 
L 80.750006 80.439526 
L 88.994178 75.720678 
L 97.23835 57.435142 
L 105.482522 59.991185 
L 113.726694 54.148801 
L 121.970866 54.879099 
L 130.215038 54.714193 
L 138.45921 53.601078 
L 146.703382 53.699387 
L 154.947554 51.811848 
L 163.191726 52.323057 
L 171.435898 47.962749 
L 179.68007 47.40759 
L 187.924242 44.558474 
L 196.168414 45.385227 
L 204.412585 47.72218 
L 212.656757 42.464035 
L 220.900929 46.978604 
L 229.145101 44.354218 
L 237.389273 42.6241 
L 245.633445 42.306133 
L 253.877617 41.996644 
L 262.121789 41.6953 
L 270.365961 39.542843 
L 278.610133 37.730965 
L 286.854305 34.056703 
L 295.098477 32.398242 
L 303.342649 32.239864 
L 311.586821 30.641801 
L 319.830993 30.50753 
L 328.075165 30.376346 
L 336.319337 28.853938 
L 344.563509 27.365741 
L 352.80768 25.910616 
L 361.051852 24.487471 
L 369.296024 23.095265 
L 377.540196 23.052246 
L 385.784368 21.704929 
L 394.02854 20.385977 
L 402.272712 19.094502 
" style="fill:none;stroke:#000000;stroke-dasharray:7.4,3.2;stroke-dashoffset:0;stroke-width:2;"/>
   </g>
   <g id="line2d_49">
    <path clip-path="url(#p997edaf1ed)" d="M 47.773318 19.094502 
L 56.01749 100.887867 
L 64.261662 80.439526 
L 72.505834 92.70853 
L 80.750006 100.887867 
L 88.994178 75.720678 
L 97.23835 65.10327 
L 105.482522 73.623412 
L 113.726694 59.991185 
L 121.970866 65.10327 
L 130.215038 66.587424 
L 138.45921 65.10327 
L 146.703382 59.991185 
L 154.947554 57.264739 
L 163.191726 54.879099 
L 171.435898 45.557061 
L 179.68007 45.048166 
L 187.924242 44.558474 
L 196.168414 45.385227 
L 204.412585 47.72218 
L 212.656757 48.306418 
L 220.900929 46.978604 
L 229.145101 47.962749 
L 237.389273 42.6241 
L 245.633445 40.648159 
L 253.877617 38.72491 
L 262.121789 38.466615 
L 270.365961 37.969894 
L 278.610133 36.177927 
L 286.854305 34.056703 
L 295.098477 33.876436 
L 303.342649 32.239864 
L 311.586821 30.641801 
L 319.830993 30.50753 
L 328.075165 28.966115 
L 336.319337 27.459733 
L 344.563509 25.987202 
L 352.80768 24.547393 
L 361.051852 24.487471 
L 369.296024 24.428852 
L 377.540196 23.052246 
L 385.784368 21.704929 
L 394.02854 20.385977 
L 402.272712 19.094502 
" style="fill:none;stroke:#db7093;stroke-dasharray:7.4,3.2;stroke-dashoffset:0;stroke-width:2;"/>
   </g>
   <g id="line2d_50">
    <path clip-path="url(#p997edaf1ed)" d="M 47.773318 19.094502 
L 56.01749 59.991185 
L 64.261662 49.767014 
L 72.505834 68.170521 
L 80.750006 80.439526 
L 88.994178 75.720678 
L 97.23835 57.435142 
L 105.482522 59.991185 
L 113.726694 54.148801 
L 121.970866 59.991185 
L 130.215038 54.714193 
L 138.45921 49.767014 
L 146.703382 44.261691 
L 154.947554 49.085403 
L 163.191726 52.323057 
L 171.435898 47.962749 
L 179.68007 47.40759 
L 187.924242 46.873381 
L 196.168414 45.385227 
L 204.412585 45.677346 
L 212.656757 44.411496 
L 220.900929 41.401784 
L 229.145101 40.745687 
L 237.389273 37.582044 
L 245.633445 37.332212 
L 253.877617 37.089042 
L 262.121789 38.466615 
L 270.365961 36.396945 
L 278.610133 36.177927 
L 286.854305 31.064263 
L 295.098477 30.920049 
L 303.342649 30.779269 
L 311.586821 29.198389 
L 319.830993 30.50753 
L 328.075165 28.966115 
L 336.319337 27.459733 
L 344.563509 27.365741 
L 352.80768 27.273839 
L 361.051852 25.835714 
L 369.296024 24.428852 
L 377.540196 23.052246 
L 385.784368 21.704929 
L 394.02854 20.385977 
L 402.272712 19.094502 
" style="fill:none;stroke:#a52a2a;stroke-linecap:square;stroke-width:2;"/>
   </g>
   <g id="line2d_51">
    <path clip-path="url(#p997edaf1ed)" d="M 47.773318 141.784549 
L 56.01749 141.784549 
L 64.261662 141.784549 
L 72.505834 117.24654 
L 80.750006 121.336208 
L 88.994178 104.033765 
L 97.23835 95.775781 
L 105.482522 100.887867 
L 113.726694 95.045484 
L 121.970866 90.663696 
L 130.215038 78.460654 
L 138.45921 76.605462 
L 146.703382 75.720678 
L 154.947554 65.444075 
L 163.191726 67.659312 
L 171.435898 62.396872 
L 179.68007 63.923558 
L 187.924242 63.077727 
L 196.168414 62.912376 
L 204.412585 57.94635 
L 212.656757 52.20134 
L 220.900929 50.696484 
L 229.145101 47.962749 
L 237.389273 42.6241 
L 245.633445 42.306133 
L 253.877617 40.360777 
L 262.121789 40.080958 
L 270.365961 37.969894 
L 278.610133 36.177927 
L 286.854305 34.056703 
L 295.098477 32.398242 
L 303.342649 32.239864 
L 311.586821 30.641801 
L 319.830993 30.50753 
L 328.075165 28.966115 
L 336.319337 27.459733 
L 344.563509 25.987202 
L 352.80768 24.547393 
L 361.051852 25.835714 
L 369.296024 24.428852 
L 377.540196 23.052246 
L 385.784368 21.704929 
L 394.02854 20.385977 
L 402.272712 19.094502 
" style="fill:none;stroke:#006400;stroke-linecap:square;stroke-width:2;"/>
   </g>
   <g id="patch_3">
    <path d="M 47.773318 147.919051 
L 47.773318 12.96 
" style="fill:none;stroke:#000000;stroke-linecap:square;stroke-linejoin:miter;stroke-width:0.8;"/>
   </g>
   <g id="patch_4">
    <path d="M 402.272712 147.919051 
L 402.272712 12.96 
" style="fill:none;stroke:#000000;stroke-linecap:square;stroke-linejoin:miter;stroke-width:0.8;"/>
   </g>
   <g id="patch_5">
    <path d="M 47.773318 147.919051 
L 402.272712 147.919051 
" style="fill:none;stroke:#000000;stroke-linecap:square;stroke-linejoin:miter;stroke-width:0.8;"/>
   </g>
   <g id="patch_6">
    <path d="M 47.773318 12.96 
L 402.272712 12.96 
" style="fill:none;stroke:#000000;stroke-linecap:square;stroke-linejoin:miter;stroke-width:0.8;"/>
   </g>
   <g id="legend_1">
    <g id="patch_7">
     <path d="M 260.86949 143.419051 
L 395.972712 143.419051 
Q 397.772712 143.419051 397.772712 141.619051 
L 397.772712 115.586299 
Q 397.772712 113.786299 395.972712 113.786299 
L 260.86949 113.786299 
Q 259.06949 113.786299 259.06949 115.586299 
L 259.06949 141.619051 
Q 259.06949 143.419051 260.86949 143.419051 
z
" style="fill:#ffffff;opacity:0.8;stroke:#cccccc;stroke-linejoin:miter;"/>
    </g>
    <g id="line2d_52">
     <path d="M 262.66949 120.961081 
L 280.66949 120.961081 
" style="fill:none;stroke:#000000;stroke-dasharray:7.4,3.2;stroke-dashoffset:0;stroke-width:2;"/>
    </g>
    <g id="line2d_53"/>
    <g id="text_49">
     <!-- $k$ (0.80) -->
     <g transform="translate(287.86949 124.111081)scale(0.09 -0.09)">
      <defs>
       <path d="M 1798 4257 
C 1805 4283 1818 4321 1818 4352 
C 1818 4416 1754 4416 1741 4416 
C 1734 4416 1504 4393 1389 4377 
C 1280 4377 1184 4358 1069 4358 
C 915 4345 870 4339 870 4224 
C 870 4160 934 4160 998 4160 
C 1325 4160 1325 4103 1325 4040 
C 1325 4015 1325 4002 1293 3888 
L 378 248 
C 352 152 352 140 352 101 
C 352 -38 461 -64 525 -64 
C 704 -64 742 77 794 275 
L 1094 1469 
C 1555 1418 1830 1226 1830 920 
C 1830 881 1830 856 1811 760 
C 1786 664 1786 588 1786 556 
C 1786 185 2029 -64 2355 -64 
C 2650 -64 2803 204 2854 294 
C 2989 530 3072 888 3072 913 
C 3072 945 3046 971 3008 971 
C 2950 971 2944 945 2918 843 
C 2829 511 2694 64 2368 64 
C 2240 64 2157 128 2157 370 
C 2157 492 2182 632 2208 728 
C 2234 843 2234 849 2234 926 
C 2234 1303 1894 1514 1306 1590 
C 1536 1731 1766 1980 1856 2076 
C 2221 2484 2470 2689 2765 2689 
C 2912 2689 2950 2650 2995 2612 
C 2758 2586 2669 2420 2669 2293 
C 2669 2139 2790 2088 2880 2088 
C 3053 2088 3206 2235 3206 2440 
C 3206 2625 3059 2816 2771 2816 
C 2419 2816 2131 2567 1677 2056 
C 1613 1980 1376 1737 1139 1648 
L 1798 4257 
z
" id="CMMI12-6b" transform="scale(0.015625)"/>
       <path d="M 1958 -1561 
C 1958 -1555 1958 -1542 1939 -1523 
C 1645 -1224 858 -407 858 1581 
C 858 3569 1632 4379 1946 4697 
C 1946 4704 1958 4717 1958 4736 
C 1958 4755 1939 4768 1914 4768 
C 1843 4768 1299 4296 986 3594 
C 666 2887 576 2199 576 1588 
C 576 1128 621 351 1005 -471 
C 1312 -1135 1837 -1600 1914 -1600 
C 1946 -1600 1958 -1587 1958 -1561 
z
" id="CMR17-28" transform="scale(0.015625)"/>
       <path d="M 1062 261 
C 1062 420 934 522 800 522 
C 672 522 538 420 538 261 
C 538 102 666 0 800 0 
C 928 0 1062 102 1062 261 
z
" id="CMR17-2e" transform="scale(0.015625)"/>
       <path d="M 1683 1581 
C 1683 2040 1638 2817 1254 3639 
C 947 4303 422 4768 346 4768 
C 326 4768 301 4761 301 4729 
C 301 4717 307 4710 314 4697 
C 621 4378 1402 3568 1402 1584 
C 1402 -407 627 -1217 314 -1537 
C 307 -1549 301 -1556 301 -1568 
C 301 -1600 326 -1600 346 -1600 
C 416 -1600 960 -1128 1274 -426 
C 1594 281 1683 969 1683 1581 
z
" id="CMR17-29" transform="scale(0.015625)"/>
      </defs>
      <use transform="scale(0.996264)" xlink:href="#CMMI12-6b"/>
      <use transform="translate(84.155167 0)scale(0.996264)" xlink:href="#CMR17-28"/>
      <use transform="translate(119.435935 0)scale(0.996264)" xlink:href="#CMR17-30"/>
      <use transform="translate(165.126412 0)scale(0.996264)" xlink:href="#CMR17-2e"/>
      <use transform="translate(189.99747 0)scale(0.996264)" xlink:href="#CMR17-38"/>
      <use transform="translate(235.687948 0)scale(0.996264)" xlink:href="#CMR17-30"/>
      <use transform="translate(281.378425 0)scale(0.996264)" xlink:href="#CMR17-29"/>
     </g>
    </g>
    <g id="line2d_54">
     <path d="M 262.66949 134.427457 
L 280.66949 134.427457 
" style="fill:none;stroke:#db7093;stroke-dasharray:7.4,3.2;stroke-dashoffset:0;stroke-width:2;"/>
    </g>
    <g id="line2d_55"/>
    <g id="text_50">
     <!-- $b$ (0.78) -->
     <g transform="translate(287.86949 137.577457)scale(0.09 -0.09)">
      <defs>
       <path d="M 1478 4257 
C 1485 4283 1498 4321 1498 4352 
C 1498 4416 1434 4416 1421 4416 
C 1414 4416 1184 4393 1069 4377 
C 960 4377 864 4358 749 4358 
C 595 4345 550 4339 550 4224 
C 550 4160 614 4160 678 4160 
C 1005 4160 1005 4103 1005 4040 
C 1005 3996 954 3811 928 3696 
L 774 3085 
C 710 2831 346 1387 320 1272 
C 288 1114 288 1005 288 922 
C 288 274 653 -64 1069 -64 
C 1811 -64 2579 888 2579 1814 
C 2579 2401 2246 2816 1766 2816 
C 1434 2816 1133 2542 1011 2414 
L 1478 4257 
z
M 1075 64 
C 870 64 646 217 646 715 
C 646 926 666 1047 781 1494 
C 800 1577 902 1986 928 2069 
C 941 2120 1318 2689 1754 2689 
C 2035 2689 2163 2408 2163 2076 
C 2163 1769 1984 1047 1824 715 
C 1664 370 1370 64 1075 64 
z
" id="CMMI12-62" transform="scale(0.015625)"/>
      </defs>
      <use transform="scale(0.996264)" xlink:href="#CMMI12-62"/>
      <use transform="translate(71.551841 0)scale(0.996264)" xlink:href="#CMR17-28"/>
      <use transform="translate(106.832608 0)scale(0.996264)" xlink:href="#CMR17-30"/>
      <use transform="translate(152.523085 0)scale(0.996264)" xlink:href="#CMR17-2e"/>
      <use transform="translate(177.394144 0)scale(0.996264)" xlink:href="#CMR17-37"/>
      <use transform="translate(223.084621 0)scale(0.996264)" xlink:href="#CMR17-38"/>
      <use transform="translate(268.775098 0)scale(0.996264)" xlink:href="#CMR17-29"/>
     </g>
    </g>
    <g id="line2d_56">
     <path d="M 337.552559 120.961081 
L 355.552559 120.961081 
" style="fill:none;stroke:#a52a2a;stroke-linecap:square;stroke-width:2;"/>
    </g>
    <g id="line2d_57"/>
    <g id="text_51">
     <!-- $c$ (0.82) -->
     <g transform="translate(362.752559 124.111081)scale(0.09 -0.09)">
      <defs>
       <path d="M 2502 2431 
C 2381 2431 2323 2431 2234 2355 
C 2195 2323 2125 2227 2125 2125 
C 2125 1997 2221 1920 2342 1920 
C 2496 1920 2669 2044 2669 2292 
C 2669 2588 2374 2816 1933 2816 
C 1094 2816 256 1903 256 996 
C 256 441 602 -64 1254 -64 
C 2125 -64 2675 622 2675 706 
C 2675 744 2637 776 2611 776 
C 2592 776 2586 770 2528 713 
C 2118 162 1510 64 1267 64 
C 826 64 685 446 685 764 
C 685 988 794 1605 1024 2039 
C 1190 2338 1536 2682 1939 2682 
C 2022 2682 2374 2682 2502 2431 
z
" id="CMMI12-63" transform="scale(0.015625)"/>
      </defs>
      <use transform="scale(0.996264)" xlink:href="#CMMI12-63"/>
      <use transform="translate(72.0592 0)scale(0.996264)" xlink:href="#CMR17-28"/>
      <use transform="translate(107.339968 0)scale(0.996264)" xlink:href="#CMR17-30"/>
      <use transform="translate(153.030445 0)scale(0.996264)" xlink:href="#CMR17-2e"/>
      <use transform="translate(177.901503 0)scale(0.996264)" xlink:href="#CMR17-38"/>
      <use transform="translate(223.591981 0)scale(0.996264)" xlink:href="#CMR17-32"/>
      <use transform="translate(269.282458 0)scale(0.996264)" xlink:href="#CMR17-29"/>
     </g>
    </g>
    <g id="line2d_58">
     <path d="M 337.552559 134.427457 
L 355.552559 134.427457 
" style="fill:none;stroke:#006400;stroke-linecap:square;stroke-width:2;"/>
    </g>
    <g id="line2d_59"/>
    <g id="text_52">
     <!-- $v$ (0.67) -->
     <g transform="translate(362.752559 137.577457)scale(0.09 -0.09)">
      <defs>
       <path d="M 2925 2389 
C 2925 2791 2720 2816 2669 2816 
C 2515 2816 2374 2663 2374 2535 
C 2374 2459 2419 2414 2445 2389 
C 2509 2331 2675 2159 2675 1827 
C 2675 1558 2291 64 1523 64 
C 1133 64 1056 390 1056 626 
C 1056 945 1203 1392 1376 1852 
C 1478 2114 1504 2178 1504 2305 
C 1504 2574 1312 2816 998 2816 
C 410 2816 173 1890 173 1839 
C 173 1814 198 1782 243 1782 
C 301 1782 307 1807 333 1897 
C 486 2446 736 2689 979 2689 
C 1037 2689 1146 2689 1146 2478 
C 1146 2312 1075 2127 979 1884 
C 672 1067 672 869 672 715 
C 672 575 691 313 890 134 
C 1120 -64 1440 -64 1498 -64 
C 2560 -64 2925 2024 2925 2389 
z
" id="CMMI12-76" transform="scale(0.015625)"/>
      </defs>
      <use transform="scale(0.996264)" xlink:href="#CMMI12-76"/>
      <use transform="translate(80.81114 0)scale(0.996264)" xlink:href="#CMR17-28"/>
      <use transform="translate(116.091908 0)scale(0.996264)" xlink:href="#CMR17-30"/>
      <use transform="translate(161.782385 0)scale(0.996264)" xlink:href="#CMR17-2e"/>
      <use transform="translate(186.653443 0)scale(0.996264)" xlink:href="#CMR17-36"/>
      <use transform="translate(232.34392 0)scale(0.996264)" xlink:href="#CMR17-37"/>
      <use transform="translate(278.034397 0)scale(0.996264)" xlink:href="#CMR17-29"/>
     </g>
    </g>
   </g>
  </g>
 </g>
 <defs>
  <clipPath id="p997edaf1ed">
   <rect height="134.959051" width="354.499394" x="47.773318" y="12.96"/>
  </clipPath>
 </defs>
</svg>
